<svg xmlns="http://www.w3.org/2000/svg" width="320" height="107" viewBox="0 0 320 107">
    <g fill="none" fill-rule="evenodd">
        <path stroke="#979797" stroke-dasharray="10" stroke-linecap="round" d="M38.6 27c-10.687.85-21.605 7.368-32.753 19.55-16.723 18.275 9.992 49.02 36.45 49.02 26.457 0 103.442-54.874 151.789-47.195 32.231 5.12 68.111 22.602 107.64 52.448"/>
        <path fill="#D8D8D8" fill-opacity=".5" d="M297.804 106.233c6.627 0 12-3.351 12-5.837 0-2.485-3.28-6.396-9.907-6.396C293.27 94 284 97.911 284 100.396c0 2.486 7.176 5.837 13.804 5.837z"/>
        <g transform="translate(275 42)">
            <path fill="#BBDFF5" stroke="#1E69A2" d="M21.8 0C40.26.658 45.618 13.795 43.6 23.848 42.252 30.55 35.207 41.934 22.462 58 7.488 40.813 0 28.279 0 20.396 0 8.573 9.224.84 21.8 0z"/>
            <path fill="#FFF" d="M21.718 32C27.963 32 35 26.473 35 20.5S29.152 9 22.906 9C16.661 9 10 14.373 10 20.346 10 26.318 15.472 32 21.718 32z"/>
            <circle cx="29" cy="17" r="1" fill="#6D6D6D"/>
            <circle cx="16" cy="17" r="1" fill="#6D6D6D"/>
            <path stroke="#979797" stroke-linecap="round" stroke-linejoin="round" d="M16.011 20c-.176 4 1.76 6 5.805 6 4.046 0 6.44-1.807 7.184-5.422"/>
        </g>
        <path fill="#D8D8D8" fill-opacity=".5" d="M167.066 64.457c4.67 0 8.455-2.371 8.455-4.13 0-1.76-2.31-4.527-6.98-4.527-4.669 0-11.2 2.768-11.2 4.527 0 1.759 5.056 4.13 9.725 4.13z"/>
        <g transform="translate(151 19)">
            <path fill="#BBDFF5" stroke="#1E69A2" stroke-width=".7" d="M15.36 0c13.004.465 16.78 9.762 15.358 16.877-.949 4.743-5.912 12.8-14.892 24.17C5.276 28.882 0 20.012 0 14.433 0 6.067 6.499.594 15.36 0z"/>
            <path fill="#FFF" d="M15.301 22.646c4.4 0 9.358-3.912 9.358-8.138 0-4.227-4.12-8.139-8.52-8.139-4.4 0-9.094 3.803-9.094 8.03 0 4.226 3.856 8.247 8.256 8.247z"/>
            <ellipse cx="20.432" cy="12.031" fill="#6D6D6D" rx="1" ry="1"/>
            <ellipse cx="11.273" cy="12.031" fill="#6D6D6D" rx="1" ry="1"/>
            <path stroke="#979797" stroke-linecap="round" stroke-linejoin="round" stroke-width=".7" d="M11.28 14.154c-.123 2.83 1.24 4.246 4.09 4.246 2.85 0 4.538-1.279 5.062-3.837"/>
        </g>
        <g>
            <path fill="#D8D8D8" fill-opacity=".5" d="M38.402 32.623c3.314 0 6-1.65 6-2.874 0-1.223-1.64-3.149-4.953-3.149-3.314 0-7.949 1.926-7.949 3.149 0 1.224 3.588 2.874 6.902 2.874z"/>
            <g transform="translate(27 1)">
                <path fill="#BBDFF5" stroke="#1E69A2" stroke-width=".5" d="M10.9 0c9.23.324 11.909 6.791 10.9 11.74-.673 3.3-4.196 8.905-10.569 16.814C3.744 20.093 0 13.922 0 10.04 0 4.221 4.612.413 10.9 0z"/>
                <path fill="#FFF" d="M10.859 15.754c3.123 0 6.641-2.721 6.641-5.662 0-2.94-2.924-5.661-6.047-5.661C8.33 4.43 5 7.076 5 10.016s2.736 5.738 5.859 5.738z"/>
                <ellipse cx="14.5" cy="8.369" fill="#6D6D6D" rx="1" ry="1"/>
                <ellipse cx="8" cy="8.369" fill="#6D6D6D" rx="1" ry="1"/>
                <path stroke="#979797" stroke-linecap="round" stroke-linejoin="round" stroke-width=".5" d="M8.005 9.846c-.087 1.97.88 2.954 2.903 2.954s3.22-.89 3.592-2.67"/>
            </g>
        </g>
    </g>
</svg>
