<svg width="143" height="143" viewBox="0 0 143 143" fill="none" xmlns="http://www.w3.org/2000/svg">
<circle cx="71.5" cy="71.5" r="71.5" fill="#1E2B56"/>
<g opacity="0.2">
<path d="M129.537 73.3212C129.537 72.4688 128.819 71.751 127.877 71.751C126.98 71.751 126.218 72.4688 126.218 73.3212C126.218 74.1736 126.935 74.8914 127.877 74.8914C128.819 74.8914 129.537 74.1736 129.537 73.3212Z" fill="white"/>
<path d="M125.949 88.3504C125.949 87.2288 125.007 86.3315 123.841 86.3315C122.674 86.3315 121.732 87.2288 121.732 88.3504C121.732 89.472 122.674 90.3693 123.841 90.3693C125.007 90.3693 125.949 89.472 125.949 88.3504Z" fill="white"/>
<path d="M105.808 50.6203C105.808 50.3063 105.539 50.0371 105.225 50.0371C104.911 50.0371 104.642 50.3063 104.642 50.6203C104.642 50.9344 104.911 51.2036 105.225 51.2036C105.539 51.2036 105.808 50.9344 105.808 50.6203Z" fill="white"/>
<path d="M90.4219 23.5675C90.4219 22.6254 89.6145 21.8179 88.5828 21.8179C87.5511 21.8179 86.7437 22.5805 86.7437 23.5675C86.7437 24.5096 87.5511 25.3172 88.5828 25.3172C89.6145 25.3172 90.4219 24.5545 90.4219 23.5675Z" fill="white"/>
<path d="M56.4202 21.5487C56.4202 20.8758 55.8371 20.3374 55.1642 20.3374C54.4913 20.3374 53.9082 20.8758 53.9082 21.5487C53.9082 22.2217 54.4913 22.76 55.1642 22.76C55.8819 22.76 56.4202 22.2217 56.4202 21.5487Z" fill="white"/>
<path d="M50.1852 26.7976C50.1852 25.676 49.2432 24.7339 48.032 24.7339C46.8658 24.7339 45.8789 25.6311 45.8789 26.7976C45.8789 27.9192 46.8209 28.8165 48.032 28.8165C49.2432 28.8165 50.1852 27.9192 50.1852 26.7976Z" fill="white"/>
<path d="M43.7707 16.8384C43.7707 15.8065 42.8735 14.9541 41.797 14.9541C40.7204 14.9541 39.8232 15.8065 39.8232 16.8384C39.8232 17.8702 40.7204 18.7226 41.797 18.7226C42.8735 18.7226 43.7707 17.8702 43.7707 16.8384Z" fill="white"/>
<path d="M3.04044 72.4238C3.04044 71.7957 2.50215 71.2573 1.8293 71.2573C1.15644 71.2573 0.618164 71.7508 0.618164 72.4238C0.618164 73.0519 1.15644 73.5453 1.8293 73.5453C2.50215 73.5453 3.04044 73.0519 3.04044 72.4238Z" fill="white"/>
<path d="M39.4644 16.5692C39.4644 15.7168 38.7467 14.999 37.8047 14.999C36.9076 14.999 36.145 15.7168 36.145 16.5692C36.145 17.4217 36.8627 18.1395 37.8047 18.1395C38.7467 18.1395 39.4644 17.4217 39.4644 16.5692Z" fill="white"/>
<path d="M76.4713 14.9987C76.4713 14.236 75.7984 13.6079 74.991 13.6079C74.1836 13.6079 73.5107 14.236 73.5107 14.9987C73.5107 15.7614 74.1836 16.3894 74.991 16.3894C75.7984 16.3894 76.4713 15.7614 76.4713 14.9987Z" fill="white"/>
<path d="M20.1761 63.7203C20.1761 63.1371 19.6827 62.6885 19.0995 62.6885C18.5164 62.6885 18.0229 63.1371 18.0229 63.7203C18.0229 64.3035 18.5164 64.7522 19.0995 64.7522C19.6827 64.7522 20.1761 64.2587 20.1761 63.7203Z" fill="white"/>
<path d="M139.451 60.7595C139.451 59.8174 138.643 59.0547 137.657 59.0547C136.67 59.0547 135.862 59.8174 135.862 60.7595C135.862 61.7016 136.67 62.4643 137.657 62.4643C138.688 62.4643 139.451 61.7016 139.451 60.7595Z" fill="white"/>
<path d="M126.891 71.0781C126.891 70.2257 126.173 69.5527 125.276 69.5527C124.379 69.5527 123.661 70.2257 123.661 71.0781C123.661 71.9305 124.379 72.6034 125.276 72.6034C126.173 72.6483 126.891 71.9305 126.891 71.0781Z" fill="white"/>
<path d="M131.646 56.0936C131.646 55.6001 131.197 55.1963 130.704 55.1963C130.165 55.1963 129.717 55.6001 129.717 56.0936C129.717 56.5871 130.165 56.9909 130.704 56.9909C131.242 57.0357 131.646 56.6319 131.646 56.0936Z" fill="white"/>
<path d="M120.611 68.7897C120.611 68.2513 120.162 67.8027 119.579 67.8027C118.996 67.8027 118.547 68.2513 118.547 68.7897C118.547 69.3281 118.996 69.7767 119.579 69.7767C120.162 69.7767 120.611 69.3281 120.611 68.7897Z" fill="white"/>
<path d="M129.313 72.1545C129.313 71.6161 128.819 71.1675 128.281 71.1675C127.698 71.1675 127.205 71.6161 127.205 72.1545C127.205 72.6928 127.698 73.1414 128.281 73.1414C128.864 73.1414 129.313 72.6928 129.313 72.1545Z" fill="white"/>
<path d="M136.311 50.441C136.311 49.4091 135.459 48.6016 134.382 48.6016C133.305 48.6016 132.453 49.4091 132.453 50.441C132.453 51.4728 133.305 52.2803 134.382 52.2803C135.414 52.2803 136.311 51.4279 136.311 50.441Z" fill="white"/>
<path d="M127.698 73.6352C127.698 72.5585 126.801 71.7061 125.68 71.7061C124.558 71.7061 123.661 72.5585 123.661 73.6352C123.661 74.7119 124.558 75.5643 125.68 75.5643C126.756 75.5643 127.698 74.6671 127.698 73.6352Z" fill="white"/>
<path d="M105.09 54.4336C105.09 53.8504 104.552 53.3569 103.924 53.3569C103.296 53.3569 102.758 53.8504 102.758 54.4336C102.758 55.0168 103.251 55.5103 103.924 55.5103C104.552 55.5552 105.09 55.0617 105.09 54.4336Z" fill="white"/>
<path d="M67.9489 2.70634C67.9489 1.58476 67.0069 0.6875 65.7957 0.6875C64.6294 0.6875 63.6426 1.58476 63.6426 2.70634C63.6426 3.82792 64.5846 4.72519 65.7957 4.72519C66.962 4.72519 67.9489 3.82792 67.9489 2.70634Z" fill="white"/>
<path d="M136.041 68.2515C136.041 67.444 135.369 66.8159 134.516 66.8159C133.664 66.8159 132.991 67.444 132.991 68.2515C132.991 69.0591 133.664 69.6871 134.516 69.6871C135.369 69.6871 136.041 69.0591 136.041 68.2515Z" fill="white"/>
<path d="M142.187 63.81C142.187 63.3613 141.783 63.0024 141.335 63.0024C140.841 63.0024 140.482 63.3613 140.482 63.81C140.482 64.2586 140.886 64.6175 141.335 64.6175C141.783 64.6624 142.187 64.2586 142.187 63.81Z" fill="white"/>
</g>
<mask id="mask0" mask-type="alpha" maskUnits="userSpaceOnUse" x="0" y="0" width="143" height="143">
<circle cx="71.5" cy="71.5" r="71.5" fill="#C4C4C4"/>
</mask>
<g mask="url(#mask0)">
<path d="M94.5857 137.845L36.5984 129.891C33.9043 129.514 32.0175 127.021 32.3964 124.351L39.9605 68.8809C40.336 66.1837 42.8261 64.2953 45.4931 64.6755L103.48 72.6292C106.175 73.006 108.061 75.4998 107.682 78.1698L100.118 133.64C99.77 136.333 97.2798 138.222 94.5857 137.845Z" fill="#C9C9C9"/>
<path d="M65.9915 131.03L91.7447 134.562L90.3905 144.338L68.0425 146.586L59.8483 145.443L38.9111 137.272L40.2382 127.499L65.9915 131.03Z" fill="white"/>
<path d="M50.7851 166.407L27.1406 166.252L38.9111 137.272L59.8483 145.443L50.7851 166.407Z" fill="#F1F1F1"/>
<path d="M62.5499 136.075L65.244 136.452L67.9652 136.825L68.0425 146.586L59.8482 145.442L62.5499 136.075Z" fill="#DDDDDD"/>
<path d="M86.2944 110.658L92.7005 97.2338C95.8187 97.6949 107.908 97.1588 110.719 96.4995L116.152 109.806C106.558 113.725 95.3196 115.754 86.2944 110.658Z" fill="white"/>
<path d="M24.1291 79.0539L21.439 76.9654C19.9105 75.7787 17.6856 76.0602 16.4737 77.5937L10.4552 85.3659C9.2704 86.8959 9.55227 89.1235 11.0842 90.3374L15.0583 93.4227C17.1371 95.0365 19.632 96.0181 22.2512 96.2387L31.0421 84.8863L24.1291 79.0539Z" fill="#C9C9C9"/>
<path d="M31.0742 84.8735L22.278 96.2329L23.3588 97.072L32.155 85.7126L31.0742 84.8735Z" fill="#C9C9C9"/>
<path d="M20.7704 39.0387L9.04205 54.1846L30.6581 70.9663L42.3865 55.8204L20.7704 39.0387Z" fill="#FF5538"/>
<path d="M41.311 54.9837L11.1523 93.9302L12.2331 94.7693L42.3918 55.8228L41.311 54.9837Z" fill="#777777"/>
<path d="M13.7039 86.6381C14.7432 87.445 14.878 88.946 14.0113 89.9389C13.2156 90.84 11.8181 90.9065 10.8704 90.1707L8.21081 88.106C7.23257 87.3465 7.05039 85.9067 7.80863 84.9275C8.56687 83.9483 10.0049 83.7664 10.9831 84.5258L13.7039 86.6381Z" fill="#DFDFDF"/>
<path d="M16.0695 77.0098L19.6156 79.7628C20.5938 80.5223 22.0318 80.3403 22.7901 79.3611C23.5483 78.382 23.3661 76.9421 22.3879 76.1827L18.8418 73.4296C17.8635 72.6702 16.4255 72.8521 15.6673 73.8313C14.9125 74.8377 15.0912 76.2503 16.0695 77.0098Z" fill="#F1F1F1"/>
<path d="M20.5939 80.522C21.5722 81.2815 21.7543 82.7213 20.9961 83.7005C20.2379 84.6797 18.7998 84.8616 17.8216 84.1022L13.2667 80.5659C12.2884 79.8065 12.1062 78.3667 12.8645 77.3875C13.6227 76.4083 15.0607 76.2263 16.039 76.9858L20.5939 80.522Z" fill="#DFDFDF"/>
<path d="M13.297 80.59L17.3628 83.7465C18.341 84.5059 18.5232 85.9458 17.765 86.9249C17.0067 87.9041 15.5687 88.0861 14.5905 87.3266L10.5858 84.2176C9.63812 83.4818 9.35428 82.1101 10.0277 81.114C10.7993 80.0228 12.2882 79.8068 13.297 80.59Z" fill="#F1F1F1"/>
<path d="M28.335 76.7828L25.3968 74.4772C23.8649 73.2634 21.64 73.5449 20.4553 75.0749L18.6544 77.4004C17.8962 78.3796 18.0715 79.7651 19.0497 80.5246C20.028 81.284 21.4117 81.1089 22.17 80.1298L22.7387 79.3954C23.0467 78.9976 23.7999 79.0679 24.1973 79.3764L23.9841 79.6518C22.1358 82.0386 22.5724 85.4887 24.9569 87.3399L27.5859 89.3809L31.0691 84.8828L29.5726 78.503C29.3205 77.8173 28.9158 77.2337 28.335 76.7828Z" fill="#D4D4D4"/>
<path d="M51.899 105.929C41.8213 108.419 31.5683 103.423 23.3755 97.0626L32.1664 85.7102C34.7129 87.0992 46.1885 90.8638 49.327 91.2671L51.899 105.929Z" fill="white"/>
<path d="M91.7447 134.561L40.2653 127.495L41.0732 121.68C42.5077 111.231 45.2927 100.997 49.3575 91.2913L92.7003 97.2339C94.0238 107.693 93.96 118.3 92.5526 128.746L91.7447 134.561Z" fill="#F1F1F1"/>
<path d="M92.6966 97.2065C92.6966 97.2065 85.0335 101.35 70.3314 99.3188C55.6293 97.2874 49.3537 91.2639 49.3537 91.2639L51.1935 77.6997L94.5398 83.6695L92.6966 97.2065Z" fill="#DDDDDD"/>
<path d="M105.854 71.5559C103.377 89.6721 94.9005 100.46 70.6062 97.1309C46.3119 93.8014 41.043 81.1367 43.5198 63.0204C45.9966 44.9042 61.9161 32.3738 79.1155 34.7517C96.3149 37.1296 108.327 53.4125 105.854 71.5559Z" fill="white"/>
<path d="M100.753 70.2418C98.7484 84.9032 86.8358 85.5273 72.473 83.5633C58.1373 81.5959 46.8211 77.7835 48.7982 63.1255C50.8024 48.464 64.0593 38.2026 78.395 40.17C92.7272 42.1103 102.73 55.5837 100.753 70.2418Z" fill="#555555"/>
<path d="M80.0328 119.124L55.6537 115.778C53.4109 115.482 51.8232 113.392 52.1451 111.143L53.2646 102.997C53.5594 100.752 55.6464 99.1626 57.8926 99.4856L82.2717 102.832C84.5145 103.128 86.1022 105.218 85.7803 107.467L84.6608 115.613C84.3389 117.862 82.279 119.447 80.0328 119.124Z" fill="white"/>
<path d="M59.4356 103.182C57.9495 102.984 56.5637 104.015 56.3695 105.53C56.1718 107.018 57.202 108.406 58.7153 108.6C60.2014 108.799 61.5872 107.768 61.7814 106.253C61.9791 104.765 60.9218 103.381 59.4356 103.182Z" fill="#3270DA"/>
<path d="M69.5905 104.574C68.1044 104.376 66.7186 105.407 66.5244 106.922C66.3267 108.41 67.3569 109.798 68.8702 109.993C70.3563 110.191 71.7421 109.16 71.9363 107.645C72.134 106.157 71.1038 104.769 69.5905 104.574Z" fill="#FFCA00"/>
<path d="M79.7464 105.966C78.2603 105.768 76.8745 106.799 76.6803 108.314C76.4826 109.802 77.5128 111.19 79.0261 111.385C80.5122 111.583 81.898 110.552 82.0922 109.037C82.2899 107.549 81.2597 106.161 79.7464 105.966Z" fill="#FF5538"/>
<path d="M71.9663 127.708C71.5473 130.714 68.8064 132.8 65.8035 132.379C62.8006 131.959 60.7166 129.214 61.1356 126.207C61.5547 123.201 64.2956 121.115 67.2984 121.536C70.2707 121.933 72.3853 124.701 71.9663 127.708Z" fill="#DDDDDD"/>
<path d="M67.8488 55.3441C69.0304 52.5608 67.7343 49.3448 64.954 48.1609C62.1737 46.9771 58.9619 48.2737 57.7803 51.057C56.5988 53.8403 57.8948 57.0564 60.6752 58.2402C63.4555 59.4241 66.6673 58.1275 67.8488 55.3441Z" fill="#777777"/>
<path d="M69.9443 127.411C69.6862 129.293 67.9752 130.586 66.0955 130.327C64.2157 130.068 62.9238 128.354 63.1819 126.472C63.44 124.59 65.1509 123.297 67.0307 123.556C68.8833 123.819 70.1787 125.559 69.9443 127.411Z" fill="white"/>
<path d="M118.276 85.855L114.39 90.8734C113.727 91.7302 113.189 92.709 112.794 93.7251L111.973 95.9542L110.715 96.4722L116.148 109.779L117.406 109.261L118.509 109.48C120.942 109.973 123.448 109.738 125.757 108.811L131.733 106.371C132.808 105.932 133.315 104.708 132.821 103.639C132.365 102.648 131.095 102.201 130.099 102.604L127.634 103.605C127.451 103.684 127.248 103.599 127.196 103.412C127.118 103.229 127.203 103.025 127.389 102.974L131.715 101.212C132.762 100.776 133.334 99.6273 132.952 98.5716C132.54 97.4921 131.314 96.9571 130.267 97.3933L125.863 99.1925C125.68 99.2709 125.476 99.1863 125.425 98.9995C125.347 98.8162 125.431 98.6123 125.618 98.5611L130.676 96.4859C131.75 96.0463 132.257 94.8229 131.763 93.7537C131.307 92.7626 130.038 92.316 129.041 92.7181L124.061 94.7559C123.878 94.8343 123.674 94.7496 123.623 94.5629C123.545 94.3796 123.629 94.1757 123.816 94.1245L128.457 92.24C129.531 91.8004 130.038 90.577 129.544 89.5079C129.088 88.5167 127.819 88.0701 126.822 88.4723L120.347 91.1132L122.145 88.7605C122.998 87.6589 122.744 86.0901 121.596 85.2969C120.513 84.5784 119.061 84.8724 118.276 85.855Z" fill="#C9C9C9"/>
</g>
</svg>
