<svg width="18" height="16" viewBox="0 0 18 16" fill="none" xmlns="http://www.w3.org/2000/svg">
<path d="M16.0231 8.09843V7.74409C16.0424 3.74803 12.9018 0.5 9.00965 0.5C5.11755 0.5 1.9769 3.76772 1.9769 7.76378V8.11811C1.18692 8.5315 0.666687 9.35827 0.666687 10.3031V13.0591C0.666687 14.3976 1.74569 15.5 3.0559 15.5H4.96341C5.52218 15.5 5.96534 15.0276 5.96534 14.4764V8.86614C5.96534 8.29528 5.50291 7.84252 4.96341 7.84252H4.00002V7.74409C4.00002 4.88976 6.23509 2.54724 9.00965 2.54724C11.7842 2.54724 14.0193 4.88976 14.0193 7.74409V7.84252H13.0559C12.4971 7.84252 12.054 8.31496 12.054 8.86614V14.4567C12.054 15.0276 12.5164 15.4803 13.0559 15.4803H14.9441C16.2544 15.4803 17.3334 14.378 17.3334 13.0394V10.2835C17.3334 9.33858 16.8131 8.51181 16.0231 8.09843Z" fill="#52A300"/>
</svg>
