<svg width="54" height="54" viewBox="0 0 54 54" fill="none" xmlns="http://www.w3.org/2000/svg">
<path d="M44.2926 17.5539C43.5191 10.3733 37.4462 4.77783 30.0556 4.77783C25.1667 4.77783 20.8603 7.22228 18.2726 10.9558C17.4801 10.6311 16.6112 10.4497 15.704 10.4497C11.9705 10.4497 8.94362 13.7344 8.88633 17.4584C5.07644 18.6711 2.5556 22.395 2.5556 26.31C2.5556 31.1034 6.44189 35.3334 11.2353 35.3334H25.7587V21.8699C25.7587 21.1824 26.3125 20.6285 27 20.6285C27.6875 20.6285 28.2414 21.1824 28.2414 21.8699V35.3334H42.7648C47.5582 35.3334 51.4445 31.1034 51.4445 26.31C51.4445 22.0417 48.3603 18.2796 44.2926 17.5539ZM25.7587 43.3447L21.1849 38.8377C20.698 38.3603 19.915 38.3603 19.428 38.8473C18.9506 39.3343 18.9506 40.1173 19.4375 40.6042L26.1216 47.1928C26.3603 47.4219 26.6754 47.5461 26.9905 47.5461C27.1528 47.5461 27.3152 47.5174 27.4679 47.4506C27.6112 47.3933 27.7448 47.2978 27.8594 47.1928L34.5435 40.6042C35.0304 40.1268 35.04 39.3343 34.553 38.8473C34.0756 38.3603 33.283 38.3508 32.7961 38.8377L28.2414 43.3447V35.3334H25.7587V43.3447Z" fill="white"/>
</svg>
