<svg width="54" height="54" viewBox="0 0 54 54" fill="none" xmlns="http://www.w3.org/2000/svg">
<g clip-path="url(#clip0)">
<path d="M41.4757 14.0483C33.9094 14.0483 28.902 20.2347 24.4844 25.694C20.7101 30.3576 17.146 34.7614 12.8051 34.7614C8.29304 34.7614 5.52275 30.124 5.52275 26.7995C5.52275 23.7172 8.56179 19.2378 13.3248 19.2378C17.9466 19.2378 20.3544 22.9368 20.4758 23.1264C21.2246 24.3381 22.8144 24.7194 24.0321 23.9767C25.2559 23.2311 25.6436 21.6346 24.8977 20.4108C24.7393 20.1516 20.9331 14.0487 13.3248 14.0487C5.66902 14.0487 0.333313 20.7694 0.333313 26.7999C0.333313 33.0203 5.4553 39.9512 12.8047 39.9512C19.6209 39.9512 24.1443 34.363 28.5179 28.9584C32.5638 23.9604 36.3857 19.2381 41.4757 19.2381C44.5041 19.2381 46.494 20.2656 47.5577 22.3766C48.4793 24.2085 48.4786 26.2815 48.4779 26.9998C48.4779 27.4116 48.2603 29.4771 47.2527 31.3371C46.1038 33.4559 44.4728 34.4422 42.1158 34.4422C37.3695 34.4422 34.8051 31.357 33.8394 30.195C33.5884 29.8925 33.4077 29.6749 33.1663 29.4683C32.0792 28.537 30.4404 28.662 29.5074 29.7505C28.6077 30.8003 28.6943 32.361 29.6771 33.3058C29.7239 33.359 29.7804 33.4289 29.8475 33.5103C31.1061 35.0248 34.9329 39.6309 42.1147 39.6309C50.8435 39.6309 53.6663 31.1198 53.6663 26.9642C53.667 24.3175 53.1714 21.9892 52.1915 20.0426C50.8158 17.3089 47.8392 14.0483 41.4757 14.0483Z" fill="white"/>
</g>
<defs>
<clipPath id="clip0">
<rect width="53.3333" height="53.3333" fill="white" transform="translate(0.333313 0.333496)"/>
</clipPath>
</defs>
</svg>
