<svg xmlns="http://www.w3.org/2000/svg" width="18" height="8" viewBox="0 0 18 8">
    <path fill="#FFF" fill-rule="nonzero" d="M11.978 1.697v1.495L6.834 3.19A3.48 3.48 0 0 0 3.507.697a3.487 3.487 0 1 0 .004 6.976 3.473 3.473 0 0 0 3.324-2.49l10.127.002a.998.998 0 0 0 .996-.996 1 1 0 0 0-.996-.997V1.698a.499.499 0 0 0-.499-.499h-.996a.497.497 0 0 0-.498.498v1.495h-.998V1.697a.499.499 0 0 0-.498-.498h-.996a.5.5 0 0 0-.5.499zM3.51 5.68c-.826 0-1.496-.671-1.497-1.497 0-.822.672-1.494 1.495-1.494a1.502 1.502 0 0 1 1.496 1.497c0 .823-.67 1.494-1.494 1.494z"/>
</svg>
