<svg width="54" height="54" viewBox="0 0 54 54" fill="none" xmlns="http://www.w3.org/2000/svg">
<path d="M37.1736 4.77771C40.1007 4.77771 42.8507 5.91313 44.9132 7.97563C46.9757 10.0381 48.132 12.7881 48.132 15.7256C48.132 18.6631 46.9965 21.4131 44.934 23.4756L37.7882 30.6215C36.9445 31.4756 35.9757 32.1631 34.9028 32.6944C34.257 33.0173 33.5695 33.2673 32.8715 33.4548C32.2153 33.6215 31.5382 33.736 30.8611 33.7881C30.5903 33.809 30.3195 33.8194 30.0486 33.8194C29.6632 33.8194 29.2778 33.7985 28.8924 33.7569C26.4028 33.4965 24.059 32.3819 22.2986 30.6215L22.2778 30.6006C21.0695 29.3923 20.2778 28.1527 19.809 26.6944C19.5174 25.7777 20.059 24.7985 20.9861 24.559C21.8195 24.3402 22.6736 24.7777 22.9757 25.5798C23.3507 26.5694 23.9236 27.4756 24.684 28.236C25.9757 29.5277 27.7153 30.309 29.559 30.4235C29.5789 30.4247 29.5986 30.4259 29.618 30.427C29.7711 30.4362 29.9088 30.4444 30.0382 30.4444C30.382 30.4444 30.7465 30.4235 31.1007 30.3715C31.632 30.2985 32.1632 30.1735 32.6632 29.986C33.2049 29.7881 33.7257 29.5173 34.2049 29.2048C34.632 28.9235 35.0278 28.6006 35.3924 28.236L42.5382 21.0902C43.9653 19.6631 44.7465 17.7569 44.7465 15.7256C44.7465 13.6944 43.9653 11.7881 42.5382 10.361C41.1111 8.93396 39.2049 8.15271 37.1736 8.15271C35.1424 8.15271 33.2361 8.93396 31.809 10.361L25.1632 16.986C24.809 17.3298 24.3299 17.5069 23.8403 17.4652C22.4132 17.3506 21.7778 15.6215 22.7882 14.611L29.4236 7.97563C31.4861 5.91313 34.2465 4.77771 37.1736 4.77771Z" fill="white"/>
<path d="M28.8194 35.3194L28.9444 35.309C30.4757 35.1632 31.3507 37.0173 30.2674 38.1111L23.4653 44.9132C21.4028 46.9757 18.6528 48.1111 15.7153 48.1111C12.7882 48.1111 10.0382 46.9757 7.97569 44.9236C5.91319 42.8611 4.77777 40.1111 4.77777 37.1736C4.77777 34.2361 5.91319 31.4861 7.95485 29.4132L15.1007 22.2673C15.9444 21.4132 16.9132 20.7257 17.9861 20.1944C18.6319 19.8715 19.3194 19.6215 20.0174 19.434C20.0378 19.4284 20.0579 19.4228 20.0778 19.4173C20.1694 19.3919 20.2565 19.3678 20.3507 19.3507C20.9132 19.2152 21.4757 19.1319 22.0382 19.0902C22.2986 19.0694 22.5694 19.059 22.8403 19.059C23.2257 19.059 23.6111 19.0798 23.9965 19.1215C24.1944 19.1423 24.3923 19.1736 24.5902 19.2048C26.8506 19.5694 28.9653 20.6319 30.5903 22.2569C31.8819 23.5382 32.6944 24.9027 33.1528 26.5277C33.3924 27.3715 32.9028 28.2569 32.059 28.5173C32.059 28.5277 32.0486 28.5277 32.0382 28.5277C32.033 28.5277 32.0278 28.5303 32.0226 28.5329C32.0174 28.5356 32.0121 28.5382 32.0069 28.5382C31.1632 28.7882 30.2882 28.3194 29.9965 27.4861C29.6319 26.4236 29.0174 25.4444 28.2153 24.6423C26.9236 23.3507 25.184 22.5694 23.3403 22.4548C23.305 22.4529 23.2712 22.4509 23.2386 22.449C23.0979 22.4409 22.9795 22.434 22.8611 22.434C22.5174 22.434 22.1528 22.4548 21.7986 22.5069C21.2674 22.5798 20.7361 22.7048 20.2361 22.8923C19.6944 23.0902 19.1736 23.3611 18.6944 23.6736C18.2674 23.9548 17.8715 24.2777 17.5069 24.6423L10.3611 31.7882C8.93402 33.2152 8.15277 35.1215 8.15277 37.1527C8.15277 39.184 8.93402 41.0902 10.3611 42.5173C11.7882 43.9444 13.6944 44.7257 15.7257 44.7257C17.7569 44.7257 19.6632 43.9444 21.0903 42.5173L27.8194 35.7882C28.0903 35.5277 28.4444 35.3611 28.8194 35.3194Z" fill="white"/>
</svg>
