<svg width="20" height="20" viewBox="0 0 20 20" fill="none" xmlns="http://www.w3.org/2000/svg">
<path d="M16.5625 8.4724C16.4357 8.4724 16.3085 8.48233 16.1805 8.50257V4.271C16.1805 4.06017 16.0098 3.88906 15.7986 3.88906H11.567C11.5873 3.7611 11.5972 3.63392 11.5972 3.50711C11.5972 2.0328 10.3975 0.833496 8.92358 0.833496C7.44966 0.833496 6.24997 2.0328 6.24997 3.50711C6.24997 3.63392 6.2599 3.7611 6.28014 3.88906H2.04857C1.83736 3.88906 1.66663 4.06017 1.66663 4.271V8.85434C1.66663 9.06517 1.83736 9.23629 2.04857 9.23629C3.10159 9.23629 3.9583 10.093 3.9583 11.146C3.9583 12.199 3.10159 13.0557 2.04857 13.0557C1.83736 13.0557 1.66663 13.2268 1.66663 13.4377V18.021C1.66663 18.2319 1.83736 18.403 2.04857 18.403H6.63191C6.84313 18.403 7.01386 18.2319 7.01386 18.021C7.01386 16.968 7.87056 16.1113 8.92358 16.1113C9.9766 16.1113 10.8333 16.968 10.8333 18.021C10.8333 18.2319 11.004 18.403 11.2153 18.403H15.7986C16.0098 18.403 16.1805 18.2319 16.1805 18.021V13.7895C16.3085 13.8097 16.4357 13.8196 16.5625 13.8196C18.0364 13.8196 19.2361 12.6203 19.2361 11.146C19.2361 9.6717 18.0364 8.4724 16.5625 8.4724Z" fill="#F0F0F0"/>
</svg>
