<svg width="20" height="20" viewBox="0 0 20 20" fill="none" xmlns="http://www.w3.org/2000/svg">
<path fill-rule="evenodd" clip-rule="evenodd" d="M16.1111 4.85461C15.2441 4.24808 14.1915 3.88905 13.0556 3.88905C10.1077 3.88905 7.70837 6.28842 7.70837 9.23627C7.70837 12.1841 10.1077 14.5835 13.0556 14.5835C13.8653 14.5835 14.6598 14.3948 15.3824 14.0396L16.1111 14.7684V18.4029C16.1111 18.8254 15.7697 19.1668 15.3473 19.1668H1.59726C1.17483 19.1668 0.833374 18.8254 0.833374 18.4029V1.59738C0.833374 1.17495 1.17483 0.833496 1.59726 0.833496H15.3473C15.7697 0.833496 16.1111 1.17495 16.1111 1.59738V4.85461ZM6.94448 5.41683H3.12504V6.9446H6.94448V5.41683ZM6.18059 9.23627H3.12504V10.764H6.18059V9.23627ZM3.12504 14.5835H7.70837V13.0557H3.12504V14.5835ZM16.5084 10.845L18.9429 13.2795C19.2416 13.5782 19.2416 14.0609 18.9429 14.3596C18.794 14.5086 18.5984 14.5834 18.4028 14.5834C18.2073 14.5834 18.0117 14.5086 17.8628 14.3596L15.5833 12.0802C14.9088 12.6798 14.0296 13.0557 13.0556 13.0557C10.9465 13.0557 9.23618 11.3453 9.23618 9.23623C9.23618 7.12713 10.9465 5.41679 13.0556 5.41679C15.1647 5.41679 16.8751 7.12713 16.8751 9.23623C16.8751 9.81297 16.7376 10.3546 16.5084 10.845ZM10.764 9.23623C10.764 10.502 11.7899 11.5279 13.0556 11.5279C14.3214 11.5279 15.3473 10.502 15.3473 9.23623C15.3473 7.97047 14.3214 6.94457 13.0556 6.94457C11.7899 6.94457 10.764 7.97047 10.764 9.23623Z" fill="#F0F0F0"/>
</svg>
