<svg width="72" height="39" viewBox="0 0 72 39" fill="none" xmlns="http://www.w3.org/2000/svg">
<path fill-rule="evenodd" clip-rule="evenodd" d="M5.01429 25.0797L12.3211 22.2916C11.1205 20.266 9.22634 19.3086 7.18427 20.0878C5.1741 20.8549 4.47035 22.7671 5.01429 25.0797ZM18.5811 29.2897C17.6187 31.1179 16.0082 32.6456 13.5194 33.5953C8.38228 35.5555 3.06744 33.4563 0.86453 28.3067L0.837665 28.2439C-1.21749 23.4398 0.567952 18.1563 5.54552 16.257C11.257 14.0776 15.7522 17.7314 17.2432 21.2168C17.8342 22.5984 17.2346 23.8864 15.9583 24.3734L6.35418 28.0382C7.75962 30.0222 9.77474 30.5681 11.9445 29.7402C13.2846 29.2288 14.2267 28.3945 14.9069 27.2949C15.1504 26.9097 15.4158 26.6624 15.9263 26.4676C17.0111 26.0536 18.1581 26.5656 18.6148 27.6332C18.8834 28.2612 18.7977 28.8418 18.5811 29.2897Z" fill="white"/>
<path fill-rule="evenodd" clip-rule="evenodd" d="M20.3081 39.0001C23.8608 39.0001 26.0635 37.099 26.0635 32.9449V16.8564C26.0635 15.3778 24.8556 14.1809 23.3635 14.1809C21.8713 14.1809 20.6634 15.3778 20.6634 16.8564V32.9097C20.6634 34.1771 20.1305 34.6699 19.3489 34.6699H19.3134C18.1765 34.6699 17.2173 35.5148 17.2173 36.8174C17.2173 38.296 18.4963 39.0001 20.2371 39.0001H20.3081ZM40.4876 33.6842C34.5901 33.6842 30.2203 29.354 30.2203 23.9325V23.8621C30.2203 18.4406 34.6256 14.04 40.5586 14.04C46.4561 14.04 50.8259 18.3702 50.8259 23.7917V23.8621C50.8259 29.2836 46.4206 33.6842 40.4876 33.6842ZM40.5584 29.0722C43.6493 29.0722 45.4967 26.7135 45.4967 23.9324V23.862C45.4967 21.0808 43.4716 18.6517 40.4874 18.6517C37.3965 18.6517 35.5491 21.0104 35.5491 23.7916V23.862C35.5491 26.6431 37.5742 29.0722 40.5584 29.0722ZM58.6772 39.0001C61.9102 39.0001 63.5089 37.5567 65.1076 33.7194L71.7511 17.9126C71.8577 17.6661 71.9998 17.0677 71.9998 16.6452C71.9998 15.237 70.8274 14.1809 69.4419 14.1809C68.0563 14.1809 67.2747 15.0962 66.8484 16.2228L62.8694 27.1714L58.7483 16.1875C58.2864 14.9202 57.5048 14.1809 56.1548 14.1809C54.6626 14.1809 53.4903 15.237 53.4903 16.7508C53.4903 17.1029 53.6324 17.6309 53.7745 17.983L60.2759 32.9097L60.0983 33.3321C59.6009 34.2827 59.139 34.4587 58.1798 34.4587C57.789 34.4587 57.5048 34.3883 57.043 34.2475C56.8298 34.1771 56.5811 34.1066 56.1548 34.1066C55.0534 34.1066 54.0232 34.9868 54.0232 36.2893C54.0232 37.5919 54.9469 38.2256 55.7285 38.5072C56.6166 38.824 57.4693 39.0001 58.6772 39.0001Z" fill="white"/>
<path fill-rule="evenodd" clip-rule="evenodd" d="M23.4884 12.48C25.5266 12.4128 26.6747 10.5409 26.6058 8.38967C26.32 5.23196 23.2689 4.21548 24.4902 0C22.0367 2.59768 20.2752 5.92335 20.3502 8.28953C20.3837 10.5847 21.4647 12.48 23.4884 12.48ZM25.3477 9.27753C25.6617 9.27753 25.8876 8.96306 25.9162 8.57917C25.991 8.30864 25.9162 7.06868 25.1701 6.27367C25.2912 7.30623 24.7117 8.16402 24.7793 8.57917C24.7793 8.96486 25.0338 9.27753 25.3477 9.27753Z" fill="white"/>
</svg>
