<svg width="20" height="20" viewBox="0 0 20 20" fill="none" xmlns="http://www.w3.org/2000/svg">
<path d="M18.7501 1.25H1.25008C0.789665 1.25 0.416748 1.62292 0.416748 2.08333V13.75C0.416748 14.2104 0.789665 14.5834 1.25008 14.5834H6.46676L9.67468 18.5938C9.75384 18.6925 9.87343 18.75 10.0001 18.75C10.1268 18.75 10.2463 18.6925 10.3255 18.5938L13.5334 14.5834H18.7501C19.2105 14.5834 19.5834 14.2104 19.5834 13.75V2.08333C19.5834 1.62292 19.2105 1.25 18.7501 1.25ZM10.8334 10.4167H5.83342C5.60301 10.4167 5.41676 10.2304 5.41676 10C5.41676 9.7696 5.60301 9.58335 5.83342 9.58335H10.8334C11.0638 9.58335 11.2501 9.7696 11.2501 10C11.2501 10.2304 11.0638 10.4167 10.8334 10.4167ZM14.1668 6.25001H5.83342C5.60301 6.25001 5.41676 6.06376 5.41676 5.83334C5.41676 5.60292 5.60301 5.41667 5.83342 5.41667H14.1668C14.3972 5.41667 14.5834 5.60292 14.5834 5.83334C14.5834 6.06376 14.3972 6.25001 14.1668 6.25001Z" fill="#F0F0F0"/>
</svg>
