<svg width="23" height="23" viewBox="0 0 23 23" fill="none" xmlns="http://www.w3.org/2000/svg">
<path fill-rule="evenodd" clip-rule="evenodd" d="M22.2707 10.6645C22.8172 12.9045 23.0569 14.7802 22.9887 16.2902C22.9197 17.8009 22.5607 18.7085 21.9116 19.0139C21.7064 19.1158 21.4838 19.1667 21.2449 19.1667C20.3898 19.1667 19.227 18.2845 17.7572 16.5193C17.1072 15.7047 16.5087 15.221 15.9621 15.0684C15.4147 14.9156 14.1325 14.8392 12.1155 14.8392H10.8845C8.86661 14.8392 7.58444 14.9156 7.03779 15.0684C6.49059 15.221 5.8919 15.7047 5.24285 16.5193C3.77216 18.2845 2.60934 19.1667 1.75515 19.1667C1.51559 19.1667 1.29352 19.1158 1.08839 19.0139C0.438448 18.7085 0.0794379 17.8009 0.0113555 16.2902C-0.0568376 14.7802 0.18206 12.9045 0.729376 10.6645C1.31035 8.28911 1.93471 6.50715 2.60137 5.31882C3.26824 4.13103 4.14811 3.38411 5.24285 3.07862C5.68666 2.94346 6.13158 2.875 6.57627 2.875C6.95211 2.875 7.6357 3.00225 8.62782 3.25686C9.61917 3.51148 10.5767 3.63873 11.5 3.63873C12.4232 3.63873 13.38 3.51148 14.3721 3.25686C15.3634 3.00225 16.047 2.875 16.4238 2.875C16.8677 2.875 17.3125 2.94346 17.7572 3.07862C18.8511 3.38411 19.7318 4.13103 20.3987 5.31882C21.0653 6.50715 21.6888 8.28911 22.2707 10.6645ZM18.68 8.37342C18.4059 8.37342 18.1671 8.47518 17.962 8.6788C17.7567 8.88254 17.6542 9.12034 17.6542 9.39154C17.6542 9.66363 17.7567 9.90066 17.962 10.1044C18.1671 10.308 18.4059 10.4098 18.68 10.4098C18.9532 10.4098 19.1929 10.308 19.3981 10.1044C19.6032 9.90066 19.7058 9.66363 19.7058 9.39154C19.7058 9.12034 19.6032 8.88254 19.3981 8.6788C19.1929 8.47518 18.9532 8.37342 18.68 8.37342ZM15.7055 10.919C15.9107 10.7153 16.1495 10.6134 16.4236 10.6134C16.6968 10.6134 16.9364 10.7153 17.1416 10.919C17.3468 11.1225 17.4494 11.3605 17.4494 11.6318C17.4494 11.9039 17.3468 12.1409 17.1416 12.3444C16.9364 12.5481 16.6968 12.65 16.4236 12.65C16.1495 12.65 15.9107 12.5481 15.7055 12.3444C15.5005 12.1409 15.3978 11.9039 15.3978 11.6318C15.3978 11.3605 15.5005 11.1225 15.7055 10.919ZM16.4236 6.13318C16.1495 6.13318 15.9107 6.23505 15.7055 6.43867C15.5005 6.64229 15.3978 6.8802 15.3978 7.15152C15.3978 7.42349 15.5005 7.66052 15.7055 7.86415C15.9107 8.06777 16.1495 8.16964 16.4236 8.16964C16.6968 8.16964 16.9364 8.06777 17.1416 7.86415C17.3468 7.66052 17.4494 7.42349 17.4494 7.15152C17.4494 6.8802 17.3468 6.64229 17.1416 6.43867C16.9364 6.23505 16.6968 6.13318 16.4236 6.13318ZM13.4487 8.6788C13.654 8.47518 13.8928 8.37342 14.1669 8.37342C14.4402 8.37342 14.6798 8.47518 14.8849 8.6788C15.09 8.88254 15.1925 9.12034 15.1925 9.39154C15.1925 9.66363 15.09 9.90066 14.8849 10.1044C14.6798 10.308 14.4402 10.4098 14.1669 10.4098C13.8928 10.4098 13.654 10.308 13.4487 10.1044C13.2436 9.90066 13.141 9.66363 13.141 9.39154C13.141 9.12034 13.2436 8.88254 13.4487 8.6788ZM3.78832 8.19678C4.11754 7.8758 4.51191 7.71463 4.97079 7.71463C5.42912 7.71463 5.82349 7.8758 6.15345 8.19678C6.48267 8.51849 6.64797 8.91675 6.64797 9.39167C6.64797 9.86731 6.48267 10.2657 6.15345 10.5866C5.82349 10.9083 5.42912 11.0688 4.97079 11.0688C4.51191 11.0688 4.11754 10.9083 3.78832 10.5866C3.45846 10.2657 3.2938 9.86731 3.2938 9.39167C3.2938 8.91675 3.45846 8.51849 3.78832 8.19678Z" fill="#1DA1F2"/>
</svg>
