<svg width="20" height="20" viewBox="0 0 20 20" fill="none" xmlns="http://www.w3.org/2000/svg">
<path d="M5.08299 1.67109C7.43134 1.67109 9.42375 2.88216 9.42375 5.23052V18.2485C9.42375 18.344 9.28919 18.3657 9.2588 18.2789V18.2745C8.81171 16.79 7.60063 15.3402 5.68636 15.2143C4.20181 15.1188 2.78238 15.7742 1.6451 16.8247C1.57565 16.8898 1.45845 16.9506 1.35861 16.9506H1.16328C1.00267 16.9506 0.833381 16.8334 0.833381 16.6858V4.10626C0.829041 2.71287 2.73464 1.67109 5.08299 1.67109ZM14.6327 1.66675C12.2843 1.66675 10.2919 2.87782 10.2919 5.22618V18.2441C10.2919 18.3396 10.4265 18.3613 10.4569 18.2745V18.2702C10.904 16.7856 12.1671 15.3228 14.0293 15.2099C15.4574 15.1231 16.8031 15.6874 18.0706 16.8204C18.14 16.8811 18.2572 16.9462 18.357 16.9462H18.5524C18.713 16.9462 18.8823 16.829 18.8823 16.6815V4.09758C18.8866 2.70853 16.981 1.66675 14.6327 1.66675Z" fill="white"/>
</svg>
