<svg width="9" height="16" viewBox="0 0 9 16" fill="none" xmlns="http://www.w3.org/2000/svg">
<path d="M1.88182 8.61527C1.88182 9.9691 3.06001 11.0768 4.50001 11.0768C5.94001 11.0768 7.11819 9.9691 7.11819 8.61527V2.46151C7.11819 1.10768 5.94001 0 4.50001 0C3.06001 0 1.88182 1.10768 1.88182 2.46151V8.61527Z" fill="white"/>
<path d="M1.14546 6.07705C1.14546 5.7809 0.887728 5.53859 0.572728 5.53859C0.257727 5.53859 0 5.7809 0 6.07705V8.73086C0 10.8808 1.71409 12.6616 3.92727 12.927V14.9231H2.45455C2.13955 14.9231 1.88182 15.1654 1.88182 15.4615C1.88182 15.7577 2.13955 16 2.45455 16H6.54546C6.86046 16 7.11818 15.7577 7.11818 15.4615C7.11818 15.1654 6.86046 14.9231 6.54546 14.9231H5.07273V12.927C7.28591 12.6616 9 10.8808 9 8.73086V6.07705C9 5.7809 8.74227 5.53859 8.42727 5.53859C8.11227 5.53859 7.85455 5.7809 7.85455 6.07705V8.73086C7.85455 10.4693 6.34909 11.8847 4.5 11.8847C2.65091 11.8847 1.14546 10.4693 1.14546 8.73086V6.07705Z" fill="white"/>
</svg>
