<svg width="16" height="20" viewBox="0 0 16 20" fill="none" xmlns="http://www.w3.org/2000/svg">
<mask id="path-1-inside-1" fill="white">
<path fill-rule="evenodd" clip-rule="evenodd" d="M9.78125 3.88905V0.833496H4.77778C4.10556 0.833496 3.55556 1.3835 3.55556 2.05572V14.8891C3.55556 15.5613 4.10556 16.1113 4.77778 16.1113H13.9444C14.6167 16.1113 15.1667 15.5613 15.1667 14.8891V5.6078H11.5C10.5528 5.6078 9.78125 4.83627 9.78125 3.88905ZM11.4999 4.61476H14.9374C15.0635 4.61476 15.1666 4.51163 15.1666 4.38559C15.1666 4.0724 15.0253 3.77448 14.7847 3.57205L11.8399 1.11996C11.6527 0.963367 11.2975 0.837325 11.0531 0.837325C10.8965 0.837325 10.7704 0.963367 10.7704 1.11996V3.88906C10.7742 4.2901 11.0989 4.61476 11.4999 4.61476ZM2.48611 3.27794V15.9585C2.48611 16.6307 3.03611 17.1807 3.70833 17.1807H12.7222V17.9446C12.7222 18.6168 12.1722 19.1668 11.5 19.1668H1.72222C1.05 19.1668 0.5 18.6168 0.5 17.9446V4.50016C0.5 3.82794 1.05 3.27794 1.72222 3.27794H2.48611Z"/>
</mask>
<path d="M9.78125 0.833496H10.7812V-0.166504H9.78125V0.833496ZM15.1667 5.6078H16.1667V4.6078H15.1667V5.6078ZM14.7847 3.57205L15.4284 2.80681L15.4246 2.80358L14.7847 3.57205ZM11.8399 1.11996L11.1981 1.8869L11.2 1.88843L11.8399 1.11996ZM10.7704 3.88906H9.77038L9.77047 3.89859L10.7704 3.88906ZM2.48611 3.27794H3.48611V2.27794H2.48611V3.27794ZM12.7222 17.1807H13.7222V16.1807H12.7222V17.1807ZM8.78125 0.833496V3.88905H10.7812V0.833496H8.78125ZM4.77778 1.8335H9.78125V-0.166504H4.77778V1.8335ZM4.55556 2.05572C4.55556 1.93578 4.65784 1.8335 4.77778 1.8335V-0.166504C3.55327 -0.166504 2.55556 0.831211 2.55556 2.05572H4.55556ZM4.55556 14.8891V2.05572H2.55556V14.8891H4.55556ZM4.77778 15.1113C4.65784 15.1113 4.55556 15.009 4.55556 14.8891H2.55556C2.55556 16.1136 3.55327 17.1113 4.77778 17.1113V15.1113ZM13.9444 15.1113H4.77778V17.1113H13.9444V15.1113ZM14.1667 14.8891C14.1667 15.009 14.0644 15.1113 13.9444 15.1113V17.1113C15.169 17.1113 16.1667 16.1136 16.1667 14.8891H14.1667ZM14.1667 5.6078V14.8891H16.1667V5.6078H14.1667ZM11.5 6.6078H15.1667V4.6078H11.5V6.6078ZM8.78125 3.88905C8.78125 5.38856 10.0005 6.6078 11.5 6.6078V4.6078C11.1051 4.6078 10.7812 4.28399 10.7812 3.88905H8.78125ZM14.9374 3.61476H11.4999V5.61476H14.9374V3.61476ZM14.1666 4.38559C14.1666 3.95935 14.5112 3.61476 14.9374 3.61476V5.61476C15.6158 5.61476 16.1666 5.06392 16.1666 4.38559H14.1666ZM14.1409 4.33727C14.1605 4.3538 14.1666 4.37385 14.1666 4.38559H16.1666C16.1666 3.77094 15.89 3.19516 15.4284 2.80682L14.1409 4.33727ZM11.2 1.88843L14.1448 4.34051L15.4246 2.80358L12.4798 0.351498L11.2 1.88843ZM11.0531 1.83733C11.0326 1.83733 11.0327 1.8352 11.0548 1.83966C11.0747 1.84369 11.1015 1.85087 11.131 1.86145C11.1606 1.87204 11.1851 1.8832 11.2017 1.89207C11.2204 1.90203 11.2166 1.90236 11.1981 1.8869L12.4816 0.353027C12.2688 0.174986 12.017 0.0542937 11.8049 -0.0216071C11.5918 -0.0978453 11.3244 -0.162675 11.0531 -0.162675V1.83733ZM11.7704 1.11996C11.7704 1.51565 11.4488 1.83733 11.0531 1.83733V-0.162675C10.3442 -0.162675 9.77043 0.411084 9.77043 1.11996H11.7704ZM11.7704 3.88906V1.11996H9.77043V3.88906H11.7704ZM11.4999 3.61476C11.653 3.61476 11.769 3.73757 11.7704 3.87954L9.77047 3.89859C9.77946 4.84263 10.5448 5.61476 11.4999 5.61476V3.61476ZM3.48611 15.9585V3.27794H1.48611V15.9585H3.48611ZM3.70833 16.1807C3.5884 16.1807 3.48611 16.0784 3.48611 15.9585H1.48611C1.48611 17.183 2.48383 18.1807 3.70833 18.1807V16.1807ZM12.7222 16.1807H3.70833V18.1807H12.7222V16.1807ZM13.7222 17.9446V17.1807H11.7222V17.9446H13.7222ZM11.5 20.1668C12.7245 20.1668 13.7222 19.1691 13.7222 17.9446H11.7222C11.7222 18.0645 11.6199 18.1668 11.5 18.1668V20.1668ZM1.72222 20.1668H11.5V18.1668H1.72222V20.1668ZM-0.5 17.9446C-0.5 19.1691 0.497716 20.1668 1.72222 20.1668V18.1668C1.60228 18.1668 1.5 18.0645 1.5 17.9446H-0.5ZM-0.5 4.50016V17.9446H1.5V4.50016H-0.5ZM1.72222 2.27794C0.497715 2.27794 -0.5 3.27566 -0.5 4.50016H1.5C1.5 4.38023 1.60228 4.27794 1.72222 4.27794V2.27794ZM2.48611 2.27794H1.72222V4.27794H2.48611V2.27794Z" fill="#808080" mask="url(#path-1-inside-1)"/>
</svg>
