<svg width="148" height="32" viewBox="0 0 148 32" fill="none" xmlns="http://www.w3.org/2000/svg">
<path fill-rule="evenodd" clip-rule="evenodd" d="M34.9103 15.7756L39.1512 14.0986C38.4543 12.8803 37.355 12.3045 36.1697 12.7732C35.003 13.2345 34.5946 14.3846 34.9103 15.7756ZM42.7844 18.3078C42.2259 19.4074 41.2911 20.3262 39.8466 20.8974C36.8651 22.0764 33.7803 20.8138 32.5018 17.7166L32.4862 17.6788C31.2934 14.7893 32.3296 11.6116 35.2186 10.4692C38.5335 9.15836 41.1426 11.356 42.0079 13.4523C42.351 14.2833 42.003 15.058 41.2622 15.3509L35.688 17.5551C36.5037 18.7483 37.6733 19.0767 38.9325 18.5787C39.7103 18.2712 40.2572 17.7694 40.6519 17.108C40.7933 16.8764 40.9473 16.7276 41.2436 16.6104C41.8732 16.3614 42.5389 16.6694 42.804 17.3115C42.9599 17.6892 42.9102 18.0384 42.7844 18.3078Z" fill="white"/>
<path fill-rule="evenodd" clip-rule="evenodd" d="M44.7124 24.8889C46.794 24.8889 48.0846 23.7154 48.0846 21.1512V11.22C48.0846 10.3073 47.3769 9.56843 46.5026 9.56843C45.6283 9.56843 44.9205 10.3073 44.9205 11.22V21.1294C44.9205 21.9117 44.6083 22.216 44.1503 22.216H44.1295C43.4634 22.216 42.9014 22.7375 42.9014 23.5416C42.9014 24.4543 43.6508 24.8889 44.6707 24.8889H44.7124ZM56.536 21.6075C53.0805 21.6075 50.5201 18.9346 50.5201 15.588V15.5445C50.5201 12.1979 53.1013 9.48151 56.5776 9.48151C60.0331 9.48151 62.5935 12.1544 62.5935 15.501V15.5445C62.5935 18.8911 60.0123 21.6075 56.536 21.6075ZM56.5776 18.7607C58.3886 18.7607 59.4711 17.3047 59.4711 15.588V15.5445C59.4711 13.8277 58.2845 12.3283 56.536 12.3283C54.725 12.3283 53.6425 13.7843 53.6425 15.501V15.5445C53.6425 17.2613 54.8291 18.7607 56.5776 18.7607ZM67.1939 24.8889C69.0882 24.8889 70.0249 23.9979 70.9616 21.6292L74.8542 11.8719C74.9167 11.7198 75 11.3504 75 11.0896C75 10.2204 74.313 9.56843 73.5012 9.56843C72.6894 9.56843 72.2314 10.1334 71.9816 10.8288L69.6502 17.5872L67.2355 10.8071C66.9649 10.0248 66.5069 9.56843 65.7159 9.56843C64.8416 9.56843 64.1547 10.2204 64.1547 11.1548C64.1547 11.3721 64.238 11.6981 64.3212 11.9154L68.1306 21.1294L68.0265 21.3902C67.7351 21.9769 67.4645 22.0856 66.9024 22.0856C66.6735 22.0856 66.5069 22.0421 66.2363 21.9552C66.1114 21.9117 65.9657 21.8683 65.7159 21.8683C65.0706 21.8683 64.467 22.4116 64.467 23.2156C64.467 24.0197 65.0082 24.4108 65.4661 24.5847C65.9865 24.7803 66.4861 24.8889 67.1939 24.8889Z" fill="white"/>
<path fill-rule="evenodd" clip-rule="evenodd" d="M46.5431 8.29629C48.1204 8.25798 49.0089 7.19138 48.9556 5.96562C48.7344 4.16635 46.3732 3.58716 47.3184 1.18518C45.4197 2.66534 44.0565 4.56031 44.1146 5.90856C44.1405 7.21635 44.9771 8.29629 46.5431 8.29629ZM47.982 6.47157C48.2249 6.47157 48.3998 6.29239 48.4219 6.07365C48.4798 5.9195 48.4219 5.21297 47.8445 4.75998C47.9382 5.34832 47.4898 5.83709 47.5421 6.07365C47.5421 6.29342 47.739 6.47157 47.982 6.47157Z" fill="white"/>
<path d="M90.142 20.038V22H80.692V9.4H89.89V11.362H83.032V14.638H89.116V16.564H83.032V20.038H90.142ZM97.9886 12.28C99.2006 12.28 100.173 12.634 100.905 13.342C101.637 14.05 102.003 15.1 102.003 16.492V22H99.7526V16.78C99.7526 15.94 99.5546 15.31 99.1586 14.89C98.7626 14.458 98.1986 14.242 97.4666 14.242C96.6386 14.242 95.9846 14.494 95.5046 14.998C95.0246 15.49 94.7846 16.204 94.7846 17.14V22H92.5346V12.388H94.6766V13.63C95.0486 13.186 95.5166 12.85 96.0806 12.622C96.6446 12.394 97.2806 12.28 97.9886 12.28ZM114.485 12.388V20.542C114.485 23.926 112.757 25.618 109.301 25.618C108.377 25.618 107.501 25.498 106.673 25.258C105.845 25.03 105.161 24.694 104.621 24.25L105.629 22.558C106.049 22.906 106.577 23.182 107.213 23.386C107.861 23.602 108.515 23.71 109.175 23.71C110.231 23.71 111.005 23.47 111.497 22.99C111.989 22.51 112.235 21.778 112.235 20.794V20.29C111.851 20.71 111.383 21.028 110.831 21.244C110.279 21.46 109.673 21.568 109.013 21.568C108.101 21.568 107.273 21.376 106.529 20.992C105.797 20.596 105.215 20.044 104.783 19.336C104.363 18.628 104.153 17.818 104.153 16.906C104.153 15.994 104.363 15.19 104.783 14.494C105.215 13.786 105.797 13.24 106.529 12.856C107.273 12.472 108.101 12.28 109.013 12.28C109.709 12.28 110.339 12.394 110.903 12.622C111.479 12.85 111.959 13.198 112.343 13.666V12.388H114.485ZM109.355 19.66C110.207 19.66 110.903 19.408 111.443 18.904C111.995 18.388 112.271 17.722 112.271 16.906C112.271 16.102 111.995 15.448 111.443 14.944C110.903 14.44 110.207 14.188 109.355 14.188C108.491 14.188 107.783 14.44 107.231 14.944C106.691 15.448 106.421 16.102 106.421 16.906C106.421 17.722 106.691 18.388 107.231 18.904C107.783 19.408 108.491 19.66 109.355 19.66ZM117.443 8.644H119.693V22H117.443V8.644ZM122.646 12.388H124.896V22H122.646V12.388ZM123.78 10.804C123.372 10.804 123.03 10.678 122.754 10.426C122.478 10.162 122.34 9.838 122.34 9.454C122.34 9.07 122.478 8.752 122.754 8.5C123.03 8.236 123.372 8.104 123.78 8.104C124.188 8.104 124.53 8.23 124.806 8.482C125.082 8.722 125.22 9.028 125.22 9.4C125.22 9.796 125.082 10.132 124.806 10.408C124.542 10.672 124.2 10.804 123.78 10.804ZM130.819 22.126C130.039 22.126 129.277 22.024 128.533 21.82C127.789 21.616 127.195 21.358 126.751 21.046L127.615 19.336C128.047 19.624 128.563 19.858 129.163 20.038C129.775 20.206 130.375 20.29 130.963 20.29C132.307 20.29 132.979 19.936 132.979 19.228C132.979 18.892 132.805 18.658 132.457 18.526C132.121 18.394 131.575 18.268 130.819 18.148C130.027 18.028 129.379 17.89 128.875 17.734C128.383 17.578 127.951 17.308 127.579 16.924C127.219 16.528 127.039 15.982 127.039 15.286C127.039 14.374 127.417 13.648 128.173 13.108C128.941 12.556 129.973 12.28 131.269 12.28C131.929 12.28 132.589 12.358 133.249 12.514C133.909 12.658 134.449 12.856 134.869 13.108L134.005 14.818C133.189 14.338 132.271 14.098 131.251 14.098C130.591 14.098 130.087 14.2 129.739 14.404C129.403 14.596 129.235 14.854 129.235 15.178C129.235 15.538 129.415 15.796 129.775 15.952C130.147 16.096 130.717 16.234 131.485 16.366C132.253 16.486 132.883 16.624 133.375 16.78C133.867 16.936 134.287 17.2 134.635 17.572C134.995 17.944 135.175 18.472 135.175 19.156C135.175 20.056 134.785 20.776 134.005 21.316C133.225 21.856 132.163 22.126 130.819 22.126ZM142.567 12.28C143.779 12.28 144.751 12.634 145.483 13.342C146.215 14.05 146.581 15.1 146.581 16.492V22H144.331V16.78C144.331 15.94 144.133 15.31 143.737 14.89C143.341 14.458 142.777 14.242 142.045 14.242C141.217 14.242 140.563 14.494 140.083 14.998C139.603 15.49 139.363 16.204 139.363 17.14V22H137.113V8.644H139.363V13.504C139.735 13.108 140.191 12.808 140.731 12.604C141.283 12.388 141.895 12.28 142.567 12.28Z" fill="#EBEEFD"/>
<rect y="1" width="24" height="24" rx="3.80959" fill="#1DA1F2"/>
<path fill-rule="evenodd" clip-rule="evenodd" d="M12.4203 20.8092C15.7834 20.7189 17.6778 18.2048 17.5642 15.3155C17.0926 11.0744 12.0582 9.70912 14.0733 4.0473C10.025 7.53625 7.11855 12.003 7.24233 15.181C7.29757 18.2636 9.08133 20.8092 12.4203 20.8092ZM15.4881 16.508C16.0061 16.508 16.3789 16.0857 16.426 15.5701C16.5494 15.2067 16.426 13.5413 15.195 12.4736C15.3947 13.8604 14.4386 15.0125 14.5501 15.5701C14.5501 16.0881 14.9701 16.508 15.4881 16.508Z" fill="white"/>
</svg>
