<svg width="115" height="25" viewBox="0 0 115 25" fill="none" xmlns="http://www.w3.org/2000/svg">
<g filter="url(#filter0_i)">
<path d="M43.6146 13.0974C43.9799 13.0974 44.2821 13.2131 44.521 13.4446C44.7599 13.6631 44.8793 13.9396 44.8793 14.2739V18.3625C44.8793 18.8125 44.6615 19.1597 44.2259 19.404C42.8487 20.1883 41.338 20.5804 39.6939 20.5804C38.3026 20.5804 37.0168 20.2718 35.8364 19.6547C34.656 19.0247 33.7215 18.1825 33.0329 17.1282C32.3443 16.061 32 14.8975 32 13.6374C32 12.3774 32.3443 11.2202 33.0329 10.1659C33.7215 9.09878 34.656 8.25663 35.8364 7.63947C37.0168 7.00946 38.3026 6.69446 39.6939 6.69446C41.0851 6.69446 42.2936 6.95161 43.3195 7.4659C43.5302 7.56876 43.6848 7.70376 43.7832 7.87091C43.8956 8.03805 43.9518 8.21806 43.9518 8.41092C43.9518 8.73235 43.8324 9.01521 43.5935 9.2595C43.3686 9.49093 43.0876 9.60665 42.7503 9.60665C42.5395 9.60665 42.3077 9.55522 42.0547 9.45236C41.2959 9.15664 40.5089 9.00878 39.6939 9.00878C38.7945 9.00878 37.9654 9.22093 37.2065 9.64522C36.4477 10.0567 35.8434 10.616 35.3937 11.3231C34.9581 12.0303 34.7403 12.8017 34.7403 13.6374C34.7403 14.4732 34.9581 15.2446 35.3937 15.9518C35.8434 16.6589 36.4477 17.2246 37.2065 17.6489C37.9654 18.0604 38.7945 18.2661 39.6939 18.2661C40.0873 18.2661 40.5089 18.2339 40.9586 18.1697C41.4083 18.1054 41.8018 18.0218 42.139 17.9189V15.4117H40.1576C39.7922 15.4117 39.4831 15.3025 39.2301 15.0839C38.9912 14.8653 38.8718 14.5889 38.8718 14.2546C38.8718 13.9203 38.9912 13.6439 39.2301 13.4253C39.4831 13.2067 39.7922 13.0974 40.1576 13.0974H43.6146Z" fill="white"/>
</g>
<g filter="url(#filter1_i)">
<path d="M49.1726 19.3784C49.1726 19.7199 49.0295 20.0089 48.7433 20.2453C48.473 20.4686 48.1311 20.5802 47.7177 20.5802C47.3202 20.5802 46.9863 20.4686 46.716 20.2453C46.4457 20.0089 46.3105 19.7199 46.3105 19.3784V7.20189C46.3105 6.86037 46.4457 6.57795 46.716 6.35465C47.0022 6.11822 47.352 6 47.7654 6C48.1629 6 48.4968 6.11822 48.7672 6.35465C49.0375 6.57795 49.1726 6.86037 49.1726 7.20189V19.3784Z" fill="white"/>
</g>
<g filter="url(#filter2_i)">
<path d="M64.1983 13.6374C64.1983 14.9103 63.9047 16.0803 63.3174 17.1475C62.7301 18.2018 61.9159 19.0375 60.8747 19.6547C59.8469 20.2718 58.6857 20.5804 57.3909 20.5804C56.0962 20.5804 54.9282 20.2718 53.8871 19.6547C52.8593 19.0375 52.0518 18.2018 51.4645 17.1475C50.8905 16.0803 50.6035 14.9103 50.6035 13.6374C50.6035 12.3646 50.8905 11.201 51.4645 10.1467C52.0518 9.0795 52.8593 8.23734 53.8871 7.62019C54.9282 7.00303 56.0962 6.69446 57.3909 6.69446C58.6857 6.69446 59.8469 7.00303 60.8747 7.62019C61.9159 8.23734 62.7301 9.0795 63.3174 10.1467C63.9047 11.201 64.1983 12.3646 64.1983 13.6374ZM61.5955 13.6374C61.5955 12.776 61.4153 11.9981 61.0549 11.3038C60.6945 10.5967 60.194 10.0374 59.5533 9.62594C58.9126 9.2145 58.1918 9.00878 57.3909 9.00878C56.5767 9.00878 55.8492 9.2145 55.2085 9.62594C54.5812 10.0245 54.0873 10.5774 53.7269 11.2845C53.3799 11.9917 53.2064 12.776 53.2064 13.6374C53.2064 14.4989 53.3799 15.2832 53.7269 15.9903C54.0873 16.6975 54.5812 17.2568 55.2085 17.6682C55.8492 18.0668 56.5767 18.2661 57.3909 18.2661C58.1918 18.2661 58.9126 18.0604 59.5533 17.6489C60.194 17.2375 60.6945 16.6846 61.0549 15.9903C61.4153 15.2832 61.5955 14.4989 61.5955 13.6374Z" fill="white"/>
</g>
<path d="M59.5642 17.9747C61.4139 17.1625 62.7008 15.356 62.7008 13.2578C62.7008 10.3998 60.3132 8.08301 57.3679 8.08301C54.4226 8.08301 52.0349 10.3998 52.0349 13.2578C52.0349 16.1158 54.4226 18.4326 57.3679 18.4326C57.5739 18.4326 57.7772 18.4213 57.9772 18.3992C58.0598 18.4812 58.1454 18.615 58.1235 18.8067C58.0881 19.1152 57.7606 19.4327 57.7606 19.4327C57.7606 19.4327 58.9299 19.5501 59.2928 18.885C59.4716 18.5573 59.5395 18.2175 59.5642 17.9747Z" fill="#EA5455"/>
<g filter="url(#filter3_i)">
<path d="M71.2284 18.2868C71.4198 18.2868 71.5906 18.3815 71.741 18.5709C71.905 18.7468 71.987 18.9836 71.987 19.2812C71.987 19.6465 71.782 19.9577 71.3719 20.2148C70.9756 20.4583 70.5245 20.5801 70.0188 20.5801C69.1714 20.5801 68.4538 20.4042 67.8661 20.0524C67.292 19.6871 67.005 18.9227 67.005 17.7591V12.1577H66.0619C65.7339 12.1577 65.4605 12.0495 65.2418 11.833C65.0232 11.6165 64.9138 11.3459 64.9138 11.0212C64.9138 10.71 65.0232 10.453 65.2418 10.25C65.4605 10.0335 65.7339 9.92528 66.0619 9.92528H67.005V8.62641C67.005 8.27464 67.1212 7.98374 67.3535 7.75374C67.5996 7.5102 67.9003 7.38843 68.2556 7.38843C68.5973 7.38843 68.8844 7.5102 69.1167 7.75374C69.3491 7.98374 69.4652 8.27464 69.4652 8.62641V9.92528H70.9209C71.2489 9.92528 71.5223 10.0335 71.741 10.25C71.9596 10.4665 72.069 10.7371 72.069 11.0618C72.069 11.373 71.9596 11.6368 71.741 11.8533C71.5223 12.0562 71.2489 12.1577 70.9209 12.1577H69.4652V17.6576C69.4652 17.9417 69.5404 18.1515 69.6908 18.2868C69.8411 18.4085 70.0461 18.4694 70.3058 18.4694C70.4152 18.4694 70.5655 18.4424 70.7569 18.3882C70.9209 18.3206 71.0781 18.2868 71.2284 18.2868Z" fill="white"/>
</g>
<g filter="url(#filter4_i)">
<path d="M79.5819 6.69446C80.8523 6.69446 81.9403 7.00524 82.8458 7.6268C83.7649 8.23514 84.4609 9.06829 84.934 10.1263C85.4205 11.171 85.6638 12.3414 85.6638 13.6374C85.6638 14.9335 85.4205 16.1105 84.934 17.1684C84.4609 18.2132 83.7649 19.0463 82.8458 19.6679C81.9403 20.2762 80.8523 20.5804 79.5819 20.5804H74.7367C74.3853 20.5804 74.0879 20.468 73.8446 20.2432C73.6149 20.0051 73.5 19.7142 73.5 19.3703V7.90452C73.5 7.56068 73.6149 7.27635 73.8446 7.05153C74.0879 6.81348 74.3853 6.69446 74.7367 6.69446H79.5819ZM79.3792 18.2991C80.5955 18.2991 81.5078 17.8627 82.116 16.9899C82.7242 16.1038 83.0283 14.9864 83.0283 13.6374C83.0283 12.2885 82.7175 11.1776 82.0957 10.3048C81.4876 9.41875 80.582 8.97572 79.3792 8.97572H76.0341V18.2991H79.3792Z" fill="white"/>
</g>
<g filter="url(#filter5_i)">
<path d="M97.828 15.3823C97.828 16.3831 97.5912 17.2838 97.1177 18.0845C96.6442 18.8726 95.9931 19.4856 95.1645 19.9234C94.349 20.3612 93.4481 20.5802 92.4616 20.5802C91.462 20.5802 90.5544 20.3612 89.7389 19.9234C88.9235 19.4856 88.279 18.8726 87.8055 18.0845C87.332 17.2838 87.0952 16.3831 87.0952 15.3823C87.0952 14.3815 87.332 13.4871 87.8055 12.699C88.279 11.8983 88.9235 11.2791 89.7389 10.8412C90.5544 10.3909 91.462 10.1657 92.4616 10.1657C93.4481 10.1657 94.349 10.3909 95.1645 10.8412C95.9931 11.2791 96.6442 11.8983 97.1177 12.699C97.5912 13.4871 97.828 14.3815 97.828 15.3823ZM95.4605 15.3823C95.4605 14.7693 95.3223 14.2252 95.0461 13.7498C94.7831 13.2619 94.4214 12.8866 93.961 12.6239C93.5138 12.3612 93.014 12.2298 92.4616 12.2298C91.9092 12.2298 91.4028 12.3612 90.9424 12.6239C90.4952 12.8866 90.1335 13.2619 89.8573 13.7498C89.5943 14.2252 89.4627 14.7693 89.4627 15.3823C89.4627 15.9953 89.5943 16.5395 89.8573 17.0149C90.1335 17.4902 90.4952 17.8593 90.9424 18.122C91.4028 18.3847 91.9092 18.516 92.4616 18.516C93.014 18.516 93.5138 18.3847 93.961 18.122C94.4214 17.8593 94.7831 17.4902 95.0461 17.0149C95.3223 16.5395 95.4605 15.9953 95.4605 15.3823Z" fill="white"/>
</g>
<g filter="url(#filter6_i)">
<path d="M99.0903 24.0519C98.7294 24.0519 98.4285 23.9507 98.1879 23.7484C97.9472 23.546 97.8269 23.2931 97.8269 22.9896V22.7809C97.8269 22.275 98.2104 21.9273 98.9775 21.7376C99.4588 21.6111 99.7597 21.3961 99.88 21.0926C100.015 20.8017 100.083 20.3907 100.083 19.8596V11.3421C100.083 11.0133 100.211 10.7414 100.467 10.5264C100.722 10.2987 101.046 10.1849 101.437 10.1849C101.828 10.1849 102.151 10.2987 102.407 10.5264C102.663 10.7414 102.79 11.0133 102.79 11.3421V20.5235C102.79 21.2317 102.625 21.8514 102.294 22.3825C101.978 22.9137 101.534 23.3247 100.963 23.6156C100.406 23.9065 99.7822 24.0519 99.0903 24.0519ZM101.392 8.95187C100.88 8.95187 100.519 8.88232 100.309 8.74321C100.098 8.60409 99.9928 8.35748 99.9928 8.00338V7.64295C99.9928 7.28885 100.106 7.04224 100.331 6.90313C100.557 6.76401 100.918 6.69446 101.414 6.69446C101.941 6.69446 102.309 6.76401 102.52 6.90313C102.73 7.04224 102.836 7.28885 102.836 7.64295V8.00338C102.836 8.37013 102.723 8.62306 102.497 8.76217C102.287 8.88864 101.918 8.95187 101.392 8.95187Z" fill="white"/>
</g>
<g filter="url(#filter7_i)">
<path d="M115 15.3823C115 16.3831 114.763 17.2838 114.29 18.0845C113.816 18.8726 113.165 19.4856 112.337 19.9234C111.521 20.3612 110.62 20.5802 109.634 20.5802C108.634 20.5802 107.727 20.3612 106.911 19.9234C106.096 19.4856 105.451 18.8726 104.978 18.0845C104.504 17.2838 104.267 16.3831 104.267 15.3823C104.267 14.3815 104.504 13.4871 104.978 12.699C105.451 11.8983 106.096 11.2791 106.911 10.8412C107.727 10.3909 108.634 10.1657 109.634 10.1657C110.62 10.1657 111.521 10.3909 112.337 10.8412C113.165 11.2791 113.816 11.8983 114.29 12.699C114.763 13.4871 115 14.3815 115 15.3823ZM112.633 15.3823C112.633 14.7693 112.494 14.2252 112.218 13.7498C111.955 13.2619 111.593 12.8866 111.133 12.6239C110.686 12.3612 110.186 12.2298 109.634 12.2298C109.081 12.2298 108.575 12.3612 108.115 12.6239C107.667 12.8866 107.306 13.2619 107.029 13.7498C106.766 14.2252 106.635 14.7693 106.635 15.3823C106.635 15.9953 106.766 16.5395 107.029 17.0149C107.306 17.4902 107.667 17.8593 108.115 18.122C108.575 18.3847 109.081 18.516 109.634 18.516C110.186 18.516 110.686 18.3847 111.133 18.122C111.593 17.8593 111.955 17.4902 112.218 17.0149C112.494 16.5395 112.633 15.9953 112.633 15.3823Z" fill="white"/>
</g>
<path d="M0.505746 19.4632C1.13255 18.3524 12.7177 9.6894 18.6743 5.58555L19.6998 6.90671C14.0133 11.3405 2.76127 19.8946 1.83972 20.6414C1.02398 21.3025 0.704829 21.5181 0.380128 21.7345C0.217775 21.0312 0.109541 20.1653 0.505746 19.4632Z" fill="#DBE1EA"/>
<path d="M0.50766 19.4641C1.24806 18.2721 12.7197 9.69029 18.6763 5.58644L19.3771 6.4747C13.6905 10.9085 2.54842 19.4194 1.62687 20.1662C0.811133 20.8273 0.598663 20.8699 0.273972 21.1402C0.165739 20.3826 0.205973 19.9497 0.50766 19.4641Z" fill="#BDBDBD"/>
<path d="M19.4773 7.13025L18.963 6.30219L18.0972 7.40628L18.3732 7.95832L19.4773 7.13025Z" fill="#E2D6D1"/>
<path d="M19.1143 6.6163L18.4108 5.75043L17.5449 6.30247L18.097 7.40657L19.1143 6.6163Z" fill="#511C06"/>
<path d="M22.3643 3.09428L23.2597 4.30535L22.5585 4.82868L22.3453 4.8496L22.2532 5.0566L21.9084 5.31399L21.659 5.30636L21.603 5.54188L21.258 5.79944L21.0117 5.78681L20.9527 6.02734L20.6078 6.28472L20.3626 6.26607L20.3025 6.51264L19.6013 7.03599L18.7059 5.82491L22.3643 3.09428Z" fill="#C3AFF0"/>
<path d="M18.5556 5.61883L19.2568 5.0954L19.5246 5.13709L19.5622 4.86748L19.907 4.61011L20.1723 4.64839L20.2124 4.3822L20.5574 4.12464L20.805 4.13915L20.8627 3.89675L21.2076 3.63936L21.4413 3.63503L21.5129 3.41144L22.214 2.88817L22.6676 3.50177L19.0092 6.23245L18.5556 5.61883Z" fill="#A592E8"/>
<path d="M23.5101 3.023C23.7991 3.41391 23.718 3.96621 23.3289 4.25662L23.058 4.45886L22.1626 3.24778L22.4335 3.04554C22.8226 2.75513 23.4136 2.89261 23.5101 3.023Z" fill="#BDE4FF"/>
<path d="M22.0095 3.04264L22.2804 2.8404C22.6694 2.55003 23.2193 2.63155 23.5083 3.02243C23.5895 3.13227 23.6414 3.25507 23.6655 3.38119C23.3765 3.22872 23.0137 3.24525 22.734 3.45399L22.4631 3.65623L22.0095 3.04264Z" fill="#99DBFF"/>
<path d="M22.561 4.82959L22.2557 5.05747L21.3755 3.86684L21.6808 3.63896L22.561 4.82959Z" fill="#A592E8"/>
<path d="M21.968 4.0271L21.6627 4.25498L21.2091 3.64147L21.5144 3.41359L21.968 4.0271Z" fill="#9080DD"/>
<path d="M21.9109 5.31519L21.6056 5.54307L20.7253 4.35234L21.0306 4.12446L21.9109 5.31519Z" fill="#A592E8"/>
<path d="M21.3188 4.51215L21.0135 4.74003L20.56 4.12652L20.8653 3.89864L21.3188 4.51215Z" fill="#9080DD"/>
<path d="M21.2598 5.80023L20.9545 6.02811L20.0339 4.78295L20.3392 4.55507L21.2598 5.80023Z" fill="#A592E8"/>
<path d="M20.6677 4.99823L20.3624 5.22611L19.9088 4.6126L20.2141 4.38472L20.6677 4.99823Z" fill="#9080DD"/>
<path d="M20.6096 6.28577L20.3043 6.51365L19.4408 5.34571L19.7461 5.11783L20.6096 6.28577Z" fill="#A592E8"/>
<path d="M20.0176 5.48328L19.7123 5.71116L19.2587 5.09765L19.564 4.86977L20.0176 5.48328Z" fill="#9080DD"/>
<path d="M18.6235 4.83401L20.5326 7.31545C20.6238 7.434 20.6021 7.60438 20.4841 7.69603L20.2705 7.86195C20.1526 7.9536 19.983 7.93179 19.8918 7.81324L17.9826 5.33181C17.8914 5.21325 17.9131 5.04287 18.0311 4.95122L18.2447 4.7853C18.3627 4.69365 18.5322 4.71546 18.6235 4.83401Z" fill="#FFE07D"/>
<path d="M17.8752 4.74984L18.0889 4.58387C18.2069 4.49225 18.3763 4.51422 18.4675 4.63274L18.9328 5.23748C18.8416 5.11896 18.6722 5.09696 18.5542 5.18861L18.3405 5.35458C18.2225 5.4462 18.2008 5.61671 18.292 5.73523L17.8267 5.13049C17.7356 5.01194 17.7573 4.84146 17.8752 4.74984Z" fill="#FFD064"/>
<path d="M19.719 14.3584C19.719 19.3604 15.8039 23.4154 10.9743 23.4154C6.14482 23.4154 2.22972 19.3604 2.22972 14.3584C2.22972 9.35641 6.14484 2.95917 10.9744 2.95917C15.8039 2.95917 19.719 9.35641 19.719 14.3584Z" fill="url(#paint0_linear)"/>
<path d="M19.7635 13.8365C19.5345 18.8152 15.5565 22.6574 10.8342 22.6574C6.11189 22.6574 2.28369 19.0997 2.28369 14.1771C2.28369 9.25452 6.11188 2.95883 10.8342 2.95883C11.7001 2.95883 9.98456 1.26438 10.3471 1.33549C15.8671 2.85076 19.9799 9.12849 19.7635 13.8365Z" fill="#7367F0"/>
<g filter="url(#filter8_i)">
<path d="M17.6891 11.5481C17.6891 13.3592 14.5103 12.3289 10.9744 12.3289C7.43853 12.3289 4.72827 13.3592 4.72827 11.5481C4.72827 9.73707 7.38289 6.55121 11.2867 6.55121C14.8226 6.55121 17.6891 9.73707 17.6891 11.5481Z" fill="white"/>
</g>
<g filter="url(#filter9_i)">
<path d="M9.26543 10.2691C9.26543 10.5301 8.84253 10.3872 8.32085 10.3872C7.79917 10.3872 7.53369 10.5301 7.53369 10.2691C7.53369 10.0082 7.79917 9.56036 8.32085 9.56036C8.84253 9.56036 9.26543 10.0082 9.26543 10.2691Z" fill="#262C49"/>
</g>
<g filter="url(#filter10_i)">
<path d="M12.6203 10.1627C12.6203 10.4236 13.0432 10.2808 13.5649 10.2808C14.0866 10.2808 14.3521 10.4236 14.3521 10.1627C14.3521 9.90171 14.0866 9.45392 13.5649 9.45392C13.0432 9.45392 12.6203 9.90171 12.6203 10.1627Z" fill="#262C49"/>
</g>
<g filter="url(#filter11_f)">
<circle r="1.10409" transform="matrix(-1 0 0 1 16.4406 11.8231)" fill="#EA5455"/>
</g>
<g filter="url(#filter12_f)">
<circle cx="5.95273" cy="11.8231" r="1.10409" fill="#EA5455"/>
</g>
<path d="M16.2293 3.70525C16.8441 3.66869 17.6591 4.14721 17.6591 4.14721C17.6591 4.14721 17.0578 4.67218 16.6137 4.88742C16.3458 5.01724 15.5495 4.55852 15.5495 4.55852C15.5495 4.55852 15.8076 3.73032 16.2293 3.70525Z" fill="#DF8637"/>
<path d="M15.0235 3.41294C15.2096 2.99508 15.7398 2.6308 15.7398 2.6308C15.7398 2.6308 16.3485 3.90528 15.9878 4.24205C15.7702 4.44518 15.2715 4.47077 15.2715 4.47077C15.2715 4.47077 14.8516 3.79886 15.0235 3.41294Z" fill="#EB9548"/>
<path d="M10.8683 5.38617C7.59784 5.54259 6.59097 4.92996 6.49634 4.6041L5.58789 5.38617C6.26923 5.87497 8.38139 6.85257 11.3793 6.85257C14.3772 6.85257 15.6944 5.35359 15.9783 4.6041L15.0699 3.82202C15.032 4.27823 14.1387 5.22976 10.8683 5.38617Z" fill="#F2994A"/>
<defs>
<filter id="filter0_i" x="32" y="6.69446" width="12.8793" height="13.9814" filterUnits="userSpaceOnUse" color-interpolation-filters="sRGB">
<feFlood flood-opacity="0" result="BackgroundImageFix"/>
<feBlend mode="normal" in="SourceGraphic" in2="BackgroundImageFix" result="shape"/>
<feColorMatrix in="SourceAlpha" type="matrix" values="0 0 0 0 0 0 0 0 0 0 0 0 0 0 0 0 0 0 127 0" result="hardAlpha"/>
<feOffset dy="0.0954665"/>
<feGaussianBlur stdDeviation="0.0954665"/>
<feComposite in2="hardAlpha" operator="arithmetic" k2="-1" k3="1"/>
<feColorMatrix type="matrix" values="0 0 0 0 0 0 0 0 0 0 0 0 0 0 0 0 0 0 0.25 0"/>
<feBlend mode="normal" in2="shape" result="effect1_innerShadow"/>
</filter>
<filter id="filter1_i" x="46.3105" y="6" width="2.86207" height="14.6757" filterUnits="userSpaceOnUse" color-interpolation-filters="sRGB">
<feFlood flood-opacity="0" result="BackgroundImageFix"/>
<feBlend mode="normal" in="SourceGraphic" in2="BackgroundImageFix" result="shape"/>
<feColorMatrix in="SourceAlpha" type="matrix" values="0 0 0 0 0 0 0 0 0 0 0 0 0 0 0 0 0 0 127 0" result="hardAlpha"/>
<feOffset dy="0.0954665"/>
<feGaussianBlur stdDeviation="0.0954665"/>
<feComposite in2="hardAlpha" operator="arithmetic" k2="-1" k3="1"/>
<feColorMatrix type="matrix" values="0 0 0 0 0 0 0 0 0 0 0 0 0 0 0 0 0 0 0.25 0"/>
<feBlend mode="normal" in2="shape" result="effect1_innerShadow"/>
</filter>
<filter id="filter2_i" x="50.6035" y="6.69446" width="13.5948" height="13.9814" filterUnits="userSpaceOnUse" color-interpolation-filters="sRGB">
<feFlood flood-opacity="0" result="BackgroundImageFix"/>
<feBlend mode="normal" in="SourceGraphic" in2="BackgroundImageFix" result="shape"/>
<feColorMatrix in="SourceAlpha" type="matrix" values="0 0 0 0 0 0 0 0 0 0 0 0 0 0 0 0 0 0 127 0" result="hardAlpha"/>
<feOffset dy="0.0954665"/>
<feGaussianBlur stdDeviation="0.0954665"/>
<feComposite in2="hardAlpha" operator="arithmetic" k2="-1" k3="1"/>
<feColorMatrix type="matrix" values="0 0 0 0 0 0 0 0 0 0 0 0 0 0 0 0 0 0 0.25 0"/>
<feBlend mode="normal" in2="shape" result="effect1_innerShadow"/>
</filter>
<filter id="filter3_i" x="64.9138" y="7.38843" width="7.15517" height="13.2871" filterUnits="userSpaceOnUse" color-interpolation-filters="sRGB">
<feFlood flood-opacity="0" result="BackgroundImageFix"/>
<feBlend mode="normal" in="SourceGraphic" in2="BackgroundImageFix" result="shape"/>
<feColorMatrix in="SourceAlpha" type="matrix" values="0 0 0 0 0 0 0 0 0 0 0 0 0 0 0 0 0 0 127 0" result="hardAlpha"/>
<feOffset dy="0.0954665"/>
<feGaussianBlur stdDeviation="0.0954665"/>
<feComposite in2="hardAlpha" operator="arithmetic" k2="-1" k3="1"/>
<feColorMatrix type="matrix" values="0 0 0 0 0 0 0 0 0 0 0 0 0 0 0 0 0 0 0.25 0"/>
<feBlend mode="normal" in2="shape" result="effect1_innerShadow"/>
</filter>
<filter id="filter4_i" x="73.5" y="6.69446" width="12.1638" height="13.9814" filterUnits="userSpaceOnUse" color-interpolation-filters="sRGB">
<feFlood flood-opacity="0" result="BackgroundImageFix"/>
<feBlend mode="normal" in="SourceGraphic" in2="BackgroundImageFix" result="shape"/>
<feColorMatrix in="SourceAlpha" type="matrix" values="0 0 0 0 0 0 0 0 0 0 0 0 0 0 0 0 0 0 127 0" result="hardAlpha"/>
<feOffset dy="0.0954665"/>
<feGaussianBlur stdDeviation="0.0954665"/>
<feComposite in2="hardAlpha" operator="arithmetic" k2="-1" k3="1"/>
<feColorMatrix type="matrix" values="0 0 0 0 0 0 0 0 0 0 0 0 0 0 0 0 0 0 0.25 0"/>
<feBlend mode="normal" in2="shape" result="effect1_innerShadow"/>
</filter>
<filter id="filter5_i" x="87.0952" y="10.1657" width="10.7328" height="10.5099" filterUnits="userSpaceOnUse" color-interpolation-filters="sRGB">
<feFlood flood-opacity="0" result="BackgroundImageFix"/>
<feBlend mode="normal" in="SourceGraphic" in2="BackgroundImageFix" result="shape"/>
<feColorMatrix in="SourceAlpha" type="matrix" values="0 0 0 0 0 0 0 0 0 0 0 0 0 0 0 0 0 0 127 0" result="hardAlpha"/>
<feOffset dy="0.0954665"/>
<feGaussianBlur stdDeviation="0.0954665"/>
<feComposite in2="hardAlpha" operator="arithmetic" k2="-1" k3="1"/>
<feColorMatrix type="matrix" values="0 0 0 0 0 0 0 0 0 0 0 0 0 0 0 0 0 0 0.25 0"/>
<feBlend mode="normal" in2="shape" result="effect1_innerShadow"/>
</filter>
<filter id="filter6_i" x="97.8269" y="6.69446" width="5.00862" height="17.4529" filterUnits="userSpaceOnUse" color-interpolation-filters="sRGB">
<feFlood flood-opacity="0" result="BackgroundImageFix"/>
<feBlend mode="normal" in="SourceGraphic" in2="BackgroundImageFix" result="shape"/>
<feColorMatrix in="SourceAlpha" type="matrix" values="0 0 0 0 0 0 0 0 0 0 0 0 0 0 0 0 0 0 127 0" result="hardAlpha"/>
<feOffset dy="0.0954665"/>
<feGaussianBlur stdDeviation="0.0954665"/>
<feComposite in2="hardAlpha" operator="arithmetic" k2="-1" k3="1"/>
<feColorMatrix type="matrix" values="0 0 0 0 0 0 0 0 0 0 0 0 0 0 0 0 0 0 0.25 0"/>
<feBlend mode="normal" in2="shape" result="effect1_innerShadow"/>
</filter>
<filter id="filter7_i" x="104.267" y="10.1657" width="10.7328" height="10.5099" filterUnits="userSpaceOnUse" color-interpolation-filters="sRGB">
<feFlood flood-opacity="0" result="BackgroundImageFix"/>
<feBlend mode="normal" in="SourceGraphic" in2="BackgroundImageFix" result="shape"/>
<feColorMatrix in="SourceAlpha" type="matrix" values="0 0 0 0 0 0 0 0 0 0 0 0 0 0 0 0 0 0 127 0" result="hardAlpha"/>
<feOffset dy="0.0954665"/>
<feGaussianBlur stdDeviation="0.0954665"/>
<feComposite in2="hardAlpha" operator="arithmetic" k2="-1" k3="1"/>
<feColorMatrix type="matrix" values="0 0 0 0 0 0 0 0 0 0 0 0 0 0 0 0 0 0 0.25 0"/>
<feBlend mode="normal" in2="shape" result="effect1_innerShadow"/>
</filter>
<filter id="filter8_i" x="4.72827" y="6.55121" width="12.9608" height="6.17778" filterUnits="userSpaceOnUse" color-interpolation-filters="sRGB">
<feFlood flood-opacity="0" result="BackgroundImageFix"/>
<feBlend mode="normal" in="SourceGraphic" in2="BackgroundImageFix" result="shape"/>
<feColorMatrix in="SourceAlpha" type="matrix" values="0 0 0 0 0 0 0 0 0 0 0 0 0 0 0 0 0 0 127 0" result="hardAlpha"/>
<feOffset dy="0.108234"/>
<feGaussianBlur stdDeviation="0.108234"/>
<feComposite in2="hardAlpha" operator="arithmetic" k2="-1" k3="1"/>
<feColorMatrix type="matrix" values="0 0 0 0 0 0 0 0 0 0 0 0 0 0 0 0 0 0 0.25 0"/>
<feBlend mode="normal" in2="shape" result="effect1_innerShadow"/>
</filter>
<filter id="filter9_i" x="7.53369" y="9.56036" width="1.73174" height="0.974104" filterUnits="userSpaceOnUse" color-interpolation-filters="sRGB">
<feFlood flood-opacity="0" result="BackgroundImageFix"/>
<feBlend mode="normal" in="SourceGraphic" in2="BackgroundImageFix" result="shape"/>
<feColorMatrix in="SourceAlpha" type="matrix" values="0 0 0 0 0 0 0 0 0 0 0 0 0 0 0 0 0 0 127 0" result="hardAlpha"/>
<feOffset dy="0.108234"/>
<feGaussianBlur stdDeviation="0.108234"/>
<feComposite in2="hardAlpha" operator="arithmetic" k2="-1" k3="1"/>
<feColorMatrix type="matrix" values="0 0 0 0 0 0 0 0 0 0 0 0 0 0 0 0 0 0 0.25 0"/>
<feBlend mode="normal" in2="shape" result="effect1_innerShadow"/>
</filter>
<filter id="filter10_i" x="12.6204" y="9.45392" width="1.73174" height="0.974104" filterUnits="userSpaceOnUse" color-interpolation-filters="sRGB">
<feFlood flood-opacity="0" result="BackgroundImageFix"/>
<feBlend mode="normal" in="SourceGraphic" in2="BackgroundImageFix" result="shape"/>
<feColorMatrix in="SourceAlpha" type="matrix" values="0 0 0 0 0 0 0 0 0 0 0 0 0 0 0 0 0 0 127 0" result="hardAlpha"/>
<feOffset dy="0.108234"/>
<feGaussianBlur stdDeviation="0.108234"/>
<feComposite in2="hardAlpha" operator="arithmetic" k2="-1" k3="1"/>
<feColorMatrix type="matrix" values="0 0 0 0 0 0 0 0 0 0 0 0 0 0 0 0 0 0 0.25 0"/>
<feBlend mode="normal" in2="shape" result="effect1_innerShadow"/>
</filter>
<filter id="filter11_f" x="10.9201" y="6.30262" width="11.0409" height="11.0409" filterUnits="userSpaceOnUse" color-interpolation-filters="sRGB">
<feFlood flood-opacity="0" result="BackgroundImageFix"/>
<feBlend mode="normal" in="SourceGraphic" in2="BackgroundImageFix" result="shape"/>
<feGaussianBlur stdDeviation="2.20819" result="effect1_foregroundBlur"/>
</filter>
<filter id="filter12_f" x="0.432261" y="6.30262" width="11.0409" height="11.0409" filterUnits="userSpaceOnUse" color-interpolation-filters="sRGB">
<feFlood flood-opacity="0" result="BackgroundImageFix"/>
<feBlend mode="normal" in="SourceGraphic" in2="BackgroundImageFix" result="shape"/>
<feGaussianBlur stdDeviation="2.20819" result="effect1_foregroundBlur"/>
</filter>
<linearGradient id="paint0_linear" x1="10.9744" y1="2.95917" x2="10.9744" y2="23.4154" gradientUnits="userSpaceOnUse">
<stop stop-color="#7165EF"/>
<stop offset="1" stop-color="#383683"/>
</linearGradient>
</defs>
</svg>
