<svg width="329" height="256" viewBox="0 0 329 256" fill="none" xmlns="http://www.w3.org/2000/svg">
<g opacity="0.9">
<path d="M316.307 76.938H311.452C309.934 72.8554 308.156 68.8986 306.121 65.0992L309.856 61.3643C314.584 56.6361 314.584 48.9706 309.856 44.2424L284.172 18.558C279.443 13.8298 271.778 13.8298 267.05 18.558L262.233 23.3747C258.757 21.7347 255.164 20.3046 251.476 19.0833V12.1072C251.476 5.42028 246.055 0 239.369 0H203.045C196.359 0 190.938 5.42028 190.938 12.1072V19.0833C187.25 20.3052 183.657 21.7353 180.181 23.3747L175.364 18.558C170.636 13.8298 162.97 13.8298 158.242 18.558L132.558 44.2424C127.83 48.9706 127.83 56.6367 132.558 61.3643L136.293 65.0992C134.258 68.8986 132.48 72.8554 130.961 76.938H126.107C119.421 76.938 114 82.3583 114 89.0452V125.368C114 132.055 119.42 137.476 126.107 137.476H128.789C130.203 142.32 131.981 147.009 134.103 151.505L132.558 153.049C127.83 157.778 127.83 165.443 132.558 170.171L158.243 195.856C162.971 200.584 170.636 200.584 175.365 195.856L175.827 195.394C180.633 197.968 185.688 200.138 190.939 201.876V202.306C190.939 208.993 196.359 214.414 203.046 214.414H239.37C246.056 214.414 251.477 208.993 251.477 202.306V201.876C256.727 200.137 261.782 197.968 266.589 195.394L267.051 195.856C271.78 200.584 279.445 200.584 284.173 195.856L309.858 170.171C314.586 165.443 314.586 157.778 309.858 153.049L308.313 151.505C310.434 147.009 312.213 142.32 313.627 137.476H316.309C322.995 137.476 328.416 132.055 328.416 125.368V89.0452C328.414 82.3588 322.994 76.938 316.307 76.938ZM221.207 149.181C199.831 149.181 182.506 131.856 182.506 110.48C182.506 89.1037 199.831 71.779 221.207 71.779C242.583 71.779 259.908 89.1042 259.908 110.48C259.908 131.855 242.583 149.181 221.207 149.181Z" fill="url(#paint0_linear)"/>
<path d="M221.206 180.945C260.127 180.945 291.671 149.4 291.671 110.48C291.671 71.5592 260.127 40.0144 221.206 40.0144C182.286 40.0144 150.742 71.5587 150.742 110.479C150.742 149.4 182.285 180.945 221.206 180.945ZM221.206 71.779C242.583 71.779 259.907 89.1036 259.907 110.48C259.907 131.856 242.583 149.181 221.206 149.181C199.83 149.181 182.506 131.855 182.506 110.48C182.506 89.1042 199.83 71.779 221.206 71.779Z" fill="url(#paint1_linear)"/>
</g>
<path d="M159.631 182.414H195.955C197.992 182.414 199.91 181.908 201.595 181.019L127.623 107.596C124.249 104.221 119.327 104.221 115.953 107.596L114.4 109.148L102.777 97.5596C101.219 95.2937 98.6114 94.9001 95.6545 94.9001C95.6545 94.9001 70.6588 94.7552 70.7299 95.2171C71.6199 101.026 76.6356 105.475 82.6933 105.475H85.3753C86.789 110.32 88.5674 115.008 90.689 119.504L89.1446 121.049C84.4165 125.777 84.4165 133.442 89.1446 138.17L114.829 163.855C119.557 168.583 127.223 168.583 131.951 163.855L132.413 163.393C137.22 165.967 142.274 168.137 147.525 169.875V170.306C147.525 176.993 152.945 182.414 159.631 182.414Z" fill="url(#paint2_linear)"/>
<g filter="url(#filter0_d)">
<path d="M150.555 149.567H147.091C146.007 146.654 144.738 143.83 143.286 141.119L145.951 138.454C149.325 135.081 149.325 129.611 145.951 126.237L127.624 107.909C124.25 104.535 118.78 104.535 115.406 107.909L111.969 111.346C109.489 110.176 106.925 109.155 104.293 108.283V103.305C104.293 98.534 100.425 94.6663 95.654 94.6663H69.735C64.9636 94.6663 61.0959 98.534 61.0959 103.305V108.283C58.4642 109.155 55.9003 110.175 53.42 111.346L49.9831 107.909C46.609 104.535 41.1395 104.535 37.7654 107.909L19.4376 126.237C16.0635 129.611 16.0635 135.081 19.4376 138.454L22.1027 141.119C20.6507 143.831 19.3824 146.654 18.2983 149.567H14.8341C10.0638 149.567 6.19604 153.435 6.19604 158.206V184.125C6.19604 188.897 10.0638 192.764 14.8352 192.764H16.7485C17.7571 196.221 19.0265 199.567 20.5403 202.775L19.4382 203.877C16.0641 207.251 16.0641 212.721 19.4382 216.095L37.766 234.423C41.1401 237.797 46.6096 237.797 49.9836 234.423L50.3133 234.093C53.7431 235.93 57.3495 237.478 61.0965 238.719V239.026C61.0965 243.798 64.9642 247.665 69.7356 247.665H95.6545C100.426 247.665 104.294 243.798 104.294 239.026V238.719C108.04 237.478 111.647 235.93 115.077 234.093L115.406 234.423C118.781 237.797 124.25 237.797 127.624 234.423L145.952 216.095C149.326 212.721 149.326 207.251 145.952 203.877L144.85 202.775C146.364 199.567 147.632 196.221 148.642 192.764H150.555C155.327 192.764 159.195 188.897 159.195 184.125V158.206C159.194 153.435 155.326 149.567 150.555 149.567ZM82.695 201.116C67.4423 201.116 55.0797 188.754 55.0797 173.501C55.0797 158.248 67.4423 145.886 82.695 145.886C97.9478 145.886 110.31 158.248 110.31 173.501C110.31 188.754 97.9478 201.116 82.695 201.116Z" fill="url(#paint3_linear)"/>
<path d="M118.25 137.947C98.6118 118.308 66.7795 118.308 47.1418 137.947C27.5041 157.585 27.5036 189.417 47.1418 209.055C66.78 228.692 98.6124 228.693 118.25 209.055C137.888 189.417 137.888 157.585 118.25 137.947ZM63.1687 193.028C52.3833 182.243 52.3833 164.759 63.1687 153.974C73.954 143.189 91.4372 143.189 102.223 153.974C113.009 164.759 113.009 182.243 102.223 193.028C91.4372 203.814 73.9546 203.814 63.1687 193.028Z" fill="url(#paint4_linear)"/>
</g>
<defs>
<filter id="filter0_d" x="-0.688013" y="89.159" width="166.767" height="166.767" filterUnits="userSpaceOnUse" color-interpolation-filters="sRGB">
<feFlood flood-opacity="0" result="BackgroundImageFix"/>
<feColorMatrix in="SourceAlpha" type="matrix" values="0 0 0 0 0 0 0 0 0 0 0 0 0 0 0 0 0 0 127 0"/>
<feOffset dy="1.37681"/>
<feGaussianBlur stdDeviation="3.44203"/>
<feColorMatrix type="matrix" values="0 0 0 0 0 0 0 0 0 0 0 0 0 0 0 0 0 0 0.2 0"/>
<feBlend mode="normal" in2="BackgroundImageFix" result="effect1_dropShadow"/>
<feBlend mode="normal" in="SourceGraphic" in2="effect1_dropShadow" result="shape"/>
</filter>
<linearGradient id="paint0_linear" x1="144.081" y1="30.0808" x2="308.994" y2="194.995" gradientUnits="userSpaceOnUse">
<stop stop-color="#B5DBFF"/>
<stop offset="1" stop-color="#48B2E3"/>
</linearGradient>
<linearGradient id="paint1_linear" x1="271.901" y1="161.175" x2="163.503" y2="52.7765" gradientUnits="userSpaceOnUse">
<stop stop-color="#B5DBFF"/>
<stop offset="1" stop-color="#48B2E3"/>
</linearGradient>
<linearGradient id="paint2_linear" x1="215.602" y1="229.828" x2="27.9652" y2="42.1907" gradientUnits="userSpaceOnUse">
<stop stop-color="#07485E" stop-opacity="0"/>
<stop offset="0.3332" stop-color="#063F52" stop-opacity="0.333"/>
<stop offset="0.9358" stop-color="#032632" stop-opacity="0.936"/>
<stop offset="1" stop-color="#03232E"/>
</linearGradient>
<linearGradient id="paint3_linear" x1="27.6607" y1="116.131" x2="145.337" y2="233.808" gradientUnits="userSpaceOnUse">
<stop stop-color="#76E2F8"/>
<stop offset="1" stop-color="#48B2E3"/>
</linearGradient>
<linearGradient id="paint4_linear" x1="82.6961" y1="224.694" x2="82.6961" y2="115.324" gradientUnits="userSpaceOnUse">
<stop stop-color="#76E2F8"/>
<stop offset="1" stop-color="#48B2E3"/>
</linearGradient>
</defs>
</svg>
