<svg width="20" height="20" viewBox="0 0 20 20" fill="none" xmlns="http://www.w3.org/2000/svg">
<path fill-rule="evenodd" clip-rule="evenodd" d="M3.66663 1.6665C2.56206 1.6665 1.66663 2.56193 1.66663 3.6665V16.3332C1.66663 17.4377 2.56206 18.3332 3.66663 18.3332H16.3333C17.4379 18.3332 18.3333 17.4377 18.3333 16.3332V3.6665C18.3333 2.56193 17.4379 1.6665 16.3333 1.6665H3.66663ZM9.92834 15.156C7.76689 15.156 6.34762 14.0883 6.276 12.3566H7.9036C8.00777 13.2225 8.87366 13.7889 10.0195 13.7889C11.1523 13.7889 11.9401 13.229 11.9401 12.4477C11.9401 11.7706 11.4583 11.38 10.2734 11.1001L9.05595 10.8136C7.32418 10.4165 6.50387 9.58313 6.50387 8.24198C6.50387 6.57532 7.95569 5.44902 9.99996 5.44902C12.0703 5.44902 13.4375 6.56881 13.4765 8.22245H11.875C11.7968 7.34355 11.0612 6.8162 9.98694 6.8162C8.92574 6.8162 8.20959 7.33704 8.20959 8.11829C8.20959 8.74329 8.68485 9.10787 9.8372 9.38131L10.9179 9.6287C12.8255 10.0649 13.6328 10.8527 13.6328 12.2524C13.6328 14.0363 12.2005 15.156 9.92834 15.156Z" fill="#F0F0F0"/>
</svg>
