<svg width="24" height="23" viewBox="0 0 24 23" fill="none" xmlns="http://www.w3.org/2000/svg">
<path d="M22.7192 7.58554L16.2437 6.64354L13.3532 0.777039V0.777039C12.9199 0.0314546 11.9641 -0.221631 11.2185 0.211756C10.9842 0.34794 10.7894 0.542752 10.6532 0.777039L7.76274 6.64504L1.28724 7.58554H1.28724C0.467203 7.70315 -0.102225 8.46326 0.0153853 9.2833C0.0623576 9.61081 0.216298 9.91361 0.45324 10.1445L5.13774 14.712L4.03224 21.162V21.162C3.89233 21.9786 4.44085 22.7539 5.25737 22.8938C5.58245 22.9495 5.91682 22.8965 6.20874 22.743L12.0032 19.6965L17.7947 22.74V22.74C18.528 23.1256 19.4349 22.8437 19.8205 22.1104C19.9739 21.8185 20.0269 21.4841 19.9712 21.159L18.8657 14.709L23.5532 10.1445V10.1445C24.146 9.5658 24.1573 8.61612 23.5786 8.02338C23.3487 7.78795 23.0478 7.63463 22.7222 7.58705L22.7192 7.58554Z" fill="#1DA1F2"/>
</svg>
