<svg width="10" height="10" viewBox="0 0 10 10" fill="none" xmlns="http://www.w3.org/2000/svg">
<path d="M10 3.19443C10 3.69096 9.59091 4.09721 9.09091 4.09721C9.00909 4.09721 8.93182 4.08818 8.85909 4.06561L7.24091 5.66804C7.26364 5.74027 7.27273 5.82152 7.27273 5.90277C7.27273 6.39929 6.86364 6.80554 6.36364 6.80554C5.86364 6.80554 5.45455 6.39929 5.45455 5.90277C5.45455 5.82152 5.46364 5.74027 5.48636 5.66804L4.32727 4.517C4.25455 4.53957 4.17273 4.5486 4.09091 4.5486C4.00909 4.5486 3.92727 4.53957 3.85455 4.517L1.78636 6.57534C1.80909 6.64756 1.81818 6.72429 1.81818 6.80554C1.81818 7.30207 1.40909 7.70832 0.909091 7.70832C0.409091 7.70832 0 7.30207 0 6.80554C0 6.30902 0.409091 5.90277 0.909091 5.90277C0.990909 5.90277 1.06818 5.91179 1.14091 5.93436L3.21364 3.88054C3.19091 3.80832 3.18182 3.72707 3.18182 3.64582C3.18182 3.1493 3.59091 2.74305 4.09091 2.74305C4.59091 2.74305 5 3.1493 5 3.64582C5 3.72707 4.99091 3.80832 4.96818 3.88054L6.12727 5.03159C6.2 5.00902 6.28182 4.99999 6.36364 4.99999C6.44545 4.99999 6.52727 5.00902 6.6 5.03159L8.21364 3.42464C8.19091 3.35242 8.18182 3.27568 8.18182 3.19443C8.18182 2.69791 8.59091 2.29166 9.09091 2.29166C9.59091 2.29166 10 2.69791 10 3.19443Z" fill="#1DA1F2"/>
</svg>
