<svg width="20" height="20" viewBox="0 0 20 20" fill="none" xmlns="http://www.w3.org/2000/svg">
<path fill-rule="evenodd" clip-rule="evenodd" d="M4.40975 0.833496H17.3959C17.6067 0.833496 17.7778 1.00461 17.7778 1.21544V16.4932C17.7778 16.7041 17.6067 16.8752 17.3959 16.8752H16.632V1.97933H4.0278V1.21544C4.0278 1.00461 4.19891 0.833496 4.40975 0.833496ZM2.88195 2.74321H15.4861C15.697 2.74321 15.8681 2.91432 15.8681 3.12515V18.021C15.8681 18.2318 15.697 18.403 15.4861 18.403H2.88195C2.67111 18.403 2.5 18.2318 2.5 18.021V3.12515C2.5 2.91432 2.67111 2.74321 2.88195 2.74321ZM5.55556 14.2016H8.99307C9.2039 14.2016 9.37501 14.0304 9.37501 13.8196C9.37501 13.6088 9.2039 13.4377 8.99307 13.4377H5.55556C5.34473 13.4377 5.17362 13.6088 5.17362 13.8196C5.17362 14.0304 5.34473 14.2016 5.55556 14.2016ZM5.55556 10.7641H12.4306C12.6414 10.7641 12.8125 10.5929 12.8125 10.3821C12.8125 10.1713 12.6414 10.0002 12.4306 10.0002H5.55556C5.34473 10.0002 5.17362 10.1713 5.17362 10.3821C5.17362 10.5929 5.34473 10.7641 5.55556 10.7641ZM5.55556 7.32655H12.8125C13.0234 7.32655 13.1945 7.15544 13.1945 6.9446C13.1945 6.73377 13.0234 6.56266 12.8125 6.56266H5.55556C5.34473 6.56266 5.17362 6.73377 5.17362 6.9446C5.17362 7.15544 5.34473 7.32655 5.55556 7.32655Z" fill="white"/>
</svg>
