<svg width="20" height="20" viewBox="0 0 20 20" fill="none" xmlns="http://www.w3.org/2000/svg">
<path fill-rule="evenodd" clip-rule="evenodd" d="M5.83337 0.833496C3.07195 0.833496 0.833374 3.07207 0.833374 5.8335V14.1668C0.833374 16.9283 3.07195 19.1668 5.83337 19.1668H14.1667C16.9281 19.1668 19.1667 16.9283 19.1667 14.1668V5.8335C19.1667 3.07207 16.9281 0.833496 14.1667 0.833496H5.83337ZM8.82671 10.3424L10.3789 11.8763L9.91448 13.1229L8.01393 11.2224L4.95837 14.2779L4.0906 13.4102L7.20115 10.3424C6.43726 9.49294 5.82615 8.55183 5.38004 7.55572H6.60226C6.97504 8.28294 7.4456 8.9735 8.01393 9.60294C8.89393 8.62516 9.54171 7.50683 9.95115 6.32738H3.12504V5.11127H7.40282V3.88905H8.62504V5.11127H12.9028V6.3335H11.1123C10.6662 7.77572 9.90837 9.1385 8.84504 10.3241L8.82671 10.3424ZM12.5973 8.77794H13.8195L16.5695 16.1113H15.3473L14.6567 14.2779H11.7539L11.0695 16.1113H9.84726L12.5973 8.77794ZM13.2084 10.4096L12.2184 13.0557H14.1984L13.2084 10.4096Z" fill="#F0F0F0"/>
</svg>
