<svg width="18" height="18" viewBox="0 0 18 18" fill="none" xmlns="http://www.w3.org/2000/svg">
<path fill-rule="evenodd" clip-rule="evenodd" d="M10.3095 2.58752H16.6915C16.9394 2.59574 17.1489 2.7474 17.2221 2.95539H17.25L17.25 3.11842V13.9038L17.25 14.275H17.0854C16.9801 14.374 16.833 14.4352 16.6708 14.4352H13.1374C13.1253 14.977 12.6823 15.4124 12.1377 15.4124H11.8059C11.2612 15.4124 10.8182 14.977 10.8061 14.4352H10.2868L9.41872 14.8085C9.38613 14.8236 9.35009 14.8295 9.31355 14.8295C9.19702 14.8295 9.08937 14.8002 9 14.746C8.90964 14.8002 8.80101 14.8295 8.68497 14.8295C8.64498 14.8295 8.60498 14.8217 8.56795 14.8031L7.81889 14.4352H1.3292C1.01022 14.4352 0.75 14.1961 0.75 13.9038V3.11842C0.75 2.83102 0.999357 2.59777 1.30846 2.58752H7.87617C8.1687 2.59552 8.55142 2.69165 8.8412 2.95539H9.21769C9.54741 2.69165 9.98216 2.59552 10.3095 2.58752ZM2.64457 5.2108C2.64457 5.04982 2.77507 4.91932 2.93604 4.91932H7.01669C7.17767 4.91932 7.30816 5.04982 7.30816 5.2108C7.30816 5.37178 7.17767 5.50227 7.01669 5.50227H2.93604C2.77507 5.50227 2.64457 5.37178 2.64457 5.2108ZM2.93604 6.66817C2.77507 6.66817 2.64457 6.79867 2.64457 6.95965C2.64457 7.12062 2.77507 7.25112 2.93604 7.25112H7.01669C7.17767 7.25112 7.30816 7.12062 7.30816 6.95965C7.30816 6.79867 7.17767 6.66817 7.01669 6.66817H2.93604ZM2.64457 8.70849C2.64457 8.54752 2.77507 8.41702 2.93604 8.41702H7.01669C7.17767 8.41702 7.30816 8.54752 7.30816 8.70849C7.30816 8.86947 7.17767 8.99997 7.01669 8.99997H2.93604C2.77507 8.99997 2.64457 8.86947 2.64457 8.70849ZM9.18341 3.4615C8.99357 3.4615 8.83966 3.6154 8.83966 3.80525V13.4303C8.83966 13.6201 8.99357 13.774 9.18341 13.774C9.37326 13.774 9.52716 13.6201 9.52716 13.4303V3.80525C9.52716 3.6154 9.37326 3.4615 9.18341 3.4615Z" fill="white"/>
</svg>
