<svg xmlns="http://www.w3.org/2000/svg" width="60" height="92" viewBox="0 0 60 92">
    <g fill="none" fill-rule="evenodd">
        <path fill="#EFEFEF" d="M30.363 91.475c15.329 0 29.174-13.584 29.174-29.123 2.967-29.123-42.526-47.88-17.801-59.726C27.469-5.512 8.11 6.574 18 30.268c-8.155-2.412-12.917-1.062-15.55 2.194C20.967 37.178.2 51 .2 63.832c-.99 9.873 5.934 25.668 30.164 27.643z"/>
        <path fill="#FFF" d="M29.917 91.905c8.761 0 16.673-10.859 17.801-15.795.85-4.936.85-8.885-2.117-12.834-3.956 6.91-13.846 6.91-13.846 5.924 0-.988 13.846-12.834-2.966-28.63 4.805 17.77-12.857 13.821-14.696 35.54 0 8.724 7.085 15.795 15.824 15.795z"/>
    </g>
</svg>
