<svg width="24" height="24" viewBox="0 0 24 24" fill="none" xmlns="http://www.w3.org/2000/svg">
<path fill-rule="evenodd" clip-rule="evenodd" d="M21.0436 3.95638C21.5718 4.48457 21.5718 5.34094 21.0436 5.86913L14.4128 12.5L21.0436 19.1309C21.5718 19.6591 21.5718 20.5154 21.0436 21.0436C20.5154 21.5718 19.6591 21.5718 19.1309 21.0436L12.5 14.4128L5.86913 21.0436C5.34094 21.5718 4.48457 21.5718 3.95638 21.0436C3.42818 20.5154 3.42818 19.6591 3.95638 19.1309L10.5872 12.5L3.95638 5.86913C3.42818 5.34094 3.42818 4.48457 3.95638 3.95638C4.48457 3.42818 5.34094 3.42818 5.86913 3.95638L12.5 10.5872L19.1309 3.95638C19.6591 3.42818 20.5154 3.42818 21.0436 3.95638Z" fill="white"/>
</svg>
