<svg width="24" height="24" viewBox="0 0 24 24" fill="none" xmlns="http://www.w3.org/2000/svg">
<path fill-rule="evenodd" clip-rule="evenodd" d="M11.0526 2.72363C6.45263 2.72363 2.72363 6.45263 2.72363 11.0526C2.72363 15.6525 6.45263 19.3815 11.0526 19.3815C13.0825 19.3815 14.9429 18.6553 16.388 17.4485L19.9959 21.0565C20.2888 21.3494 20.7637 21.3494 21.0566 21.0565C21.3495 20.7636 21.3495 20.2887 21.0566 19.9958L17.4486 16.3879C18.6554 14.9428 19.3815 13.0825 19.3815 11.0526C19.3815 6.45263 15.6525 2.72363 11.0526 2.72363ZM15.9601 15.8014C17.1496 14.5724 17.8815 12.898 17.8815 11.0526C17.8815 7.28106 14.8241 4.22363 11.0526 4.22363C7.28106 4.22363 4.22363 7.28106 4.22363 11.0526C4.22363 14.8241 7.28106 17.8815 11.0526 17.8815C12.898 17.8815 14.5725 17.1495 15.8014 15.96C15.8234 15.9303 15.8479 15.9018 15.8749 15.8748C15.9018 15.8478 15.9303 15.8234 15.9601 15.8014Z" fill="#B2B2B2"/>
</svg>
