<svg xmlns="http://www.w3.org/2000/svg" width="31" height="28" viewBox="0 0 31 28">
    <path fill="#FFF" fill-rule="evenodd" d="M29.918 3.574c.096.193.145.337.145.434 0 .096-.049.24-.145.433L11.924 27.566c-.29.29-.506.434-.65.434-.241 0-.482-.12-.723-.361L.36 17.81l-.216-.217C.048 17.4 0 17.257 0 17.16c0-.048.048-.168.145-.361l.144-.145a142.587 142.587 0 0 1 3.18-3.324c.289-.289.482-.434.578-.434.193 0 .433.145.723.434l5.78 5.637L25.005.395c.096-.097.24-.145.433-.145.145 0 .314.048.506.145l3.975 3.18z"/>
</svg>
