<svg xmlns="http://www.w3.org/2000/svg" width="15" height="16" viewBox="0 0 15 16">
    <path fill="#000" fill-rule="evenodd" d="M13.475 3.24c0 .136-.056.26-.145.352H.955a.5.5 0 0 1-.145-.353v-.104c0-.28.226-.505.505-.505H12.97c.279 0 .505.226.505.505v.104zm-1.898 11.284c-.04.38-.39.666-.817.666H3.592c-.422 0-.772-.282-.816-.656l-1.178-9.98h11.009l-1.03 9.97zM4.746 1.46A.65.65 0 0 1 5.393.81h3.47c.34 0 .614.276.614.617v.392H4.746v-.36zm8.224.36c.724 0 1.315.59 1.315 1.316v.104c0 .562-.356 1.04-.855 1.228l-1.048 10.14c-.08.795-.78 1.393-1.622 1.393H3.592c-.833 0-1.529-.59-1.62-1.37L.767 4.43A1.316 1.316 0 0 1 0 3.24v-.104c0-.726.59-1.316 1.315-1.316h2.62v-.36C3.935.656 4.592 0 5.393 0h3.47c.784 0 1.425.64 1.425 1.427v.392h2.682zM7.142 14.284a.405.405 0 0 0 .405-.405V5.935a.405.405 0 1 0-.81 0v7.944c0 .224.182.405.405.405zm2.314-.129a.404.404 0 0 0 .434-.373l.604-7.815a.405.405 0 0 0-.372-.436.42.42 0 0 0-.435.372l-.604 7.818a.405.405 0 0 0 .373.434zm-4.667.002c.012 0 .022 0 .032-.002a.404.404 0 0 0 .373-.434L4.59 5.903a.42.42 0 0 0-.434-.372.405.405 0 0 0-.373.436l.604 7.816a.404.404 0 0 0 .402.374z"/>
</svg>
