<svg xmlns="http://www.w3.org/2000/svg" width="31" height="22" viewBox="0 0 31 22">
    <path fill="#FFF" fill-rule="evenodd" d="M29.006 19.421H17.273a.526.526 0 0 0-.192.04l-1.55.625c-.01-.003-.016-.003-.016.002v-17.6c0-.654.286-1.1.88-1.36a2.85 2.85 0 0 1 1.123-.23h11.488c.055 0 .084.024.084.013l.005 18.482c-.005.008-.034.028-.09.028zm-15.799.047a.54.54 0 0 0-.217-.047H1.055c-.055 0-.086-.02-.086-.012L.966.927C.97.922 1 .898 1.056.898h11.867c.27 0 1.624.078 1.624 1.59v17.585c-.003.005-.01.007-.012.008l-1.328-.613zm9.362.856V21c0 .552-.455 1-1.007 1h-2.235a1 1 0 0 1-1.006-1v-.676h-.946l-1.582.64a.477.477 0 0 1-.191.036 1.15 1.15 0 0 1-.571-.143 1.168 1.168 0 0 1-.574.143.497.497 0 0 1-.214-.045l-1.364-.631H1.055c-.58 0-1.055-.41-1.055-.912V.911C0 .418.454.018 1.017 0h11.966c.65.017 1.546.259 2.08.973C15.668.26 16.688.017 17.415 0h11.628c.563.018 1.017.418 1.017.91v18.502c0 .506-.474.912-1.055.912h-6.437zM3.452 4v1h8.496V4H3.452zm0 3v1h8.496V7H3.452zm0 3v1h8.496v-1H3.452z"/>
</svg>
