<svg width="26" height="28" viewBox="0 0 26 28" fill="none" xmlns="http://www.w3.org/2000/svg">
<path d="M24 6.5H18.7313C19.5063 5.8125 20 4.8375 20 3.75C20 1.68125 18.2312 0 16.0563 0C14.7688 0 13.6875 0.60625 13 1.7125C12.3125 0.60625 11.2313 0 9.94375 0C7.76875 0 6 1.68125 6 3.75C6 4.8375 6.4875 5.8125 7.26875 6.5H2C0.89375 6.5 0 7.39375 0 8.5V9.75C0 9.8875 0.1125 10 0.25 10H25.75C25.8875 10 26 9.8875 26 9.75V8.5C26 7.39375 25.1063 6.5 24 6.5ZM16.0563 1.75C17.2188 1.75 18.1625 2.64375 18.1625 3.75C18.1625 4.85625 17.2188 5.75 16.0563 5.75H13.95C13.95 2.75 14.8937 1.75 16.0563 1.75ZM9.94375 1.75C11.1063 1.75 12.05 2.75 12.05 5.75H9.94375C8.78125 5.75 7.8375 4.85625 7.8375 3.75C7.8375 2.64375 8.78125 1.75 9.94375 1.75ZM1 12.125V26C1 27.1 1.9 28 3 28H12.125V11.625H1.5C1.225 11.625 1 11.85 1 12.125ZM24.5 11.625H13.875V28H23C24.1 28 25 27.1 25 26V12.125C25 11.85 24.775 11.625 24.5 11.625Z" fill="#fff"/>
</svg>
