<svg xmlns="http://www.w3.org/2000/svg" width="24" height="19" viewBox="0 0 24 19">
    <g fill="#FFF" fill-rule="nonzero">
        <path d="M12 3.8l-8.712 7.036c0 .01-.003.025-.008.044a.2.2 0 0 0-.007.045v7.125c0 .257.096.48.288.667.192.188.419.283.681.283h5.818v-5.7h3.88V19h5.817a.94.94 0 0 0 .682-.283.903.903 0 0 0 .288-.667v-7.125c0-.04-.005-.07-.015-.089L12 3.8z"/>
        <path d="M23.834 9.436l-3.26-2.748V.528a.459.459 0 0 0-.476-.483H17.24a.46.46 0 0 0-.476.484v2.943L13.13.392A1.722 1.722 0 0 0 12.001 0c-.437 0-.814.13-1.132.393L.165 9.436a.44.44 0 0 0-.163.324.494.494 0 0 0 .104.355l.923 1.117c.08.09.183.146.312.166.12.01.239-.025.358-.105L12 2.582l10.301 8.71c.08.07.184.106.313.106h.045a.506.506 0 0 0 .312-.166l.923-1.117c.08-.1.115-.22.104-.355a.442.442 0 0 0-.164-.324z"/>
    </g>
</svg>
