<svg xmlns="http://www.w3.org/2000/svg" width="33" height="16" viewBox="0 0 33 16">
    <path fill="#FFF" fill-rule="nonzero" d="M29.496 0C31.428 0 33 1.608 33 3.585c0 1.976-1.572 3.585-3.504 3.585-.704 0-1.36-.215-1.91-.583L23.8 10.461c.36.562.569 1.233.569 1.954 0 1.977-1.572 3.585-3.504 3.585s-3.504-1.608-3.504-3.585c0-.694.195-1.343.53-1.893l-3.845-3.935a3.426 3.426 0 0 1-3.822 0L6.44 10.46c.359.563.569 1.234.569 1.955C7.008 14.392 5.436 16 3.504 16S0 14.392 0 12.415C0 10.44 1.572 8.83 3.504 8.83c.704 0 1.36.215 1.91.582L9.2 5.54a3.622 3.622 0 0 1-.569-1.954C8.631 1.608 10.203 0 12.135 0s3.504 1.608 3.504 3.585c0 .72-.21 1.392-.57 1.955l3.825 3.913a3.429 3.429 0 0 1 3.882-.04L26.56 5.54a3.622 3.622 0 0 1-.569-1.955C25.992 1.608 27.564 0 29.496 0z"/>
</svg>
