<svg xmlns="http://www.w3.org/2000/svg" width="25" height="27" viewBox="0 0 25 27">
    <path fill="#FFF" fill-rule="nonzero" d="M19.31 7.808a.67.67 0 0 1-.647.47.7.7 0 0 1-.183-.024l-5.383-1.45a.642.642 0 0 1-.466-.797.677.677 0 0 1 .83-.447l5.383 1.451a.643.643 0 0 1 .466.797zM9.75 23.528c-.997 0-1.809.779-1.809 1.736S8.754 27 9.752 27c.996 0 1.808-.779 1.808-1.736s-.812-1.736-1.809-1.736zm10.977 0c-.997 0-1.808.779-1.808 1.736S19.73 27 20.728 27c.997 0 1.809-.779 1.809-1.736s-.812-1.736-1.809-1.736zM24.99 9.396l-1.748 9.17a.666.666 0 0 1-.661.53H8.145l.37 1.68c.093.416.483.72.927.72h12.206a.66.66 0 0 1 .672.645.66.66 0 0 1-.672.645H9.442c-1.076 0-2.019-.733-2.242-1.743l-.541-2.449-3.6-14.038H.672A.66.66 0 0 1 0 3.91a.66.66 0 0 1 .672-.645h2.914c.31 0 .579.203.653.491l1.246 4.859 4.03.004 1.841-6.291v-.001L11.9.47a.676.676 0 0 1 .83-.447l9.743 2.626a.642.642 0 0 1 .466.796.67.67 0 0 1-.647.471.694.694 0 0 1-.182-.024l-.149-.04-.174.595.149.04a.643.643 0 0 1 .465.796l-.98 3.347 2.909.003c.199 0 .388.085.516.232.127.148.18.341.144.53zM13.012 1.44l-.174.595L20.491 4.1l.174-.595-7.653-2.063zm-1.759 7.18l8.484.008.412-1.407a.623.623 0 0 0-.061-.49.668.668 0 0 0-.405-.306l-6.571-1.77a.697.697 0 0 0-.511.058.65.65 0 0 0-.319.388l-1.029 3.519z"/>
</svg>
