<svg xmlns="http://www.w3.org/2000/svg" width="20" height="20" viewBox="0 0 20 20">
    <path fill="#000" fill-rule="evenodd" d="M20 11.517l-2.419.536a7.843 7.843 0 0 1-.836 1.972l1.33 2.089-2.078 2.078-2.13-1.36a7.784 7.784 0 0 1-1.866.764L11.47 20H8.53l-.531-2.404a7.753 7.753 0 0 1-1.912-.789L3.968 18.16l-2.08-2.08 1.34-2.1a7.825 7.825 0 0 1-.81-1.926L0 11.517v-2.94l2.388-.528a7.725 7.725 0 0 1 .787-1.93l-1.32-2.07 2.08-2.078L5.96 3.263a7.757 7.757 0 0 1 2.038-.86L8.529 0h2.94l.532 2.403a7.8 7.8 0 0 1 1.992.834l2.038-1.3 2.08 2.079-1.312 2.056c.363.626.636 1.29.813 1.977L20 8.578v2.939zM10 6.33A3.673 3.673 0 0 0 6.33 10 3.672 3.672 0 0 0 10 13.668 3.672 3.672 0 0 0 13.668 10 3.673 3.673 0 0 0 9.999 6.33z"/>
</svg>
