<svg xmlns="http://www.w3.org/2000/svg" width="15" height="15" viewBox="0 0 15 15">
    <path fill="#FFF" fill-rule="evenodd" d="M14.8 8.862l-1.693.375a5.49 5.49 0 0 1-.585 1.38l.931 1.463-1.455 1.454-1.492-.951a5.449 5.449 0 0 1-1.305.534L8.829 14.8H6.77l-.372-1.683a5.427 5.427 0 0 1-1.339-.552l-1.482.946-1.456-1.456.938-1.47a5.478 5.478 0 0 1-.567-1.348L.8 8.862V6.805l1.672-.37c.12-.47.305-.924.55-1.352l-.924-1.448 1.456-1.456 1.418.905a5.43 5.43 0 0 1 1.427-.602L6.77.8h2.058L9.2 2.482c.49.13.957.325 1.394.584l1.426-.91 1.456 1.455-.918 1.44c.254.438.445.902.57 1.384l1.671.37v2.057zm-7-3.63A2.57 2.57 0 0 0 5.232 7.8 2.57 2.57 0 0 0 7.8 10.368 2.57 2.57 0 0 0 10.368 7.8 2.57 2.57 0 0 0 7.8 5.232z"/>
</svg>
