<svg xmlns="http://www.w3.org/2000/svg" width="24" height="24" viewBox="0 0 24 24">
    <path fill="#FFF" fill-rule="evenodd" d="M23.04 13.8H20.4c-.24.76-.58 1.54-1.02 2.34l1.92 1.92-3.24 3.24-1.98-1.92c-.56.32-1.32.62-2.28.9v2.76H9.24v-2.76c-1.04-.32-1.8-.62-2.28-.9L4.98 21.3l-3.24-3.24 1.92-1.92c-.44-.8-.78-1.58-1.02-2.34H0V9.24h2.58c.32-1.08.64-1.9.96-2.46l-1.8-1.8 3.24-3.24 1.74 1.74c.68-.4 1.52-.74 2.52-1.02V0h4.56v2.46c1 .28 1.84.62 2.52 1.02l1.74-1.74 3.24 3.24-1.8 1.8c.44.8.76 1.62.96 2.46h2.58v4.56zm-13.8 0c.64.64 1.4.96 2.28.96.88 0 1.64-.32 2.28-.96.64-.64.96-1.4.96-2.28 0-.88-.32-1.64-.96-2.28-.64-.64-1.4-.96-2.28-.96-.88 0-1.64.32-2.28.96-.64.64-.96 1.4-.96 2.28 0 .88.32 1.64.96 2.28z"/>
</svg>
