<svg width="16" height="16" viewBox="0 0 16 16" fill="none" xmlns="http://www.w3.org/2000/svg">
<g clip-path="url(#clip0)">
<path d="M3.99573 10.0131C4.16998 10.0131 4.33712 10.0823 4.46033 10.2055L5.60276 11.3478H10.3983L11.5408 10.2055C11.664 10.0823 11.8311 10.0131 12.0054 10.0131H14.7765C15.289 10.0131 15.651 9.51127 15.489 9.02505C15.076 7.7855 14.3275 5.54617 12.9712 1.47701C12.6773 0.595431 11.8523 0.000610352 10.923 0.000610352H5.07812C4.14739 0.000610352 3.32435 0.593836 3.03002 1.47682C3.00017 1.56621 1.35309 6.50738 0.514068 9.02489C0.352026 9.51114 0.713969 10.0131 1.2265 10.0131H3.99573V10.0131ZM5.69665 5.27744C7.75004 3.32677 7.52893 3.5359 7.56672 3.50258C7.76981 3.32358 8.06374 3.28606 8.3066 3.41403C8.42252 3.4753 8.30268 3.37586 10.3044 5.27744C10.5675 5.52737 10.5781 5.94325 10.3282 6.20635C10.0776 6.47011 9.66175 6.47947 9.39931 6.2302L8.65759 5.52555V7.99998C8.65759 8.36287 8.36341 8.65704 8.00053 8.65704C7.63765 8.65704 7.34348 8.36287 7.34348 7.99998V5.52555L6.60173 6.2302C6.33863 6.48013 5.92277 6.46943 5.67284 6.20635C5.42288 5.94325 5.43358 5.52737 5.69665 5.27744Z" fill="#333333"/>
<path d="M12.2775 11.3271L11.135 12.4694C11.0118 12.5926 10.8447 12.6618 10.6704 12.6618H5.33058C5.15634 12.6618 4.98919 12.5926 4.86598 12.4694L3.72355 11.3271H0.750919C0.335849 11.3271 -0.000500054 11.6635 5.58098e-07 12.0786C0.000532458 12.5219 0.00115822 13.0956 0.00115822 13.8404C0.00115822 15.0327 0.967777 15.9993 2.16011 15.9993H13.841C15.0333 15.9993 15.9999 15.0326 15.9999 13.8402C15.9999 13.0898 15.9999 12.5164 16 12.0778C16.0001 11.663 15.6638 11.327 15.2491 11.327H12.2775V11.3271Z" fill="#333333"/>
</g>
<defs>
<clipPath id="clip0">
<rect width="16" height="16" fill="white"/>
</clipPath>
</defs>
</svg>
