<svg xmlns="http://www.w3.org/2000/svg" width="24" height="24" viewBox="0 0 24 24">
    <path fill="#FFF" fill-rule="nonzero" d="M2.706 22h18.588c.396 0 .706-.31.706-.706V2.706A.699.699 0 0 0 21.294 2H2.706A.699.699 0 0 0 2 2.706v18.588a.71.71 0 0 0 .706.706zM18.245 3.413h2.342V6.65h-2.342V3.413zm0 4.65h2.342v3.24H18.227v-3.24h.018zm.017 4.652H20.622v3.238h-2.343v-3.238h-.017zm-.017 4.651h2.342v3.239h-2.342v-3.239zM7.168 3.413h9.664v7.89H7.168v-7.89zm0 9.302h9.664v7.89H7.168v-7.89zM3.413 3.413h2.342V6.65H3.413V3.413zm0 4.65h2.342v3.24H3.413v-3.24zm0 4.652h2.342v3.238H3.413v-3.238zm0 4.651h2.342v3.239H3.413v-3.239z"/>
</svg>
