<svg width="102" height="78" viewBox="0 0 102 78" fill="none" xmlns="http://www.w3.org/2000/svg">
<path fill-rule="evenodd" clip-rule="evenodd" d="M6.90347 38.2447L16.9632 34.1793C15.3103 31.2257 12.7025 29.8298 9.89101 30.966C7.12349 32.0844 6.15459 34.8726 6.90347 38.2447ZM25.5817 44.3835C24.2567 47.0492 22.0394 49.2768 18.613 50.6615C11.5404 53.5197 4.22312 50.4588 1.19025 42.9502L1.15326 42.8586C-1.67619 35.8537 0.781934 28.1498 7.63485 25.3803C15.4981 22.2025 21.687 27.5303 23.7397 32.6123C24.5534 34.6268 23.7279 36.5049 21.9708 37.215L8.74818 42.5587C10.6831 45.4515 13.4575 46.2476 16.4446 45.0403C18.2897 44.2947 19.5868 43.0782 20.5232 41.4748C20.8585 40.9132 21.2238 40.5526 21.9267 40.2685C23.4203 39.6649 24.9993 40.4115 25.6281 41.9681C25.9979 42.8838 25.88 43.7303 25.5817 44.3835Z" fill="#1DA1F2"/>
<path fill-rule="evenodd" clip-rule="evenodd" d="M30.155 60.3381C35.0928 60.3381 38.1543 57.4932 38.1543 51.2766V27.2006C38.1543 24.9879 36.4754 23.1967 34.4015 23.1967C32.3276 23.1967 30.6488 24.9879 30.6488 27.2006V51.2239C30.6488 53.1205 29.9081 53.8581 28.8218 53.8581H28.7724C27.1923 53.8581 25.8591 55.1225 25.8591 57.0717C25.8591 59.2844 27.6367 60.3381 30.0563 60.3381H30.155ZM58.2017 52.383C50.005 52.383 43.9315 45.903 43.9315 37.7898V37.6844C43.9315 29.5713 50.0543 22.9859 58.3005 22.9859C66.4972 22.9859 72.5707 29.4659 72.5707 37.5791V37.6844C72.5707 45.7976 66.4478 52.383 58.2017 52.383ZM58.3005 45.4815C62.5964 45.4815 65.164 41.9517 65.164 37.7898V37.6844C65.164 33.5225 62.3495 29.8874 58.2017 29.8874C53.9058 29.8874 51.3382 33.4171 51.3382 37.5791V37.6844C51.3382 41.8464 54.1527 45.4815 58.3005 45.4815ZM83.4832 60.3381C87.9766 60.3381 90.1986 58.1781 92.4206 52.4356L101.654 28.781C101.802 28.4123 102 27.5167 102 26.8845C102 24.7771 100.371 23.1967 98.4448 23.1967C96.519 23.1967 95.4327 24.5664 94.8402 26.2523L89.3098 42.6366L83.582 26.1996C82.9401 24.303 81.8538 23.1967 79.9774 23.1967C77.9035 23.1967 76.274 24.7771 76.274 27.0425C76.274 27.5693 76.4716 28.3596 76.6691 28.8864L85.7052 51.2239L85.4583 51.8561C84.7671 53.2786 84.1251 53.542 82.7919 53.542C82.2488 53.542 81.8538 53.4366 81.2118 53.2259C80.9156 53.1205 80.5699 53.0151 79.9774 53.0151C78.4467 53.0151 77.0147 54.3322 77.0147 56.2815C77.0147 58.2307 78.2985 59.179 79.3849 59.6005C80.6193 60.0746 81.8044 60.3381 83.4832 60.3381Z" fill="#1DA1F2"/>
<path fill-rule="evenodd" clip-rule="evenodd" d="M34.4973 20.1127C38.2388 20.0198 40.3464 17.434 40.22 14.4624C39.6954 10.1005 34.0944 8.69635 36.3363 2.87323C31.8324 6.46158 28.5989 11.0555 28.7367 14.3241C28.7981 17.4946 30.7826 20.1127 34.4973 20.1127ZM37.9105 15.689C38.4868 15.689 38.9015 15.2546 38.954 14.7243C39.0913 14.3506 38.954 12.6378 37.5844 11.5396C37.8067 12.9659 36.7429 14.1508 36.867 14.7243C36.867 15.2571 37.3342 15.689 37.9105 15.689Z" fill="#1DA1F2"/>
</svg>
