<svg xmlns="http://www.w3.org/2000/svg" xmlns:xlink="http://www.w3.org/1999/xlink" width="84" height="58" viewBox="0 0 84 58">
    <defs>
        <path id="b" d="M6.31 18.827c-4.051 0-6.215-2.858-6.283-6.319-.15-3.568 3.377-8.583 8.29-12.5-2.446 6.357 3.663 7.89 4.236 12.651.138 3.244-2.161 6.067-6.242 6.168zm3.724-4.829c.628 0 1.08-.474 1.138-1.053.15-.408 0-2.278-1.494-3.476.242 1.557-.918 2.85-.783 3.476 0 .582.51 1.053 1.139 1.053z"/>
        <filter id="a" width="451%" height="333.8%" x="-143.6%" y="-95.6%" filterUnits="objectBoundingBox">
            <feOffset dx="2" dy="4" in="SourceAlpha" result="shadowOffsetOuter1"/>
            <feGaussianBlur in="shadowOffsetOuter1" result="shadowBlurOuter1" stdDeviation="4"/>
            <feComposite in="shadowBlurOuter1" in2="SourceAlpha" operator="out" result="shadowBlurOuter1"/>
            <feColorMatrix in="shadowBlurOuter1" result="shadowMatrixOuter1" values="0 0 0 0 1 0 0 0 0 1 0 0 0 0 1 0 0 0 0.5 0"/>
            <feOffset dx="2" in="SourceAlpha" result="shadowOffsetOuter2"/>
            <feGaussianBlur in="shadowOffsetOuter2" result="shadowBlurOuter2" stdDeviation="4"/>
            <feComposite in="shadowBlurOuter2" in2="SourceAlpha" operator="out" result="shadowBlurOuter2"/>
            <feColorMatrix in="shadowBlurOuter2" result="shadowMatrixOuter2" values="0 0 0 0 1 0 0 0 0 1 0 0 0 0 1 0 0 0 0.25 0"/>
            <feMerge>
                <feMergeNode in="shadowMatrixOuter1"/>
                <feMergeNode in="shadowMatrixOuter2"/>
            </feMerge>
        </filter>
        <path id="d" d="M10.034 13.998c.628 0 1.08-.474 1.138-1.053.15-.408 0-2.278-1.494-3.476.242 1.557-.918 2.85-.783 3.476 0 .582.51 1.053 1.139 1.053z"/>
        <filter id="c" width="700.1%" height="409.1%" x="-300%" y="-132.5%" filterUnits="objectBoundingBox">
            <feMorphology in="SourceAlpha" operator="dilate" radius=".5" result="shadowSpreadOuter1"/>
            <feOffset dy="1" in="shadowSpreadOuter1" result="shadowOffsetOuter1"/>
            <feMorphology in="SourceAlpha" radius="1" result="shadowInner"/>
            <feOffset dy="1" in="shadowInner" result="shadowInner"/>
            <feComposite in="shadowOffsetOuter1" in2="shadowInner" operator="out" result="shadowOffsetOuter1"/>
            <feGaussianBlur in="shadowOffsetOuter1" result="shadowBlurOuter1" stdDeviation="2"/>
            <feColorMatrix in="shadowBlurOuter1" values="0 0 0 0 0.976470588 0 0 0 0 0.976470588 0 0 0 0 0.976470588 0 0 0 0.24 0"/>
        </filter>
    </defs>
    <g fill="none" fill-rule="evenodd">
        <path fill="#FFF" d="M5.569 40.634l8.082-3.266c-1.275-2.239-3.333-3.27-5.592-2.358-2.223.899-3.037 3.05-2.49 5.624zm14.802 4.428c-1.096 2.063-2.897 3.803-5.65 4.915-5.681 2.296-11.47.058-13.777-5.652l-.028-.07c-2.153-5.327-.079-11.268 5.427-13.492 6.317-2.553 11.173 1.44 12.734 5.304.62 1.532-.067 2.984-1.479 3.554L6.976 43.913c1.5 2.188 3.7 2.757 6.1 1.788 1.482-.6 2.535-1.55 3.305-2.794.276-.435.572-.717 1.137-.945 1.2-.485 2.448.064 2.926 1.248a2.228 2.228 0 0 1-.073 1.852zM24.692 57.29c4.076 0 6.604-2.155 6.604-6.863V32.194c0-1.676-1.386-3.033-3.098-3.033-1.713 0-3.099 1.357-3.099 3.033v18.194c0 1.436-.611 1.994-1.508 1.994h-.04c-1.305 0-2.406.958-2.406 2.434 0 1.676 1.468 2.474 3.465 2.474h.082zm23.155-6.025c-6.767 0-11.781-4.907-11.781-11.052v-.08c0-6.144 5.055-11.131 11.863-11.131 6.767 0 11.781 4.907 11.781 11.052v.08c0 6.144-5.055 11.131-11.863 11.131zm.082-5.226c3.547 0 5.666-2.674 5.666-5.826v-.08c0-3.151-2.323-5.904-5.748-5.904-3.546 0-5.666 2.673-5.666 5.825v.08c0 3.152 2.323 5.905 5.748 5.905zm20.79 11.251c3.71 0 5.545-1.636 7.38-5.985l7.623-17.914c.122-.28.286-.958.286-1.437 0-1.596-1.346-2.793-2.936-2.793-1.59 0-2.486 1.038-2.976 2.315L73.53 43.884l-4.729-12.448c-.53-1.437-1.426-2.275-2.976-2.275-1.712 0-3.057 1.197-3.057 2.913 0 .4.163.998.326 1.397l7.46 16.917-.203.478c-.571 1.078-1.101 1.277-2.202 1.277-.448 0-.774-.08-1.304-.24-.245-.08-.53-.159-1.02-.159a2.444 2.444 0 0 0-2.446 2.474c0 1.476 1.06 2.194 1.957 2.513 1.02.36 1.998.559 3.384.559z"/>
        <g transform="translate(22.193 7)">
            <use fill="#000" filter="url(#a)" xlink:href="#b"/>
            <use fill="#F9F9F9" xlink:href="#b"/>
            <path d="M6.292 17.327c3.018-.082 4.845-1.987 4.764-4.546-.152-1.167-.644-2.005-2.063-3.796L8.926 8.9C7.428 7.01 6.53 5.495 6.265 3.885 3.26 6.986 1.433 10.24 1.527 12.48c.057 2.93 1.81 4.84 4.765 4.848zm4.103-4.487v-.055l-.033-.157c.022.105.03.172.033.212zm-2.995.256c-.057-.414.018-.785.173-1.218.072-.202.42-1.02.34-.829.253-.61.338-.997.283-1.35L7.6 5.88l3.016 2.42c1.619 1.299 2.38 3.583 2.026 4.96-.203 1.27-1.268 2.24-2.61 2.24-1.38 0-2.552-1.04-2.633-2.403z"/>
        </g>
        <g transform="translate(22.193 7)">
            <use fill="#000" filter="url(#c)" xlink:href="#d"/>
            <use stroke="#F9F9F9" stroke-opacity=".06" xlink:href="#d"/>
        </g>
    </g>
</svg>
