<svg width="16" height="16" viewBox="0 0 16 16" fill="none" xmlns="http://www.w3.org/2000/svg">
<path fill-rule="evenodd" clip-rule="evenodd" d="M14.3096 4.50786L15.135 5.33325C15.389 5.58722 15.389 5.96817 15.135 6.22214L7.51596 13.8412C7.38898 13.9682 7.262 14.0317 7.07152 14.0317C6.88104 14.0317 6.75406 13.9682 6.62708 13.8412L2.81755 10.0317C2.56358 9.7777 2.56358 9.39674 2.81755 9.14278L10.4366 1.52373C10.6906 1.26976 11.0715 1.26976 11.3255 1.52373L12.1509 2.34912L7.89692 6.60309C7.64295 6.85706 7.64295 7.23801 7.89692 7.49198L9.16676 8.76182C9.29374 8.88881 9.42073 8.9523 9.6112 8.9523C9.80168 8.9523 9.92866 8.88881 10.0556 8.76182L14.3096 4.50786ZM1.54766 12.9523L2.75401 11.746L4.91274 13.9047L4.34131 14.4761C4.21433 14.6031 4.08734 14.6666 3.89687 14.6666C3.83337 14.6666 3.76988 14.6666 3.70639 14.6031L1.80163 13.9682C1.54766 13.9047 1.42068 13.7142 1.35718 13.5237C1.29369 13.3333 1.35718 13.0793 1.54766 12.9523Z" fill="#444444"/>
</svg>
