<svg xmlns="http://www.w3.org/2000/svg" width="18" height="20" viewBox="0 0 18 20">
    <path fill="#000" fill-rule="evenodd" d="M16.77 4.687a.605.605 0 0 1-.174.423H1.746a.601.601 0 0 1-.174-.423V4.56c0-.334.272-.605.606-.605h13.986c.335 0 .606.27.606.605v.126zm-2.278 13.542c-.047.456-.467.799-.98.799H4.91c-.506 0-.926-.339-.98-.787L2.519 6.265h13.21L14.492 18.23zM6.295 2.55a.78.78 0 0 1 .777-.778h4.163c.408 0 .738.331.738.74v.471H6.295V2.55zm9.869.433c.87 0 1.578.708 1.578 1.578v.126c0 .675-.428 1.248-1.026 1.473L15.46 18.33c-.097.952-.935 1.67-1.947 1.67H4.91c-.999 0-1.834-.707-1.944-1.644L1.52 6.117a1.58 1.58 0 0 1-.92-1.43V4.56c0-.87.709-1.578 1.578-1.578h3.144V2.55c0-.962.788-1.75 1.75-1.75h4.163c.942 0 1.71.768 1.71 1.712v.471h3.219zM9.171 17.941a.486.486 0 0 0 .486-.486V7.922a.486.486 0 1 0-.973 0v9.533c0 .268.218.486.487.486zm2.776-.155c.013.002.025.002.038.002.251 0 .465-.193.484-.449l.724-9.38a.486.486 0 0 0-.447-.522.504.504 0 0 0-.521.447l-.725 9.381c-.02.268.18.501.447.521zm-5.6.002c.014 0 .026 0 .038-.002a.484.484 0 0 0 .448-.52l-.725-9.382a.504.504 0 0 0-.521-.447.486.486 0 0 0-.447.523l.724 9.38c.019.255.232.448.483.448z"/>
</svg>
