<svg xmlns="http://www.w3.org/2000/svg" width="8" height="19" viewBox="0 0 8 19">
    <defs>
        <linearGradient id="a" x1="22.718%" x2="76.483%" y1="5.849%" y2="100%">
            <stop offset="0%" stop-color="#EEE"/>
            <stop offset="100%" stop-color="#D8D8D8"/>
        </linearGradient>
    </defs>
    <path fill="url(#a)" fill-rule="evenodd" d="M47.8 8.486l2.619.015c.092 0 .182.023.264.066.287.15.4.51.252.804l-4.765 9.467a.291.291 0 0 1-.28.161.296.296 0 0 1-.271-.32l.58-8.165-2.618-.015a.574.574 0 0 1-.264-.066.603.603 0 0 1-.252-.804L47.83.162a.291.291 0 0 1 .28-.161c.162.012.283.155.271.32l-.58 8.165zm-1.002-5.199l-1.265 2.841a.144.144 0 0 0 .078.192.152.152 0 0 0 .198-.076l1.265-2.841a.144.144 0 0 0-.078-.192.152.152 0 0 0-.198.076z" transform="translate(-43)"/>
</svg>
