<svg xmlns="http://www.w3.org/2000/svg" width="22" height="21" viewBox="0 0 22 21">
    <g fill="#FFF" fill-rule="nonzero">
        <path d="M19.067 3v16.033h-16V3h16zM8.333 7.333v-.666h8v.666h-8zM18 4H3.967v14.033H18V4zm-9.667 7.333v-.666h8v.666h-8zm0 4v-.666h8v.666h-8zm-2-7.666c-.444 0-.666-.223-.666-.667 0-.444.222-.667.666-.667.445 0 .667.223.667.667 0 .444-.222.667-.667.667zm0 4c-.444 0-.666-.223-.666-.667 0-.444.222-.667.666-.667.445 0 .667.223.667.667 0 .444-.222.667-.667.667zm0 4c-.444 0-.666-.223-.666-.667 0-.444.222-.667.666-.667.445 0 .667.223.667.667 0 .444-.222.667-.667.667z"/>
        <path d="M20.517.642a.5.5 0 1 1 .698.716L1.349 20.712a.5.5 0 0 1-.698-.717L20.517.642z"/>
    </g>
</svg>
