<svg xmlns="http://www.w3.org/2000/svg" width="20" height="21" viewBox="0 0 20 21">
    <g fill="none" fill-rule="evenodd">
        <path fill="#000" d="M17.333 3.667H2.667v14.666h14.666V3.667zM18 3v16H2V3h16zM7.333 7.333v-.666h8v.666h-8zm0 4v-.666h8v.666h-8zm0 4v-.666h8v.666h-8zm-2-7.666c-.444 0-.666-.223-.666-.667 0-.444.222-.667.666-.667.445 0 .667.223.667.667 0 .444-.222.667-.667.667zm0 4c-.444 0-.666-.223-.666-.667 0-.444.222-.667.666-.667.445 0 .667.223.667.667 0 .444-.222.667-.667.667zm0 4c-.444 0-.666-.223-.666-.667 0-.444.222-.667.666-.667.445 0 .667.223.667.667 0 .444-.222.667-.667.667z"/>
        <path stroke="#232323" stroke-linecap="round" d="M19.866 1L0 20.354"/>
    </g>
</svg>
