<svg xmlns="http://www.w3.org/2000/svg" width="88" height="88" viewBox="0 0 88 88">
    <g fill="none" fill-rule="evenodd">
        <path fill="#000" d="M43.707 0c24.138 0 43.706 19.568 43.706 43.707 0 24.138-19.568 43.706-43.706 43.706C19.568 87.413 0 67.845 0 43.707 0 19.568 19.568 0 43.707 0z"/>
        <circle cx="44" cy="44" r="44" fill="#F9F9F9" opacity=".23"/>
        <path fill="#F9F9F9" d="M37.195 35.553h-4.928v15.162c0 4.424 3.58 8.006 7.996 8.006h1.871v5.5h-6.578v3.312h17.25V64.22h-7.383v-5.5h1.848c4.415 0 7.996-3.583 7.996-8.005V35.553h-4.929v-8.446a6.57 6.57 0 1 0-13.143 0v8.446h-2.078v14.272c0 3.308 2.69 6 6.01 6h5.231c3.314 0 6.01-2.686 6.01-6V35.553h-2.03v10.892a6.57 6.57 0 1 1-13.143 0V35.553z" opacity=".1"/>
    </g>
</svg>
