<svg xmlns="http://www.w3.org/2000/svg" width="16" height="16" viewBox="0 0 16 16">
    <g fill="none" fill-rule="evenodd">
        <rect width="16" height="16" fill="#1DA1F2" rx="3"/>
        <path fill="#FFF" d="M10.547 7.39l-.645-1.28a.402.402 0 0 0-.756.116l-.29 1.778-.273 1.683-.213-1.662-.47-3.674a.403.403 0 0 0-.783-.069L5.915 8.136l-.36 1.156L5.37 8.16 5.1 6.485a.401.401 0 0 0-.347-.334.405.405 0 0 0-.419.235l-.67 1.504H2.403a.402.402 0 0 0 0 .804h1.523a.4.4 0 0 0 .367-.238l.113-.253.115-.258.04.25.472 2.91a.402.402 0 0 0 .781.056l.956-3.064.566-1.815.228 1.78.573 4.475a.403.403 0 0 0 .392.352.405.405 0 0 0 .404-.339l.744-4.582.064-.391.19.379a.41.41 0 0 0 .369.238h3.297a.402.402 0 0 0 0-.804h-3.05z"/>
    </g>
</svg>
