<?xml version="1.0" encoding="UTF-8"?>
<svg width="26px" height="50px" viewBox="0 0 26 50" version="1.1" xmlns="http://www.w3.org/2000/svg" xmlns:xlink="http://www.w3.org/1999/xlink">
    <!-- Generator: Sketch 47 (45396) - http://www.bohemiancoding.com/sketch -->
    <title>Siri Icon</title>
    <desc>Created with Sketch.</desc>
    <defs></defs>
    <g id="eJoyTube" stroke="none" stroke-width="1" fill="none" fill-rule="evenodd">
        <g id="Ejoytube/Video/Speaking" transform="translate(-485.000000, -314.000000)" fill="#EE375F">
            <g id="Record-button" transform="translate(450.000000, 292.000000)">
                <path d="M40.5714286,37.978515 L35,37.978515 L35,54.6230708 C35,59.0412884 38.5796067,62.6251157 42.9952753,62.6251157 L46.1546612,62.6251157 L46.1546612,68.4753272 L38.7182204,68.4753272 L38.7182204,72 L58.2182204,72 L58.2182204,68.4753272 L49.8728816,68.4753272 L49.8728816,62.6251157 L53.0047247,62.6251157 C57.4121089,62.6251157 61,59.0424782 61,54.6230708 L61,37.978515 L55.4285714,37.978515 L55.4285714,29.4349057 C55.4285714,25.3293067 52.1026867,22 48,22 C43.9056614,22 40.5714286,25.3287207 40.5714286,29.4349057 L40.5714286,37.978515 L38.2224274,37.978515 L38.2224274,53.5370198 C38.2224274,56.8565746 40.9130872,59.5442906 44.2321842,59.5442906 L51.7126706,59.5442906 C55.0315091,59.5442906 57.7224274,56.8547439 57.7224274,53.5370198 L57.7224274,37.978515 L55.4285714,37.978515 L55.4285714,49.1236709 C55.4285714,53.229856 52.0943386,56.5585766 48,56.5585766 C43.8973133,56.5585766 40.5714286,53.22927 40.5714286,49.1236709 L40.5714286,37.978515 Z" id="Siri-Icon"></path>
            </g>
        </g>
    </g>
</svg>