<svg xmlns="http://www.w3.org/2000/svg" width="26" height="50" viewBox="0 0 26 50">
    <path fill="#F9F9F9" fill-rule="evenodd" d="M5.571 15.979H0v16.644c0 4.418 3.58 8.002 7.995 8.002h3.16v5.85H3.718V50h19.5v-3.525h-8.345v-5.85h3.132c4.407 0 7.995-3.583 7.995-8.002V15.98h-5.571V7.435A7.432 7.432 0 0 0 13 0C8.906 0 5.571 3.329 5.571 7.435v8.544H3.222v15.558c0 3.32 2.691 6.007 6.01 6.007h7.48c3.32 0 6.01-2.69 6.01-6.007V15.979H20.43v11.145c0 4.106-3.335 7.435-7.429 7.435a7.432 7.432 0 0 1-7.429-7.435V15.979z" opacity=".85" style="mix-blend-mode:screen"/>
</svg>
