<svg width="8" height="19" viewBox="0 0 8 19" fill="none" xmlns="http://www.w3.org/2000/svg">
<path fill-rule="evenodd" clip-rule="evenodd" d="M7.20004 5.3333H0.799956C0.359182 5.3333 0 4.99147 0 4.57186C0 4.42799 0.0399905 4.29248 0.123194 4.15921C0.13755 4.13718 0.153517 4.11432 0.171095 4.09383L3.37121 0.287011C3.78401 -0.111975 4.26243 -0.0631823 4.58235 0.238218L7.82876 4.09383C7.84634 4.11432 7.86245 4.13635 7.87681 4.15921C7.96001 4.29248 8 4.42799 8 4.57186C8 4.99147 7.64082 5.3333 7.20004 5.3333ZM6.22222 9.3333C6.22222 10.5607 5.22735 11.5555 4 11.5555C2.77279 11.5555 1.77778 10.5607 1.77778 9.3333C1.77778 8.10609 2.77279 7.11108 4 7.11108C5.22735 7.11108 6.22222 8.10609 6.22222 9.3333ZM0.799956 13.3333C0.359182 13.3333 0 13.6754 0 14.0952C0 14.2391 0.0399905 14.3749 0.123194 14.5081C0.13755 14.531 0.153517 14.5532 0.171095 14.5737L3.4175 18.432C3.57761 18.5836 3.78401 18.6666 3.99993 18.6666C4.21599 18.6666 4.42239 18.5836 4.62879 18.384L7.82876 14.5744C7.84634 14.5539 7.86245 14.531 7.87681 14.509C7.96001 14.3749 8 14.2391 8 14.0952C8 13.6754 7.64082 13.3333 7.20004 13.3333H0.799956Z" fill="#1DA1F2"/>
</svg>
