<svg width="30" height="31" viewBox="0 0 30 31" fill="none" xmlns="http://www.w3.org/2000/svg">
<g clip-path="url(#clip0)">
<path d="M17.0342 8.23536C17.308 8.22767 17.5372 8.44868 17.5449 8.72255L17.6103 12.0203L23.7693 5.63333C23.9584 5.43728 24.273 5.43156 24.4718 5.62328C24.6706 5.815 24.6763 6.1296 24.4873 6.32566L18.3282 12.7127L21.6289 12.6554C21.9028 12.6531 22.1266 12.8742 22.1343 13.1481C22.1366 13.4221 21.9209 13.6457 21.6442 13.6508L17.1582 13.716C17.0958 13.7144 17.0359 13.7047 16.9731 13.6814C16.9102 13.6581 16.8553 13.6211 16.8084 13.5759C16.7145 13.4853 16.6607 13.3642 16.6556 13.2314L16.5578 8.74591C16.5447 8.47214 16.7603 8.24305 17.0342 8.23536Z" fill="#1DA1F2"/>
</g>
<g clip-path="url(#clip1)">
<path d="M13.0131 22.6831C12.7396 22.6986 12.5042 22.4841 12.4888 22.2106L12.3302 18.916L6.35432 25.4747C6.17088 25.676 5.85657 25.6906 5.65241 25.5046C5.44824 25.3186 5.43363 25.0043 5.61706 24.803L11.5929 18.2442L8.29522 18.3949C8.02142 18.4049 7.79149 18.1902 7.77605 17.9167C7.76604 17.6429 7.97531 17.4132 8.25168 17.4003L12.7341 17.2082C12.7965 17.208 12.8567 17.2161 12.9201 17.2376C12.9836 17.259 13.0395 17.2945 13.0877 17.3384C13.1841 17.4262 13.2413 17.5458 13.2502 17.6784L13.4748 22.1593C13.4957 22.4326 13.2867 22.6677 13.0131 22.6831Z" fill="#1DA1F2"/>
</g>
<defs>
<clipPath id="clip0">
<path d="M20.3632 0.963989L29.0358 9.32708L20.6727 17.9997L12.0001 9.63662L20.3632 0.963989Z" fill="white"/>
</clipPath>
<clipPath id="clip1">
<path d="M9.89124 30.0458L0.985446 21.9314L9.0998 13.0256L18.0056 21.14L9.89124 30.0458Z" fill="white"/>
</clipPath>
</defs>
</svg>
