<svg width="19" height="22" viewBox="0 0 19 22" fill="none" xmlns="http://www.w3.org/2000/svg">
<path d="M18.1209 12.6105C17.7428 12.6105 17.4187 12.9002 17.3892 13.2784C17.0504 17.3593 13.6177 20.5415 9.44351 20.5415C5.04832 20.5415 1.46834 16.986 1.46834 12.6154C1.46834 8.31354 4.93538 4.79739 9.23726 4.68935C9.35021 4.68444 9.4386 4.77284 9.4386 4.88578V7.35593C9.4386 7.97469 10.1212 8.34791 10.6467 8.01889L15.3709 4.71391C15.862 4.40452 15.862 3.69245 15.3709 3.38307L10.6516 0.122286C10.1261 -0.206739 9.44351 0.166484 9.44351 0.785248V3.02949C9.44351 3.13753 9.36003 3.22593 9.25199 3.22593C4.12509 3.32905 0 7.49343 0 12.6154C0 17.8012 4.22822 22 9.44351 22C14.3936 22 18.45 18.2334 18.8526 13.4011C18.8919 12.9739 18.5482 12.6105 18.1209 12.6105Z" fill="#8C8C8C"/>
</svg>
