<svg width="19" height="22" viewBox="0 0 19 22" fill="none" xmlns="http://www.w3.org/2000/svg">
<path d="M0.879066 12.6105C1.2572 12.6105 1.58131 12.9002 1.61078 13.2784C1.94963 17.3593 5.38229 20.5415 9.55649 20.5415C13.9517 20.5415 17.5317 16.986 17.5317 12.6154C17.5317 8.31354 14.0646 4.79739 9.76274 4.68935C9.64979 4.68444 9.5614 4.77284 9.5614 4.88578V7.35593C9.5614 7.97469 8.8788 8.34791 8.35334 8.01889L3.62913 4.71391C3.13804 4.40452 3.13804 3.69245 3.62913 3.38307L8.34843 0.122286C8.87389 -0.206739 9.55649 0.166484 9.55649 0.785248V3.02949C9.55649 3.13753 9.63997 3.22593 9.74801 3.22593C14.8749 3.32905 19 7.49343 19 12.6154C19 17.8012 14.7718 22 9.55649 22C4.60638 22 0.550041 18.2334 0.147354 13.4011C0.108067 12.9739 0.451824 12.6105 0.879066 12.6105Z" fill="#8C8C8C"/>
</svg>
