<svg width="20" height="20" viewBox="0 0 20 20" fill="none" xmlns="http://www.w3.org/2000/svg">
<path fill-rule="evenodd" clip-rule="evenodd" d="M20 7.59698C19.0312 7.97188 18.349 8.90393 18.349 9.9974C18.349 11.0961 19.0365 12.0281 19.9948 12.403C19.7396 13.4652 19.3177 14.4702 18.7604 15.3762C18.4323 15.2304 18.0729 15.1575 17.7188 15.1575C17.0573 15.1575 16.401 15.4074 15.901 15.9073C15.1302 16.6832 14.9531 17.8235 15.3698 18.7659C14.4635 19.3231 13.4635 19.7449 12.3958 20C12.026 19.0367 11.0938 18.3546 10 18.3546C8.90625 18.3546 7.97396 19.0367 7.60417 20C6.54167 19.7449 5.53646 19.3231 4.63021 18.7659C5.04688 17.8235 4.86979 16.6779 4.09896 15.9073C3.59375 15.4074 2.9375 15.1575 2.28125 15.1575C1.92708 15.1575 1.57292 15.2304 1.23958 15.3762C0.682292 14.4702 0.260417 13.4705 0.00520833 12.403C0.96875 12.0281 1.65104 11.0961 1.65104 10.0026C1.65104 8.90393 0.963542 7.97188 0 7.60219C0.255208 6.53476 0.677083 5.53502 1.22917 4.6238C1.5625 4.7748 1.91667 4.8477 2.27604 4.8477C2.93229 4.8477 3.59375 4.59776 4.09375 4.09789C4.86979 3.32205 5.04688 2.17652 4.625 1.23405C5.53125 0.676907 6.53125 0.255142 7.59896 0C7.96875 0.963291 8.90625 1.65061 10 1.65061C11.0938 1.65061 12.0312 0.963291 12.401 0C13.4635 0.255142 14.4688 0.676907 15.3698 1.23405C14.9531 2.18172 15.125 3.32205 15.901 4.09789C16.4062 4.59776 17.0625 4.8477 17.7188 4.8477C18.0781 4.8477 18.4323 4.76959 18.7656 4.6238C19.3229 5.52981 19.7448 6.52955 20 7.59698ZM5.88021 9.99219C5.88021 12.2885 7.73959 14.1578 10.0469 14.1578C12.3542 14.1578 14.2135 12.2885 14.2135 9.99219C14.2135 7.69591 12.3542 5.82661 10.0469 5.82661C7.73959 5.82661 5.88021 7.69591 5.88021 9.99219Z" fill="#1DA1F2"/>
</svg>
