<svg width="12" height="12" viewBox="0 0 12 12" fill="none" xmlns="http://www.w3.org/2000/svg">
<path fill-rule="evenodd" clip-rule="evenodd" d="M5.99996 0.166626C2.7776 0.166626 0.166626 2.7776 0.166626 5.99996C0.166626 9.22232 2.7776 11.8333 5.99996 11.8333C9.22232 11.8333 11.8333 9.22232 11.8333 5.99996C11.8333 2.7776 9.22232 0.166626 5.99996 0.166626ZM5.87936 8.69227C5.54843 8.69227 5.2792 8.43987 5.2792 8.11455C5.2792 7.79203 5.54843 7.53682 5.87936 7.53682C6.2131 7.53682 6.48233 7.78922 6.48233 8.11455C6.48233 8.43987 6.2159 8.69227 5.87936 8.69227ZM6.35332 6.82448C6.35332 6.4655 6.51878 6.25797 7.00676 5.97472C7.52559 5.66903 7.79482 5.28481 7.79482 4.72672C7.79482 3.88818 7.07127 3.30485 6.01958 3.30485C4.89218 3.30485 4.22471 3.94427 4.20508 4.84731H5.20067C5.22311 4.43225 5.5288 4.15741 5.95228 4.15741C6.37014 4.15741 6.70668 4.41262 6.70668 4.76037C6.70668 5.10813 6.50756 5.28762 6.03361 5.57087C5.52599 5.86815 5.32407 6.22712 5.37175 6.80485L5.38016 7.04603H6.35332V6.82448Z" fill="#8C8C8C"/>
</svg>
