<svg width="28" height="30" viewBox="0 0 28 30" fill="none" xmlns="http://www.w3.org/2000/svg">
<g clip-path="url(#clip0)">
<path d="M23.0858 9.46225C22.8133 9.49057 22.5681 9.28746 22.5398 9.01495L22.226 5.73148L16.566 12.5646C16.3923 12.7743 16.079 12.8038 15.8663 12.6276C15.6536 12.4514 15.6242 12.1381 15.7979 11.9284L21.458 5.09525L18.171 5.40116C17.898 5.42407 17.6582 5.22045 17.6299 4.94794C17.607 4.67493 17.8052 4.43563 18.0807 4.40977L22.549 4.00655C22.6114 4.00342 22.6718 4.00864 22.7362 4.02711C22.8006 4.04559 22.8582 4.07832 22.9084 4.11992C23.0089 4.20312 23.0716 4.31983 23.0867 4.45191L23.5223 8.91724C23.5561 9.18925 23.3583 9.43394 23.0858 9.46225Z" fill="#1DA1F2"/>
</g>
<g clip-path="url(#clip1)">
<path d="M4.94674 19.4881C5.21974 19.4649 5.46105 19.6726 5.48421 19.9456L5.73579 23.2345L11.5241 16.5097C11.7018 16.3032 12.0155 16.2797 12.2249 16.4599C12.4342 16.6401 12.4577 16.9539 12.28 17.1603L6.49172 23.8851L9.78385 23.6414C10.0572 23.6237 10.2932 23.8318 10.3163 24.1048C10.334 24.3782 10.1313 24.6137 9.85544 24.6344L5.38023 24.953C5.31782 24.9549 5.2575 24.9486 5.19346 24.9289C5.12943 24.9092 5.07249 24.8754 5.02307 24.8328C4.92422 24.7477 4.86371 24.6299 4.85109 24.4975L4.50001 20.0247C4.47145 19.7521 4.67374 19.5112 4.94674 19.4881Z" fill="#1DA1F2"/>
</g>
<defs>
<clipPath id="clip0">
<path d="M20.3145 16.9639L11.0361 9.27841L18.7216 1.05267e-05L28 7.68553L20.3145 16.9639Z" fill="white"/>
</clipPath>
<clipPath id="clip1">
<path d="M7.85962 12.0402L16.991 19.8999L9.13128 29.0312L-5.98022e-05 21.1715L7.85962 12.0402Z" fill="white"/>
</clipPath>
</defs>
</svg>
