<svg width="23" height="16" viewBox="0 0 23 16" fill="none" xmlns="http://www.w3.org/2000/svg">
<path d="M6.54406 5.5167C6.5488 5.44331 6.52415 5.37096 6.4756 5.31572L4.27787 2.81541C4.22931 2.76016 4.16077 2.72647 4.0873 2.72173C4.01353 2.71702 3.94156 2.74164 3.88632 2.79019C2.87646 3.67788 2.03823 4.72475 1.39478 5.90172C1.35953 5.96629 1.35127 6.04223 1.37196 6.11279C1.39266 6.18338 1.44054 6.24288 1.50512 6.27814L4.42615 7.87482C4.46839 7.89794 4.514 7.90888 4.55901 7.90888C4.65713 7.90888 4.75226 7.85666 4.80265 7.76448C5.22793 6.98654 5.78232 6.29439 6.45035 5.70719C6.5057 5.65871 6.53939 5.59017 6.54406 5.5167Z" fill="#1DA1F2"/>
<path d="M7.52479 4.59072C7.57462 4.68466 7.67072 4.73818 7.77011 4.73818C7.81396 4.73818 7.85845 4.72776 7.89983 4.7058C8.68278 4.29057 9.52504 4.01963 10.4033 3.90048C10.5551 3.8799 10.6615 3.74013 10.6409 3.5883L10.1935 0.289611C10.1729 0.137817 10.0327 0.0315534 9.8813 0.0519843C8.54757 0.232875 7.26864 0.644258 6.08002 1.2747C5.9447 1.34649 5.89319 1.51435 5.9649 1.64975L7.52479 4.59072Z" fill="#1DA1F2"/>
<path d="M3.95117 9.05472L0.738353 8.18302C0.667349 8.16382 0.591602 8.17349 0.527769 8.2101C0.463936 8.2467 0.417285 8.30713 0.397974 8.37814C0.13394 9.35165 0 10.3607 0 11.3771C0 11.5511 0.00414595 11.7256 0.012774 11.9106C0.0196839 12.0593 0.142307 12.1752 0.289694 12.1752C0.294027 12.1752 0.298434 12.1751 0.302767 12.1749L3.62816 12.0213C3.70163 12.0179 3.77084 11.9854 3.82033 11.9311C3.86989 11.8767 3.89585 11.8048 3.89242 11.7314C3.88663 11.6066 3.88383 11.4907 3.88383 11.3771C3.88383 10.7041 3.97216 10.0372 4.14637 9.39506C4.18637 9.24722 4.099 9.09487 3.95117 9.05472Z" fill="#1DA1F2"/>
<path d="M16.3873 1.07656C15.1767 0.492953 13.8833 0.131284 12.543 0.00137726C12.4693 -0.00601823 12.3966 0.0166163 12.3398 0.0633423C12.283 0.110106 12.2472 0.177487 12.2401 0.25077L11.9191 3.56425C11.9043 3.71671 12.016 3.85233 12.1685 3.86709C13.0519 3.95266 13.9039 4.19088 14.7009 4.57504C14.7388 4.59334 14.78 4.6026 14.8214 4.6026C14.8522 4.6026 14.8831 4.59741 14.9129 4.58706C14.9823 4.56282 15.0393 4.51191 15.0712 4.44565L16.5167 1.44686C16.5833 1.30888 16.5254 1.14305 16.3873 1.07656Z" fill="#1DA1F2"/>
<path d="M21.2769 5.73017C21.2948 5.6588 21.2837 5.58331 21.2459 5.52011C20.5575 4.3684 19.6797 3.3544 18.637 2.50642C18.5799 2.46003 18.5071 2.43829 18.4336 2.44565C18.3604 2.45323 18.2932 2.4895 18.2468 2.54657L16.1463 5.12916C16.0999 5.18627 16.0781 5.25944 16.0856 5.33261C16.0931 5.40578 16.1295 5.47298 16.1866 5.51944C16.8764 6.08041 17.4571 6.75108 17.9124 7.51282C17.9644 7.5997 18.0564 7.64795 18.1508 7.64795C18.1992 7.64795 18.2483 7.63525 18.2928 7.60859L21.1502 5.9006C21.2133 5.86284 21.2589 5.80155 21.2769 5.73017Z" fill="#1DA1F2"/>
<path d="M22.3375 7.95637C22.2916 7.81014 22.1359 7.72868 21.9898 7.77458L18.8132 8.76991C18.667 8.8157 18.5856 8.97134 18.6314 9.1175C18.8594 9.84531 18.975 10.6055 18.975 11.377C18.975 11.4906 18.9722 11.6065 18.9664 11.7312C18.963 11.8047 18.9889 11.8766 19.0385 11.931C19.0881 11.9853 19.1572 12.0178 19.2307 12.0212L22.556 12.1748C22.5604 12.175 22.5648 12.1751 22.5691 12.1751C22.7164 12.1751 22.8391 12.0592 22.846 11.9105C22.8546 11.7254 22.8588 11.5509 22.8588 11.377C22.8587 10.2111 22.6834 9.06027 22.3375 7.95637Z" fill="#1DA1F2"/>
<path d="M11.4196 10.7882C11.3718 10.7882 11.3242 10.7898 11.2768 10.7923L6.77038 8.13348C6.66009 8.0683 6.52006 8.08463 6.42765 8.17326C6.33517 8.26182 6.31298 8.40106 6.37327 8.51394L8.83152 13.1214C8.82248 13.2101 8.81766 13.2997 8.81766 13.3901C8.81766 14.0851 9.08831 14.7385 9.57974 15.2299C10.0712 15.7214 10.7246 15.992 11.4196 15.992C12.1147 15.992 12.7681 15.7213 13.2595 15.2299C13.7509 14.7385 14.0215 14.0851 14.0215 13.3901C14.0215 12.6951 13.7509 12.0417 13.2595 11.5503C12.7681 11.0588 12.1146 10.7882 11.4196 10.7882Z" fill="#1DA1F2"/>
</svg>
