<svg width="22" height="20" viewBox="0 0 22 20" fill="none" xmlns="http://www.w3.org/2000/svg">
<path fill-rule="evenodd" clip-rule="evenodd" d="M12.375 0C15.7008 0 18.4336 2.51797 18.7816 5.74922C20.6121 6.07578 22 7.76875 22 9.68946C22 11.8465 20.2512 13.75 18.0941 13.75H11.75V9.02744L13.4306 10.9881C13.7001 11.3026 14.1736 11.339 14.4881 11.0694C14.8026 10.7999 14.839 10.3264 14.5694 10.0119L11.5694 6.51191C11.427 6.34567 11.2189 6.25 11 6.25C10.7811 6.25 10.573 6.34567 10.4306 6.51191L7.43056 10.0119C7.16099 10.3264 7.19741 10.7999 7.51191 11.0694C7.8264 11.339 8.29988 11.3026 8.56944 10.9881L10.25 9.02744V13.75H3.90586C1.74883 13.75 0 11.8465 0 9.68946C0 7.92774 1.13438 6.25195 2.84883 5.70625C2.87461 4.03047 4.23672 2.55234 5.9168 2.55234C6.325 2.55234 6.71602 2.63398 7.07266 2.78008C8.23711 1.1 10.175 0 12.375 0ZM10.25 13.75V19C10.25 19.4142 10.5858 19.75 11 19.75C11.4142 19.75 11.75 19.4142 11.75 19V13.75H11.5586H11H10.4414H10.25Z" fill="#E6E6E6"/>
</svg>
