<svg xmlns="http://www.w3.org/2000/svg" xmlns:xlink="http://www.w3.org/1999/xlink" width="52" height="52" viewBox="0 0 52 52">
    <defs>
        <linearGradient id="a" x1="27.287%" x2="66.231%" y1="0%" y2="100%">
            <stop offset="0%" stop-color="#FBEB69"/>
            <stop offset="100%" stop-color="#F5BE38"/>
        </linearGradient>
        <path id="b" d="M26 45.465c-10.904 0-19.743-8.84-19.743-19.743 0-10.904 8.84-19.743 19.743-19.743 10.904 0 19.743 8.839 19.743 19.743 0 10.904-8.84 19.743-19.743 19.743zm0-2.502c9.522 0 17.24-7.72 17.24-17.241 0-9.522-7.718-17.24-17.24-17.24-9.522 0-17.24 7.718-17.24 17.24 0 9.522 7.718 17.24 17.24 17.24z"/>
        <filter id="c" width="102.5%" height="102.5%" x="-1.3%" y="-1.3%" filterUnits="objectBoundingBox">
            <feGaussianBlur in="SourceAlpha" result="shadowBlurInner1" stdDeviation=".5"/>
            <feOffset in="shadowBlurInner1" result="shadowOffsetInner1"/>
            <feComposite in="shadowOffsetInner1" in2="SourceAlpha" k2="-1" k3="1" operator="arithmetic" result="shadowInnerInner1"/>
            <feColorMatrix in="shadowInnerInner1" values="0 0 0 0 0 0 0 0 0 0 0 0 0 0 0 0 0 0 0.2 0"/>
        </filter>
        <path id="e" d="M26.607 13.889l6.466 11.778 5.547-4.25a.54.54 0 0 1 .85.572l-3.091 11.169a1.35 1.35 0 0 1-1.302.99H17.191a1.35 1.35 0 0 1-1.301-.99l-3.091-11.169a.54.54 0 0 1 .849-.573l5.547 4.25 6.466-11.777a.54.54 0 0 1 .946 0z"/>
        <filter id="d" width="111.2%" height="114.6%" x="-5.6%" y="-7.3%" filterUnits="objectBoundingBox">
            <feOffset in="SourceAlpha" result="shadowOffsetOuter1"/>
            <feGaussianBlur in="shadowOffsetOuter1" result="shadowBlurOuter1" stdDeviation=".5"/>
            <feColorMatrix in="shadowBlurOuter1" values="0 0 0 0 0 0 0 0 0 0 0 0 0 0 0 0 0 0 0.2 0"/>
        </filter>
    </defs>
    <g fill="none" fill-rule="evenodd">
        <circle cx="25.861" cy="25.861" r="25.861" fill="url(#a)"/>
        <g fill-rule="nonzero">
            <use fill="#F4B200" fill-rule="evenodd" xlink:href="#b"/>
            <use fill="#000" filter="url(#c)" xlink:href="#b"/>
        </g>
        <path stroke="#FFF" stroke-linecap="round" stroke-width="1.35" d="M18.085 3.325c-3.466 1.247-6.5 3.276-9.136 6.205"/>
        <use fill="#000" filter="url(#d)" xlink:href="#e"/>
        <use fill="#FFFEE7" xlink:href="#e"/>
        <path fill="#FFF" d="M7.589 26.318a4.179 4.179 0 0 0-2.96 2.96 4.179 4.179 0 0 0-2.96-2.96 4.179 4.179 0 0 0 2.96-2.96 4.179 4.179 0 0 0 2.96 2.96zM44.492 12.791a5.496 5.496 0 0 0-3.893 3.893 5.496 5.496 0 0 0-3.893-3.893 5.496 5.496 0 0 0 3.893-3.893 5.496 5.496 0 0 0 3.893 3.893zM40.599 39.209a3.533 3.533 0 0 0-2.503 2.502 3.533 3.533 0 0 0-2.502-2.502 3.533 3.533 0 0 0 2.502-2.503 3.533 3.533 0 0 0 2.503 2.503z"/>
    </g>
</svg>
