<svg width="48" height="48" viewBox="0 0 48 48" fill="none" xmlns="http://www.w3.org/2000/svg">
<g opacity="0.5" filter="url(#filter0_d)">
<path fill-rule="evenodd" clip-rule="evenodd" d="M13 11H35C36.1046 11 37 11.8954 37 13V35C37 36.1046 36.1046 37 35 37H13C11.8954 37 11 36.1046 11 35V13C11 11.8954 11.8954 11 13 11ZM10 13C10 11.3431 11.3431 10 13 10H35C36.6569 10 38 11.3431 38 13V35C38 36.6569 36.6569 38 35 38H13C11.3431 38 10 36.6569 10 35V13ZM25.1194 25.1194H32.8806C33.4988 25.1194 34 24.6182 34 24C34 23.3818 33.4988 22.8806 32.8806 22.8806H25.1194V15.1194C25.1194 14.5012 24.6182 14 24 14C23.3818 14 22.8806 14.5012 22.8806 15.1194V22.8806H15.1194C14.5012 22.8806 14 23.3818 14 24C14 24.6182 14.5012 25.1194 15.1194 25.1194H22.8806V32.8806C22.8806 33.4988 23.3818 34 24 34C24.6182 34 25.1194 33.4988 25.1194 32.8806V25.1194Z" fill="#D8D8D8"/>
</g>
<defs>
<filter id="filter0_d" x="-2" y="-2" width="52" height="52" filterUnits="userSpaceOnUse" color-interpolation-filters="sRGB">
<feFlood flood-opacity="0" result="BackgroundImageFix"/>
<feColorMatrix in="SourceAlpha" type="matrix" values="0 0 0 0 0 0 0 0 0 0 0 0 0 0 0 0 0 0 127 0"/>
<feOffset/>
<feGaussianBlur stdDeviation="5"/>
<feColorMatrix type="matrix" values="0 0 0 0 0 0 0 0 0 0 0 0 0 0 0 0 0 0 1 0"/>
<feBlend mode="normal" in2="BackgroundImageFix" result="effect1_dropShadow"/>
<feBlend mode="normal" in="SourceGraphic" in2="effect1_dropShadow" result="shape"/>
</filter>
</defs>
</svg>
