<svg width="24" height="24" viewBox="0 0 24 24" fill="none" xmlns="http://www.w3.org/2000/svg">
<g opacity="0.5">
<circle cx="12" cy="12" r="12" fill="#333333"/>
<g clip-path="url(#clip0)">
<path d="M21.8324 13.2268L21.9905 13.1307C22.2981 12.9348 22.3704 12.5479 22.1575 12.2664C21.9427 11.9824 21.5202 11.9184 21.2189 12.1116C10.6778 18.8984 3.00452 12.4456 2.68217 12.1684C2.41015 11.9339 1.9815 11.9458 1.72819 12.1948C1.47362 12.4448 1.48597 12.8359 1.75527 13.0711C1.7698 13.0838 2.00984 13.2862 2.44795 13.5855L1.09766 15.6362C0.905047 15.9287 1.00608 16.3106 1.32389 16.4895C1.43255 16.5497 1.55593 16.58 1.67531 16.58C1.90227 16.58 2.12323 16.4737 2.2517 16.2825L3.572 14.279C4.31229 14.694 5.26154 15.1471 6.3925 15.53L5.7418 17.5333C5.63405 17.8631 5.83556 18.2072 6.19153 18.3052L6.3856 18.3317C6.67324 18.3317 6.94217 18.1576 7.02976 17.8884L7.6741 15.9125C8.71802 16.1754 9.88587 16.3529 11.1462 16.3951V18.3794C11.1462 18.7227 11.4473 19 11.8202 19C12.1927 19 12.494 18.7227 12.494 18.3794V16.384C13.5937 16.3285 14.7591 16.1543 15.9761 15.8347L16.8056 17.8491C16.909 18.0972 17.1652 18.2492 17.4357 18.2492L17.6741 18.21C18.0221 18.0882 18.1986 17.7303 18.0663 17.41L17.2586 15.4473C18.3666 15.0683 19.5119 14.5693 20.6949 13.9073L21.7868 15.2495C21.9198 15.4117 22.1228 15.4987 22.3255 15.4987C22.4669 15.4987 22.6081 15.4592 22.7293 15.374C23.028 15.1682 23.0884 14.7791 22.8659 14.5052L21.8324 13.2268Z" fill="white"/>
</g>
</g>
<defs>
<clipPath id="clip0">
<rect width="24" height="24" fill="white"/>
</clipPath>
</defs>
</svg>
