<svg width="32" height="32" viewBox="0 0 32 32" fill="none" xmlns="http://www.w3.org/2000/svg">
<g opacity="0.5">
<path d="M21.823 2.17505L21.823 2.17505L21.8239 2.17581L26.5336 6.09752C26.5339 6.09776 26.5342 6.098 26.5345 6.09823C26.7735 6.29965 26.9243 6.58209 26.959 6.88324H21.6C21.236 6.88324 20.9374 6.58863 20.9327 6.21943V1.84092C21.0511 1.84829 21.2111 1.8817 21.3803 1.94227C21.574 2.0116 21.7329 2.09964 21.823 2.17505Z" stroke="#D8D8D8"/>
<path d="M10.8445 1.83325H18.35V6.22214C18.35 8.01384 19.8083 9.47214 21.6 9.47214H26.9667V23.8221C26.9667 24.6216 26.3106 25.2777 25.5111 25.2777H10.8445C10.0451 25.2777 9.38892 24.6216 9.38892 23.8221V3.28881C9.38892 2.48939 10.0451 1.83325 10.8445 1.83325Z" stroke="#D8D8D8"/>
<path d="M5.95556 5.74438H6.67778V25.5333C6.67778 26.885 7.78164 27.9888 9.13333 27.9888H23.0556V28.7111C23.0556 29.5105 22.3994 30.1666 21.6 30.1666H5.95556C5.15614 30.1666 4.5 29.5105 4.5 28.7111V7.19994C4.5 6.40053 5.15614 5.74438 5.95556 5.74438Z" stroke="#D8D8D8"/>
</g>
</svg>
