<svg width="16" height="16" viewBox="0 0 16 16" fill="none" xmlns="http://www.w3.org/2000/svg">
<path fill-rule="evenodd" clip-rule="evenodd" d="M8.00004 1.88893C4.62417 1.88893 1.88893 4.62417 1.88893 8.00004C1.88893 11.3759 4.62417 14.1112 8.00004 14.1112C11.3759 14.1112 14.1112 11.3759 14.1112 8.00004C14.1112 4.62417 11.3759 1.88893 8.00004 1.88893ZM1.33337 8.00004C1.33337 4.31735 4.31735 1.33337 8.00004 1.33337C11.6827 1.33337 14.6667 4.31735 14.6667 8.00004C14.6667 11.6827 11.6827 14.6667 8.00004 14.6667C4.31735 14.6667 1.33337 11.6827 1.33337 8.00004Z" fill="#8C8C8C"/>
<path d="M7.86217 11.077C7.48396 11.077 7.17627 10.7885 7.17627 10.4167C7.17627 10.0481 7.48396 9.75647 7.86217 9.75647C8.24358 9.75647 8.55127 10.0449 8.55127 10.4167C8.55127 10.7885 8.24678 11.077 7.86217 11.077Z" fill="#8C8C8C"/>
<path d="M9.15065 7.9712C8.59296 8.29492 8.40386 8.5321 8.40386 8.94236V9.19556H7.29168L7.28206 8.91992C7.22758 8.25967 7.45835 7.84941 8.03847 7.50967C8.58014 7.18595 8.8077 6.98082 8.8077 6.58338C8.8077 6.18595 8.42309 5.89428 7.94552 5.89428C7.46155 5.89428 7.11219 6.20838 7.08655 6.68274H5.94873C5.97117 5.65069 6.73399 4.91992 8.02245 4.91992C9.22437 4.91992 10.0513 5.58659 10.0513 6.54492C10.0513 7.18274 9.7436 7.62185 9.15065 7.9712Z" fill="#8C8C8C"/>
</svg>
