<svg width="36" height="29" viewBox="0 0 36 29" fill="none" xmlns="http://www.w3.org/2000/svg">
<path fill-rule="evenodd" clip-rule="evenodd" d="M3.6118 22.0254L6.99268 20.6594C6.45295 19.7061 5.58718 19.2635 4.64231 19.6453C3.7122 20.0211 3.37613 20.932 3.6118 22.0254ZM9.82954 23.9403C9.37497 24.813 8.62396 25.5471 7.47239 26.0124C5.09544 26.9727 2.66248 26.0092 1.68125 23.5806L1.66928 23.5509C0.75387 21.2852 1.60924 18.7691 3.91237 17.8386C6.55507 16.7709 8.60091 18.4765 9.26504 20.1203C9.52829 20.7719 9.24413 21.3862 8.65358 21.6248L4.20972 23.4203C4.84401 24.3526 5.76805 24.5994 6.77198 24.1938C7.39206 23.9433 7.83101 23.542 8.15107 23.0165C8.2656 22.8324 8.38931 22.7135 8.62553 22.6181C9.12749 22.4153 9.65214 22.6512 9.85557 23.1547C9.97523 23.4508 9.9321 23.7266 9.82954 23.9403Z" fill="#E7E7E7"/>
<path fill-rule="evenodd" clip-rule="evenodd" d="M11.4092 28.9967C13.0658 28.9967 14.0928 28.0994 14.0928 26.1388V18.5454C14.0928 17.8476 13.5296 17.2826 12.8338 17.2826C12.1381 17.2826 11.5749 17.8476 11.5749 18.5454V26.1222C11.5749 26.7203 11.3264 26.953 10.962 26.953H10.9454C10.4153 26.953 9.96808 27.3517 9.96808 27.9665C9.96808 28.6644 10.5644 28.9967 11.3761 28.9967H11.4092ZM20.8182 26.4877C18.0684 26.4877 16.0309 24.444 16.0309 21.8852V21.8519C16.0309 19.2931 18.085 17.2162 20.8514 17.2162C23.6012 17.2162 25.6387 19.2599 25.6387 21.8187V21.8519C25.6387 24.4108 23.5846 26.4877 20.8182 26.4877ZM20.8514 24.3111C22.2925 24.3111 23.1539 23.1978 23.1539 21.8852V21.8519C23.1539 20.5393 22.2097 19.3928 20.8182 19.3928C19.3771 19.3928 18.5157 20.5061 18.5157 21.8187V21.8519C18.5157 23.1646 19.4599 24.3111 20.8514 24.3111ZM29.2996 28.9967C30.807 28.9967 31.5525 28.3154 32.2979 26.5043L35.3956 19.0439C35.4453 18.9276 35.5115 18.6451 35.5115 18.4457C35.5115 17.7811 34.9649 17.2826 34.3188 17.2826C33.6728 17.2826 33.3084 17.7147 33.1096 18.2464L31.2543 23.4138L29.3327 18.2297C29.1174 17.6316 28.7529 17.2826 28.1235 17.2826C27.4277 17.2826 26.8811 17.7811 26.8811 18.4956C26.8811 18.6617 26.9473 18.911 27.0136 19.0771L30.045 26.1222L29.9622 26.3216C29.7303 26.7702 29.5149 26.8533 29.0677 26.8533C28.8855 26.8533 28.7529 26.82 28.5376 26.7536C28.4382 26.7203 28.3222 26.6871 28.1235 26.6871C27.6099 26.6871 27.1296 27.1025 27.1296 27.7173C27.1296 28.332 27.5603 28.6311 27.9247 28.7641C28.3388 28.9136 28.7364 28.9967 29.2996 28.9967Z" fill="#E7E7E7"/>
<g filter="url(#filter0_dd)">
<mask id="path-3-inside-1" fill="white">
<path fill-rule="evenodd" clip-rule="evenodd" d="M12.9726 16.0626C14.5854 16.0192 15.4939 14.8099 15.4394 13.4201C15.2132 11.3801 12.799 10.7234 13.7653 8C11.824 9.67821 10.4302 11.8267 10.4896 13.3554C10.516 14.8382 11.3714 16.0626 12.9726 16.0626ZM14.4439 13.9937C14.6923 13.9937 14.8711 13.7906 14.8937 13.5426C14.9528 13.3678 14.8937 12.5667 14.3033 12.0531C14.3991 12.7202 13.9406 13.2744 13.9941 13.5426C13.9941 13.7917 14.1955 13.9937 14.4439 13.9937Z"/>
</mask>
<path fill-rule="evenodd" clip-rule="evenodd" d="M12.9726 16.0626C14.5854 16.0192 15.4939 14.8099 15.4394 13.4201C15.2132 11.3801 12.799 10.7234 13.7653 8C11.824 9.67821 10.4302 11.8267 10.4896 13.3554C10.516 14.8382 11.3714 16.0626 12.9726 16.0626ZM14.4439 13.9937C14.6923 13.9937 14.8711 13.7906 14.8937 13.5426C14.9528 13.3678 14.8937 12.5667 14.3033 12.0531C14.3991 12.7202 13.9406 13.2744 13.9941 13.5426C13.9941 13.7917 14.1955 13.9937 14.4439 13.9937Z" fill="#F9F9F9"/>
<path d="M12.9726 16.0626V19.0626H13.013L13.0534 19.0615L12.9726 16.0626ZM15.4394 13.4201L18.4371 13.3025L18.4329 13.1958L18.4211 13.0895L15.4394 13.4201ZM13.7653 8L16.5926 9.00323L20.3868 -1.68943L11.8034 5.73044L13.7653 8ZM10.4896 13.3554L13.4891 13.3018L13.4885 13.2704L13.4873 13.239L10.4896 13.3554ZM14.8937 13.5426L12.0521 12.5805L11.9383 12.9166L11.9061 13.27L14.8937 13.5426ZM14.3033 12.0531L16.2724 9.78978L10.1872 4.49568L11.3338 12.4796L14.3033 12.0531ZM13.9941 13.5426H16.9941V13.2463L16.9361 12.9558L13.9941 13.5426ZM13.0534 19.0615C14.6379 19.0188 16.0776 18.3759 17.0875 17.2233C18.0702 16.1019 18.491 14.6777 18.4371 13.3025L12.4417 13.5376C12.4422 13.5523 12.436 13.4276 12.5749 13.2691C12.6435 13.1908 12.7263 13.1313 12.8063 13.095C12.8856 13.059 12.924 13.0628 12.8919 13.0637L13.0534 19.0615ZM18.4211 13.0895C18.2985 11.9835 17.8775 11.1282 17.4944 10.5118C17.3102 10.2155 17.12 9.95197 16.98 9.75989C16.8215 9.54236 16.7315 9.42135 16.6443 9.29169C16.486 9.05644 16.5135 9.04109 16.5307 9.12836C16.5556 9.25435 16.5044 9.25188 16.5926 9.00323L10.9381 6.99677C10.5431 8.10981 10.4313 9.21069 10.6441 10.2895C10.8493 11.3296 11.3133 12.1166 11.666 12.6409C11.8343 12.891 12.0185 13.1392 12.131 13.2935C12.262 13.4734 12.3398 13.5846 12.3986 13.6793C12.5015 13.8449 12.4672 13.8367 12.4576 13.7506L18.4211 13.0895ZM11.8034 5.73044C10.6373 6.73848 9.59477 7.9199 8.83007 9.14876C8.1104 10.3053 7.4284 11.8387 7.49182 13.4718L13.4873 13.239C13.4914 13.3434 13.4766 13.0383 13.9243 12.3188C14.327 11.6717 14.952 10.9397 15.7273 10.2696L11.8034 5.73044ZM7.49004 13.409C7.5128 14.683 7.89418 16.0767 8.85378 17.2068C9.86811 18.4014 11.334 19.0626 12.9726 19.0626V13.0626C12.9607 13.0626 13.0323 13.0619 13.1467 13.1136C13.2621 13.1657 13.3596 13.2434 13.4274 13.3233C13.5524 13.4704 13.4928 13.5106 13.4891 13.3018L7.49004 13.409ZM14.4439 16.9937C16.5857 16.9937 17.7511 15.2418 17.8813 13.8151L11.9061 13.27C11.991 12.3393 12.7989 10.9937 14.4439 10.9937V16.9937ZM17.7352 14.5046C17.9411 13.8967 17.9167 13.3395 17.904 13.129C17.8846 12.8043 17.8278 12.4574 17.7283 12.1065C17.5328 11.4172 17.1162 10.5239 16.2724 9.78978L12.3342 14.3164C12.0808 14.096 11.9889 13.86 11.9559 13.7433C11.9375 13.6787 11.9213 13.597 11.9148 13.4877C11.9115 13.4332 11.9091 13.3459 11.9175 13.2311C11.9233 13.1517 11.944 12.8999 12.0521 12.5805L17.7352 14.5046ZM11.3338 12.4796C11.2701 12.0362 11.41 11.7491 11.3562 11.8923C11.3432 11.9269 11.3329 11.9526 11.3025 12.0297C11.2796 12.0877 11.2349 12.2012 11.1924 12.3264C11.1514 12.4473 11.0841 12.66 11.0392 12.9214C10.9955 13.1757 10.9486 13.6107 11.052 14.1294L16.9361 12.9558C17.0262 13.4073 16.9819 13.7664 16.9527 13.9365C16.9223 14.1136 16.8812 14.2338 16.8742 14.2546C16.8656 14.2797 16.8626 14.2855 16.8849 14.2289C16.8996 14.1915 16.9379 14.0957 16.9729 14.0025C17.111 13.6348 17.4323 12.7371 17.2729 11.6267L11.3338 12.4796ZM10.9941 13.5426C10.9941 15.44 12.53 16.9937 14.4439 16.9937V10.9937C15.8609 10.9937 16.9941 12.1435 16.9941 13.5426H10.9941Z" fill="white" fill-opacity="0.01" mask="url(#path-3-inside-1)"/>
</g>
<g filter="url(#filter1_d)">
<path fill-rule="evenodd" clip-rule="evenodd" d="M14.4439 13.9937C14.6923 13.9937 14.8711 13.7906 14.8937 13.5425C14.9529 13.3678 14.8937 12.5667 14.3033 12.0531C14.3991 12.7202 13.9406 13.2743 13.9941 13.5425C13.9941 13.7917 14.1955 13.9937 14.4439 13.9937Z" stroke="#F9F9F9" stroke-opacity="0.06"/>
</g>
<defs>
<filter id="filter0_dd" x="4.48773" y="0" width="20.954" height="28.0626" filterUnits="userSpaceOnUse" color-interpolation-filters="sRGB">
<feFlood flood-opacity="0" result="BackgroundImageFix"/>
<feColorMatrix in="SourceAlpha" type="matrix" values="0 0 0 0 0 0 0 0 0 0 0 0 0 0 0 0 0 0 127 0"/>
<feOffset dx="2" dy="4"/>
<feGaussianBlur stdDeviation="4"/>
<feColorMatrix type="matrix" values="0 0 0 0 1 0 0 0 0 1 0 0 0 0 1 0 0 0 0.5 0"/>
<feBlend mode="normal" in2="BackgroundImageFix" result="effect1_dropShadow"/>
<feColorMatrix in="SourceAlpha" type="matrix" values="0 0 0 0 0 0 0 0 0 0 0 0 0 0 0 0 0 0 127 0"/>
<feOffset dx="2"/>
<feGaussianBlur stdDeviation="4"/>
<feColorMatrix type="matrix" values="0 0 0 0 1 0 0 0 0 1 0 0 0 0 1 0 0 0 0.25 0"/>
<feBlend mode="normal" in2="effect1_dropShadow" result="effect2_dropShadow"/>
<feBlend mode="normal" in="SourceGraphic" in2="effect2_dropShadow" result="shape"/>
</filter>
<filter id="filter1_d" x="9.48993" y="7.79358" width="9.92188" height="11.7002" filterUnits="userSpaceOnUse" color-interpolation-filters="sRGB">
<feFlood flood-opacity="0" result="BackgroundImageFix"/>
<feColorMatrix in="SourceAlpha" type="matrix" values="0 0 0 0 0 0 0 0 0 0 0 0 0 0 0 0 0 0 127 0"/>
<feOffset dy="1"/>
<feGaussianBlur stdDeviation="2"/>
<feColorMatrix type="matrix" values="0 0 0 0 0.976471 0 0 0 0 0.976471 0 0 0 0 0.976471 0 0 0 0.24 0"/>
<feBlend mode="normal" in2="BackgroundImageFix" result="effect1_dropShadow"/>
<feBlend mode="normal" in="SourceGraphic" in2="effect1_dropShadow" result="shape"/>
</filter>
</defs>
</svg>
