<svg width="24" height="24" viewBox="0 0 24 24" fill="none" xmlns="http://www.w3.org/2000/svg">
<g opacity="0.5">
<circle cx="12" cy="12" r="12" fill="#333333"/>
<path fill-rule="evenodd" clip-rule="evenodd" d="M1.20502 11.5455C4.92709 7.48465 8.04026 5 11.9882 5C16.6874 5 20.2475 8.42744 22.8205 11.5455C23.0709 11.8451 23.0562 12.2772 22.7959 12.562C20.272 15.3265 16.7218 19.1419 11.9882 19.1419C7.19568 19.1419 4.38695 16.1122 1.20011 12.5914C0.930044 12.2919 0.934954 11.8451 1.20502 11.5455ZM7.5836 11.8647C7.46084 14.4623 9.60176 16.6032 12.2043 16.4854C14.4729 16.3822 16.3093 14.5458 16.4125 12.2772C16.5352 9.67959 14.3943 7.53866 11.7918 7.65651C9.5232 7.75963 7.68672 9.59611 7.5836 11.8647ZM12.1502 8.93321C12.052 9.18855 11.998 9.46844 11.998 9.76306C11.998 11.0349 13.0046 12.0709 14.2421 12.0709C14.5612 12.0709 14.8608 12.0022 15.1357 11.8794C15.1357 11.9114 15.137 11.9433 15.1382 11.9752C15.1394 12.0071 15.1407 12.039 15.1407 12.0709C15.1407 13.8829 13.5988 15.3413 11.7574 15.2038C10.2205 15.0859 8.98305 13.8485 8.8652 12.3116C8.72771 10.4702 10.1861 8.9283 11.998 8.9283C12.0257 8.9283 12.052 8.92959 12.0778 8.93084C12.1023 8.93204 12.1263 8.93321 12.1502 8.93321Z" fill="white"/>
</g>
</svg>
