<svg width="16" height="16" viewBox="0 0 16 16" fill="none" xmlns="http://www.w3.org/2000/svg">
<path d="M10.3111 12.4949H5.68886C5.39433 12.4949 5.15552 12.7337 5.15552 13.0282C5.15552 13.3228 5.3943 13.5616 5.68886 13.5616H10.3111C10.6056 13.5616 10.8444 13.3228 10.8444 13.0282C10.8444 12.7337 10.6056 12.4949 10.3111 12.4949Z" fill="#E6E6E6"/>
<path d="M10.3111 10.8127H5.68886C5.39433 10.8127 5.15552 11.0515 5.15552 11.3461C5.15552 11.6406 5.3943 11.8794 5.68886 11.8794H10.3111C10.6056 11.8794 10.8444 11.6406 10.8444 11.3461C10.8444 11.0515 10.6056 10.8127 10.3111 10.8127Z" fill="#E6E6E6"/>
<path d="M14.7556 4.18464H13.0586V1.09792C13.0586 0.803388 12.8198 0.564575 12.5253 0.564575H3.47475C3.18022 0.564575 2.94141 0.803356 2.94141 1.09792V4.18464H1.24444C0.55825 4.18464 0 4.74292 0 5.42911V10.7948C0 11.481 0.55825 12.0392 1.24444 12.0392H2.9415V14.9022C2.9415 15.1967 3.18028 15.4355 3.47484 15.4355H12.5252C12.8197 15.4355 13.0585 15.1967 13.0585 14.9022V12.0392H14.7556C15.4418 12.0392 16 11.481 16 10.7948V5.42911C16 4.74295 15.4418 4.18464 14.7556 4.18464ZM4.00806 1.63126H11.9919V4.18464H4.00806V1.63126ZM11.9918 14.3688H4.00819C4.00819 14.2646 4.00819 10.1344 4.00819 10.0055H11.9918C11.9918 10.1376 11.9918 14.2686 11.9918 14.3688ZM12.5253 7.31636H11.1677C10.8731 7.31636 10.6343 7.07757 10.6343 6.78301C10.6343 6.48845 10.8731 6.24967 11.1677 6.24967H12.5253C12.8198 6.24967 13.0586 6.48845 13.0586 6.78301C13.0586 7.07757 12.8198 7.31636 12.5253 7.31636Z" fill="#E6E6E6"/>
</svg>
