<svg width="48" height="46" viewBox="0 0 48 46" fill="none" xmlns="http://www.w3.org/2000/svg">
<g opacity="0.5" filter="url(#filter0_d)">
<path d="M26.7955 19.3177L27.0241 20H27.7437H36.9191L36.8745 20.0384L29.4171 25.3874L28.8122 25.8213L29.0543 26.5252L31.9543 34.9564L31.9546 34.9573L31.9527 34.9587L24.5803 29.7043L24 29.2907L23.4196 29.7043L16.0568 34.9519C16.0527 34.9546 16.0482 34.9574 16.0434 34.9602C16.043 34.9599 16.0426 34.9596 16.0421 34.9593C16.0411 34.9582 16.0403 34.957 16.0396 34.9557L18.9393 26.5252L19.1836 25.8151L18.5698 25.3825L11.0424 20.0779C11.0304 20.0677 11.0209 20.0589 11.0137 20.0517L11.0117 20.0176L11.0073 20H20.2562H20.9758L21.2044 19.3177L23.9914 11.0005C23.9937 11.0002 23.9966 11 24 11C24.0033 11 24.0062 11.0002 24.0085 11.0005L26.7955 19.3177Z" stroke="#D8D8D8" stroke-width="2"/>
</g>
<defs>
<filter id="filter0_d" x="-2" y="-3" width="52" height="52" filterUnits="userSpaceOnUse" color-interpolation-filters="sRGB">
<feFlood flood-opacity="0" result="BackgroundImageFix"/>
<feColorMatrix in="SourceAlpha" type="matrix" values="0 0 0 0 0 0 0 0 0 0 0 0 0 0 0 0 0 0 127 0"/>
<feOffset/>
<feGaussianBlur stdDeviation="5"/>
<feColorMatrix type="matrix" values="0 0 0 0 0 0 0 0 0 0 0 0 0 0 0 0 0 0 1 0"/>
<feBlend mode="normal" in2="BackgroundImageFix" result="effect1_dropShadow"/>
<feBlend mode="normal" in="SourceGraphic" in2="effect1_dropShadow" result="shape"/>
</filter>
</defs>
</svg>
