<svg width="32" height="32" viewBox="0 0 32 32" fill="none" xmlns="http://www.w3.org/2000/svg">
<g opacity="0.5">
<path d="M1.83334 6.33326C1.83334 3.84797 3.84806 1.83325 6.33334 1.83325H25.6667C28.152 1.83325 30.1667 3.84797 30.1667 6.33325V25.6666C30.1667 28.1519 28.152 30.1666 25.6667 30.1666H6.33335C3.84807 30.1666 1.83334 28.1519 1.83334 25.6666V6.33326Z" stroke="#C4C4C4"/>
<path d="M16.6062 19.0017L14.1227 16.5475L14.152 16.5182C15.8533 14.6213 17.0658 12.4408 17.7796 10.1333H20.6444V8.17772H13.8V6.22217H11.8444V8.17772H5V10.1235H15.9218C15.2667 12.0106 14.2302 13.7999 12.8222 15.3644C11.9129 14.3573 11.16 13.2524 10.5636 12.0888H8.608C9.32178 13.6826 10.2996 15.1884 11.5218 16.5475L6.54489 21.4559L7.93333 22.8444L12.8222 17.9555L15.8631 20.9964L16.6062 19.0017ZM22.1111 14.0444H20.1556L15.7556 25.7777H17.7111L18.8062 22.8444H23.4507L24.5556 25.7777H26.5111L22.1111 14.0444ZM19.5493 20.8888L21.1333 16.6551L22.7173 20.8888H19.5493Z" fill="#C4C4C4"/>
</g>
</svg>
